AnekMalayalam-CondensedMedium.ufo
<glyph name="two" format="2">
  <advance width="597"/>
  <unicode hex="0032"/>
  <outline>
    <contour>
      <point x="548" y="0" type="line"/>
      <point x="548" y="160" type="line"/>
      <point x="143" y="160" type="line"/>
      <point x="220" y="130" type="line"/>
      <point x="220" y="168" type="line"/>
      <point x="367" y="448" type="line" smooth="yes"/>
      <point x="477" y="658"/>
      <point x="541" y="779"/>
      <point x="541" y="942" type="curve" smooth="yes"/>
      <point x="541" y="975" type="line" smooth="yes"/>
      <point x="541" y="1175"/>
      <point x="452" y="1296"/>
      <point x="262" y="1296" type="curve" smooth="yes"/>
      <point x="174" y="1296"/>
      <point x="103" y="1265"/>
      <point x="61" y="1234" type="curve"/>
      <point x="49" y="1067" type="line"/>
      <point x="97" y="1102"/>
      <point x="151" y="1132"/>
      <point x="222" y="1132" type="curve" smooth="yes"/>
      <point x="318" y="1132"/>
      <point x="362" y="1071"/>
      <point x="362" y="955" type="curve" smooth="yes"/>
      <point x="362" y="920" type="line" smooth="yes"/>
      <point x="362" y="812"/>
      <point x="328" y="718"/>
      <point x="232" y="536" type="curve" smooth="yes"/>
      <point x="42" y="176" type="line"/>
      <point x="42" y="0" type="line"/>
    </contour>
  </outline>
</glyph>
<glyph name="question" format="2">
  <advance width="522"/>
  <unicode hex="003F"/>
  <outline>
    <contour>
      <point x="216" y="396" type="line" smooth="yes"/>
      <point x="389" y="480"/>
      <point x="462" y="580"/>
      <point x="462" y="795" type="curve" smooth="yes"/>
      <point x="462" y="1003" type="line" smooth="yes"/>
      <point x="462" y="1190"/>
      <point x="391" y="1297"/>
      <point x="227" y="1297" type="curve" smooth="yes"/>
      <point x="152" y="1297"/>
      <point x="88" y="1273"/>
      <point x="46" y="1248" type="curve"/>
      <point x="28" y="1097" type="line"/>
      <point x="71" y="1123"/>
      <point x="114" y="1141"/>
      <point x="167" y="1141" type="curve" smooth="yes"/>
      <point x="256" y="1141"/>
      <point x="289" y="1086"/>
      <point x="289" y="975" type="curve" smooth="yes"/>
      <point x="289" y="792" type="line" smooth="yes"/>
      <point x="289" y="666"/>
      <point x="267" y="608"/>
      <point x="168" y="553" type="curve" smooth="yes"/>
      <point x="128" y="531" type="line"/>
      <point x="128" y="353" type="line"/>
    </contour>
    <contour>
      <point x="189" y="-18" type="curve" smooth="yes"/>
      <point x="252" y="-18"/>
      <point x="284" y="25"/>
      <point x="284" y="103" type="curve" smooth="yes"/>
      <point x="284" y="120" type="line" smooth="yes"/>
      <point x="284" y="197"/>
      <point x="252" y="240"/>
      <point x="189" y="240" type="curve" smooth="yes"/>
      <point x="123" y="240"/>
      <point x="94" y="197"/>
      <point x="94" y="120" type="curve" smooth="yes"/>
      <point x="94" y="103" type="line" smooth="yes"/>
      <point x="94" y="25"/>
      <point x="123" y="-18"/>
    </contour>
  </outline>
</glyph>
<glyph name="F" format="2">
  <advance width="606"/>
  <unicode hex="0046"/>
  <anchor x="303" y="0" name="bottom"/>
  <anchor x="303" y="1278" name="top"/>
  <outline>
    <contour>
      <point x="277" y="0" type="line"/>
      <point x="277" y="1278" type="line"/>
      <point x="98" y="1278" type="line"/>
      <point x="98" y="0" type="line"/>
    </contour>
    <contour>
      <point x="550" y="531" type="line"/>
      <point x="550" y="691" type="line"/>
      <point x="212" y="691" type="line"/>
      <point x="212" y="531" type="line"/>
    </contour>
    <contour>
      <point x="560" y="1118" type="line"/>
      <point x="560" y="1278" type="line"/>
      <point x="203" y="1278" type="line"/>
      <point x="203" y="1118" type="line"/>
    </contour>
  </outline>
</glyph>
<glyph name="S" format="2">
  <advance width="622"/>
  <unicode hex="0053"/>
  <anchor x="298" y="0" name="bottom"/>
  <anchor x="298" y="1278" name="top"/>
  <outline>
    <contour>
      <point x="270" y="-19" type="curve" smooth="yes"/>
      <point x="473" y="-19"/>
      <point x="567" y="101"/>
      <point x="567" y="308" type="curve" smooth="yes"/>
      <point x="567" y="357" type="line" smooth="yes"/>
      <point x="567" y="529"/>
      <point x="515" y="605"/>
      <point x="388" y="706" type="curve" smooth="yes"/>
      <point x="277" y="795"/>
      <point x="228" y="842"/>
      <point x="228" y="954" type="curve" smooth="yes"/>
      <point x="228" y="976" type="line" smooth="yes"/>
      <point x="228" y="1078"/>
      <point x="268" y="1132"/>
      <point x="363" y="1132" type="curve" smooth="yes"/>
      <point x="437" y="1132"/>
      <point x="493" y="1103"/>
      <point x="540" y="1067" type="curve"/>
      <point x="528" y="1237" type="line"/>
      <point x="482" y="1270"/>
      <point x="414" y="1297"/>
      <point x="322" y="1297" type="curve" smooth="yes"/>
      <point x="141" y="1297"/>
      <point x="50" y="1183"/>
      <point x="50" y="990" type="curve" smooth="yes"/>
      <point x="50" y="956" type="line" smooth="yes"/>
      <point x="50" y="787"/>
      <point x="119" y="701"/>
      <point x="249" y="596" type="curve" smooth="yes"/>
      <point x="344" y="519"/>
      <point x="389" y="474"/>
      <point x="389" y="362" type="curve" smooth="yes"/>
      <point x="389" y="317" type="line" smooth="yes"/>
      <point x="389" y="212"/>
      <point x="347" y="151"/>
      <point x="245" y="151" type="curve" smooth="yes"/>
      <point x="174" y="151"/>
      <point x="107" y="180"/>
      <point x="53" y="216" type="curve"/>
      <point x="65" y="38" type="line"/>
      <point x="109" y="8"/>
      <point x="182" y="-19"/>
    </contour>
  </outline>
</glyph>
<glyph name="underscore" format="2">
  <advance width="594"/>
  <unicode hex="005F"/>
  <outline>
    <contour>
      <point x="560" y="-195" type="line"/>
      <point x="560" y="-58" type="line"/>
      <point x="34" y="-58" type="line"/>
      <point x="34" y="-195" type="line"/>
    </contour>
  </outline>
</glyph>
<glyph name="sterling" format="2">
  <advance width="655"/>
  <unicode hex="00A3"/>
  <outline>
    <contour>
      <point x="548" y="598" type="line"/>
      <point x="557" y="738" type="line"/>
      <point x="59" y="738" type="line"/>
      <point x="50" y="598" type="line"/>
    </contour>
    <contour>
      <point x="213" y="166" type="line"/>
      <point x="302" y="218"/>
      <point x="354" y="295"/>
      <point x="354" y="496" type="curve" smooth="yes"/>
      <point x="354" y="624"/>
      <point x="313" y="826"/>
      <point x="313" y="966" type="curve" smooth="yes"/>
      <point x="313" y="1083"/>
      <point x="355" y="1138"/>
      <point x="449" y="1138" type="curve" smooth="yes"/>
      <point x="496" y="1138"/>
      <point x="541" y="1130"/>
      <point x="589" y="1111" type="curve"/>
      <point x="577" y="1265" type="line"/>
      <point x="534" y="1283"/>
      <point x="471" y="1297"/>
      <point x="406" y="1297" type="curve" smooth="yes"/>
      <point x="215" y="1297"/>
      <point x="134" y="1195"/>
      <point x="134" y="989" type="curve" smooth="yes"/>
      <point x="134" y="845"/>
      <point x="175" y="651"/>
      <point x="175" y="495" type="curve" smooth="yes"/>
      <point x="175" y="307"/>
      <point x="142" y="236"/>
      <point x="60" y="154" type="curve"/>
      <point x="60" y="154" type="line"/>
      <point x="60" y="0" type="line"/>
      <point x="610" y="0" type="line"/>
      <point x="610" y="160" type="line"/>
      <point x="213" y="160" type="line"/>
    </contour>
  </outline>
</glyph>
<glyph name="logicalnot" format="2">
  <advance width="688"/>
  <unicode hex="00AC"/>
  <outline>
    <contour>
      <point x="614" y="648" type="line"/>
      <point x="463" y="648" type="line"/>
      <point x="463" y="309" type="line"/>
      <point x="614" y="309" type="line"/>
    </contour>
    <contour>
      <point x="614" y="564" type="line"/>
      <point x="614" y="709" type="line"/>
      <point x="57" y="709" type="line"/>
      <point x="57" y="564" type="line"/>
    </contour>
  </outline>
</glyph>
<glyph name="vowelAa.mlm" format="2">
  <advance width="2418"/>
  <unicode hex="0D06"/>
  <outline>
    <contour>
      <point x="1950" y="776" type="line"/>
      <point x="2105" y="767"/>
      <point x="2175" y="673"/>
      <point x="2175" y="462" type="curve" smooth="yes"/>
      <point x="2175" y="244" type="line" smooth="yes"/>
      <point x="2175" y="-17"/>
      <point x="2084" y="-139"/>
      <point x="1834" y="-139" type="curve" smooth="yes"/>
      <point x="1739" y="-139"/>
      <point x="1659" y="-125"/>
      <point x="1584" y="-102" type="curve"/>
      <point x="1617" y="-245" type="line"/>
      <point x="1690" y="-267"/>
      <point x="1771" y="-280"/>
      <point x="1853" y="-280" type="curve" smooth="yes"/>
      <point x="2193" y="-280"/>
      <point x="2339" y="-114"/>
      <point x="2339" y="240" type="curve" smooth="yes"/>
      <point x="2339" y="462" type="line" smooth="yes"/>
      <point x="2339" y="740"/>
      <point x="2218" y="895"/>
      <point x="1961" y="909" type="curve"/>
    </contour>
    <contour>
      <point x="1582" y="1056" type="curve" smooth="yes"/>
      <point x="1717" y="1056"/>
      <point x="1801" y="999"/>
      <point x="1831" y="878" type="curve"/>
      <point x="1841" y="830" type="line"/>
      <point x="1842" y="801"/>
      <point x="1842" y="778"/>
      <point x="1842" y="747" type="curve" smooth="yes"/>
      <point x="1842" y="312" type="line" smooth="yes"/>
      <point x="1842" y="221"/>
      <point x="1815" y="176"/>
      <point x="1748" y="176" type="curve" smooth="yes"/>
      <point x="1686" y="176"/>
      <point x="1657" y="221"/>
      <point x="1657" y="312" type="curve" smooth="yes"/>
      <point x="1657" y="504" type="line" smooth="yes"/>
      <point x="1657" y="675"/>
      <point x="1724" y="767"/>
      <point x="1865" y="767" type="curve" smooth="yes"/>
      <point x="1877" y="767"/>
      <point x="1893" y="767"/>
      <point x="1905" y="767" type="curve"/>
      <point x="1902" y="905" type="line"/>
      <point x="1888" y="905"/>
      <point x="1871" y="905"/>
      <point x="1855" y="905" type="curve" smooth="yes"/>
      <point x="1617" y="905"/>
      <point x="1493" y="762"/>
      <point x="1493" y="501" type="curve" smooth="yes"/>
      <point x="1493" y="317" type="line" smooth="yes"/>
      <point x="1493" y="129"/>
      <point x="1577" y="30"/>
      <point x="1746" y="30" type="curve" smooth="yes"/>
      <point x="1919" y="30"/>
      <point x="2005" y="129"/>
      <point x="2005" y="317" type="curve" smooth="yes"/>
      <point x="2005" y="740" type="line" smooth="yes"/>
      <point x="2005" y="771"/>
      <point x="2003" y="800"/>
      <point x="2000" y="827" type="curve"/>
      <point x="1992" y="879" type="line" smooth="yes"/>
      <point x="1955" y="1097"/>
      <point x="1822" y="1208"/>
      <point x="1592" y="1208" type="curve" smooth="yes"/>
      <point x="1392" y="1208"/>
      <point x="1278" y="1126"/>
      <point x="1249" y="972" type="curve"/>
      <point x="1213" y="972" type="line"/>
      <point x="1218" y="633" type="line"/>
      <point x="1330" y="633" type="line"/>
      <point x="1330" y="788" type="line" smooth="yes"/>
      <point x="1330" y="969"/>
      <point x="1414" y="1056"/>
    </contour>
    <contour>
      <point x="1162" y="3" type="line"/>
      <point x="1330" y="3" type="line"/>
      <point x="1330" y="785" type="line"/>
      <point x="1162" y="726" type="line"/>
    </contour>
    <contour>
      <point x="1244" y="972" type="line"/>
      <point x="1214" y="1125"/>
      <point x="1110" y="1206"/>
      <point x="913" y="1206" type="curve" smooth="yes"/>
      <point x="815" y="1206"/>
      <point x="725" y="1171"/>
      <point x="673" y="1118" type="curve"/>
      <point x="783" y="1044" type="line"/>
      <point x="819" y="1060"/>
      <point x="865" y="1067"/>
      <point x="908" y="1067" type="curve" smooth="yes"/>
      <point x="1082" y="1067"/>
      <point x="1162" y="975"/>
      <point x="1162" y="778" type="curve" smooth="yes"/>
      <point x="1162" y="633" type="line"/>
      <point x="1240" y="633" type="line"/>
    </contour>
    <contour>
      <point x="256" y="732" type="line" smooth="yes"/>
      <point x="256" y="953.061"/>
      <point x="345.451" y="1067"/>
      <point x="519" y="1067" type="curve" smooth="yes"/>
      <point x="571" y="1067"/>
      <point x="610" y="1059"/>
      <point x="650" y="1043" type="curve"/>
      <point x="661" y="1040"/>
      <point x="698" y="1026"/>
      <point x="705" y="1023" type="curve"/>
      <point x="795" y="982"/>
      <point x="829" y="914"/>
      <point x="829" y="804" type="curve" smooth="yes"/>
      <point x="829" y="789" type="line" smooth="yes"/>
      <point x="829" y="695"/>
      <point x="796" y="652"/>
      <point x="724" y="646" type="curve" smooth="yes"/>
      <point x="699" y="644" type="line"/>
      <point x="699" y="499" type="line"/>
      <point x="731" y="496" type="line" smooth="yes"/>
      <point x="805" y="489"/>
      <point x="834" y="444"/>
      <point x="834" y="349" type="curve" smooth="yes"/>
      <point x="834" y="283" type="line" smooth="yes"/>
      <point x="834" y="180"/>
      <point x="801" y="129"/>
      <point x="723" y="129" type="curve" smooth="yes"/>
      <point x="644" y="129"/>
      <point x="609" y="180"/>
      <point x="609" y="283" type="curve" smooth="yes"/>
      <point x="609" y="722" type="line" smooth="yes"/>
      <point x="609" y="872"/>
      <point x="641" y="971"/>
      <point x="734" y="1023" type="curve"/>
      <point x="614" y="1081" type="line"/>
      <point x="488" y="1016"/>
      <point x="445" y="896"/>
      <point x="445" y="720" type="curve" smooth="yes"/>
      <point x="445" y="283" type="line" smooth="yes"/>
      <point x="445" y="86"/>
      <point x="537" y="-18"/>
      <point x="723" y="-18" type="curve" smooth="yes"/>
      <point x="907" y="-18"/>
      <point x="999" y="74"/>
      <point x="999" y="273" type="curve" smooth="yes"/>
      <point x="999" y="338" type="line" smooth="yes"/>
      <point x="999" y="481"/>
      <point x="951" y="556"/>
      <point x="843" y="571" type="curve"/>
      <point x="843" y="576" type="line"/>
      <point x="949" y="594"/>
      <point x="994" y="663"/>
      <point x="994" y="786" type="curve" smooth="yes"/>
      <point x="994" y="805" type="line" smooth="yes"/>
      <point x="994" y="931"/>
      <point x="944" y="1032"/>
      <point x="809" y="1084" type="curve"/>
      <point x="764" y="1125" type="line" smooth="yes"/>
      <point x="715.094" y="1169.54"/>
      <point x="629.09" y="1207"/>
      <point x="502" y="1207" type="curve" smooth="yes"/>
      <point x="227.782" y="1207"/>
      <point x="88" y="1045.95"/>
      <point x="88" y="730" type="curve" smooth="yes"/>
      <point x="88" y="395" type="line" smooth="yes"/>
      <point x="88" y="225"/>
      <point x="112" y="84"/>
      <point x="164" y="0" type="curve"/>
      <point x="335" y="0" type="line"/>
      <point x="285" y="85"/>
      <point x="256" y="221"/>
      <point x="256" y="393" type="curve" smooth="yes"/>
    </contour>
  </outline>
</glyph>
<glyph name="vowelI.mlm" format="2">
  <advance width="1367"/>
  <unicode hex="0D07"/>
  <outline>
    <contour>
      <point x="467" y="1208" type="curve" smooth="yes"/>
      <point x="210" y="1208"/>
      <point x="84" y="1062"/>
      <point x="84" y="776" type="curve" smooth="yes"/>
      <point x="84" y="460" type="line" smooth="yes"/>
      <point x="84" y="289"/>
      <point x="163" y="198"/>
      <point x="326" y="198" type="curve" smooth="yes"/>
      <point x="490" y="198"/>
      <point x="567" y="289"/>
      <point x="567" y="460" type="curve" smooth="yes"/>
      <point x="567" y="665" type="line" smooth="yes"/>
      <point x="567" y="821"/>
      <point x="510" y="894"/>
      <point x="399" y="894" type="curve" smooth="yes"/>
      <point x="301" y="894"/>
      <point x="251" y="839"/>
      <point x="232" y="735" type="curve"/>
      <point x="238" y="682" type="line"/>
      <point x="255" y="729"/>
      <point x="286" y="754"/>
      <point x="330" y="754" type="curve" smooth="yes"/>
      <point x="383" y="754"/>
      <point x="410" y="718"/>
      <point x="410" y="643" type="curve" smooth="yes"/>
      <point x="410" y="455" type="line" smooth="yes"/>
      <point x="410" y="374"/>
      <point x="383" y="334"/>
      <point x="325" y="334" type="curve" smooth="yes"/>
      <point x="267" y="334"/>
      <point x="240" y="374"/>
      <point x="240" y="455" type="curve" smooth="yes"/>
      <point x="240" y="718" type="line"/>
      <point x="253" y="779" type="line"/>
      <point x="237" y="779" type="line"/>
      <point x="237" y="781" type="line"/>
      <point x="237" y="969"/>
      <point x="313" y="1059"/>
      <point x="478" y="1059" type="curve" smooth="yes"/>
      <point x="630" y="1059"/>
      <point x="706" y="982"/>
      <point x="707" y="827" type="curve" smooth="yes"/>
      <point x="710" y="270" type="line"/>
      <point x="869" y="270" type="line"/>
      <point x="874" y="888" type="line" smooth="yes"/>
      <point x="875" y="999"/>
      <point x="910" y="1053"/>
      <point x="991" y="1053" type="curve" smooth="yes"/>
      <point x="1073" y="1053"/>
      <point x="1108" y="999"/>
      <point x="1108" y="887" type="curve" smooth="yes"/>
      <point x="1108" y="387" type="line" smooth="yes"/>
      <point x="1108" y="215"/>
      <point x="1046" y="133"/>
      <point x="914" y="133" type="curve" smooth="yes"/>
      <point x="316" y="133" type="line" smooth="yes"/>
      <point x="157" y="133"/>
      <point x="77" y="60"/>
      <point x="77" y="-85" type="curve" smooth="yes"/>
      <point x="77" y="-228"/>
      <point x="157" y="-302"/>
      <point x="316" y="-302" type="curve" smooth="yes"/>
      <point x="1249" y="-302" type="line"/>
      <point x="1268" y="-168" type="line"/>
      <point x="336" y="-168" type="line" smooth="yes"/>
      <point x="274" y="-168"/>
      <point x="244" y="-139"/>
      <point x="244" y="-84" type="curve" smooth="yes"/>
      <point x="244" y="-30"/>
      <point x="274" y="0"/>
      <point x="336" y="0" type="curve" smooth="yes"/>
      <point x="956" y="0" type="line" smooth="yes"/>
      <point x="1173" y="0"/>
      <point x="1275" y="129"/>
      <point x="1275" y="388" type="curve" smooth="yes"/>
      <point x="1275" y="886" type="line" smooth="yes"/>
      <point x="1275" y="1101"/>
      <point x="1193" y="1208"/>
      <point x="1018" y="1208" type="curve" smooth="yes"/>
      <point x="879" y="1208"/>
      <point x="802" y="1140"/>
      <point x="786" y="1001" type="curve"/>
      <point x="781" y="1001" type="line"/>
      <point x="753" y="1131"/>
      <point x="645" y="1208"/>
    </contour>
  </outline>
</glyph>
<glyph name="vowelU.mlm" format="2">
  <advance width="1011"/>
  <unicode hex="0D09"/>
  <outline>
    <contour>
      <point x="501" y="1208" type="curve" smooth="yes"/>
      <point x="219" y="1208"/>
      <point x="83" y="1054"/>
      <point x="83" y="756" type="curve" smooth="yes"/>
      <point x="83" y="464" type="line" smooth="yes"/>
      <point x="83" y="291"/>
      <point x="162" y="199"/>
      <point x="328" y="199" type="curve" smooth="yes"/>
      <point x="495" y="199"/>
      <point x="573" y="291"/>
      <point x="573" y="464" type="curve" smooth="yes"/>
      <point x="573" y="662" type="line" smooth="yes"/>
      <point x="573" y="819"/>
      <point x="516" y="894"/>
      <point x="401" y="894" type="curve" smooth="yes"/>
      <point x="301" y="894"/>
      <point x="250" y="838"/>
      <point x="231" y="734" type="curve"/>
      <point x="237" y="679" type="line"/>
      <point x="254" y="728"/>
      <point x="287" y="755"/>
      <point x="332" y="755" type="curve" smooth="yes"/>
      <point x="388" y="755"/>
      <point x="416" y="717"/>
      <point x="416" y="640" type="curve" smooth="yes"/>
      <point x="416" y="460" type="line" smooth="yes"/>
      <point x="416" y="376"/>
      <point x="389" y="335"/>
      <point x="328" y="335" type="curve" smooth="yes"/>
      <point x="267" y="335"/>
      <point x="239" y="376"/>
      <point x="239" y="460" type="curve" smooth="yes"/>
      <point x="239" y="717" type="line"/>
      <point x="250" y="779" type="line"/>
      <point x="236" y="779" type="line"/>
      <point x="236" y="780" type="line"/>
      <point x="236" y="967"/>
      <point x="316" y="1058"/>
      <point x="493" y="1058" type="curve" smooth="yes"/>
      <point x="674" y="1058"/>
      <point x="754" y="961"/>
      <point x="754" y="759" type="curve" smooth="yes"/>
      <point x="754" y="387" type="line" smooth="yes"/>
      <point x="754" y="214"/>
      <point x="693" y="133"/>
      <point x="557" y="133" type="curve" smooth="yes"/>
      <point x="316" y="133" type="line" smooth="yes"/>
      <point x="156" y="133"/>
      <point x="77" y="59"/>
      <point x="77" y="-85" type="curve" smooth="yes"/>
      <point x="77" y="-228"/>
      <point x="157" y="-302"/>
      <point x="316" y="-302" type="curve" smooth="yes"/>
      <point x="896" y="-302" type="line"/>
      <point x="916" y="-168" type="line"/>
      <point x="336" y="-168" type="line" smooth="yes"/>
      <point x="274" y="-168"/>
      <point x="244" y="-139"/>
      <point x="244" y="-85" type="curve" smooth="yes"/>
      <point x="244" y="-30"/>
      <point x="274" y="0"/>
      <point x="336" y="0" type="curve" smooth="yes"/>
      <point x="598" y="0" type="line" smooth="yes"/>
      <point x="818" y="0"/>
      <point x="921" y="129"/>
      <point x="921" y="388" type="curve" smooth="yes"/>
      <point x="921" y="756" type="line" smooth="yes"/>
      <point x="921" y="1054"/>
      <point x="786" y="1208"/>
    </contour>
  </outline>
</glyph>
<glyph name="vowelLru.mlm" format="2">
  <advance width="1695"/>
  <unicode hex="0D0C"/>
  <outline>
    <contour>
      <point x="502" y="1208" type="curve" smooth="yes"/>
      <point x="222" y="1208"/>
      <point x="86" y="1045"/>
      <point x="86" y="730" type="curve" smooth="yes"/>
      <point x="86" y="276" type="line" smooth="yes"/>
      <point x="86" y="82"/>
      <point x="172" y="-18"/>
      <point x="344" y="-18" type="curve" smooth="yes"/>
      <point x="516" y="-18"/>
      <point x="601" y="82"/>
      <point x="601" y="276" type="curve" smooth="yes"/>
      <point x="601" y="559" type="line" smooth="yes"/>
      <point x="601" y="730"/>
      <point x="541" y="813"/>
      <point x="421" y="813" type="curve" smooth="yes"/>
      <point x="318" y="813"/>
      <point x="260" y="748"/>
      <point x="243" y="633" type="curve"/>
      <point x="248" y="576" type="line"/>
      <point x="267" y="634"/>
      <point x="299" y="663"/>
      <point x="349" y="663" type="curve" smooth="yes"/>
      <point x="409" y="663"/>
      <point x="437" y="622"/>
      <point x="437" y="535" type="curve" smooth="yes"/>
      <point x="437" y="271" type="line" smooth="yes"/>
      <point x="437" y="174"/>
      <point x="409" y="129"/>
      <point x="344" y="129" type="curve" smooth="yes"/>
      <point x="280" y="129"/>
      <point x="249" y="174"/>
      <point x="249" y="271" type="curve" smooth="yes"/>
      <point x="249" y="597" type="line"/>
      <point x="260" y="681" type="line"/>
      <point x="247" y="681" type="line"/>
      <point x="247" y="726" type="line" smooth="yes"/>
      <point x="247" y="951"/>
      <point x="331" y="1056"/>
      <point x="512" y="1056" type="curve" smooth="yes"/>
      <point x="682" y="1056"/>
      <point x="764" y="972"/>
      <point x="764" y="797" type="curve" smooth="yes"/>
      <point x="764" y="635" type="line"/>
      <point x="843" y="635" type="line"/>
      <point x="846" y="972" type="line"/>
      <point x="817" y="1127"/>
      <point x="701" y="1208"/>
    </contour>
    <contour>
      <point x="764" y="3" type="line"/>
      <point x="932" y="3" type="line"/>
      <point x="932" y="771" type="line"/>
      <point x="764" y="738" type="line"/>
    </contour>
    <contour>
      <point x="1197" y="1208" type="curve" smooth="yes"/>
      <point x="994" y="1208"/>
      <point x="880" y="1126"/>
      <point x="851" y="972" type="curve"/>
      <point x="815" y="972" type="line"/>
      <point x="820" y="633" type="line"/>
      <point x="932" y="633" type="line"/>
      <point x="932" y="788" type="line" smooth="yes"/>
      <point x="932" y="969"/>
      <point x="1016" y="1056"/>
      <point x="1187" y="1056" type="curve" smooth="yes"/>
      <point x="1367" y="1056"/>
      <point x="1450" y="954"/>
      <point x="1450" y="732" type="curve" smooth="yes"/>
      <point x="1450" y="715" type="line"/>
      <point x="1425" y="715" type="line"/>
      <point x="1447" y="653" type="line"/>
      <point x="1447" y="271" type="line" smooth="yes"/>
      <point x="1447" y="174"/>
      <point x="1418" y="129"/>
      <point x="1353" y="129" type="curve" smooth="yes"/>
      <point x="1290" y="129"/>
      <point x="1260" y="174"/>
      <point x="1260" y="271" type="curve" smooth="yes"/>
      <point x="1260" y="546" type="line" smooth="yes"/>
      <point x="1260" y="633"/>
      <point x="1290" y="674"/>
      <point x="1355" y="674" type="curve" smooth="yes"/>
      <point x="1400" y="674"/>
      <point x="1431" y="656"/>
      <point x="1449" y="622" type="curve"/>
      <point x="1453" y="678" type="line"/>
      <point x="1437" y="771"/>
      <point x="1379" y="824"/>
      <point x="1283" y="824" type="curve" smooth="yes"/>
      <point x="1157" y="824"/>
      <point x="1096" y="738"/>
      <point x="1096" y="561" type="curve" smooth="yes"/>
      <point x="1096" y="276" type="line" smooth="yes"/>
      <point x="1096" y="82"/>
      <point x="1180" y="-18"/>
      <point x="1353" y="-18" type="curve" smooth="yes"/>
      <point x="1525" y="-18"/>
      <point x="1610" y="82"/>
      <point x="1610" y="276" type="curve" smooth="yes"/>
      <point x="1610" y="728" type="line" smooth="yes"/>
      <point x="1610" y="1048"/>
      <point x="1478" y="1208"/>
    </contour>
  </outline>
</glyph>
<glyph name="vowelshortE.mlm" format="2">
  <advance width="1827"/>
  <unicode hex="0D0E"/>
  <outline>
    <contour>
      <point x="354" y="799" type="curve" smooth="yes"/>
      <point x="167" y="799"/>
      <point x="77" y="690"/>
      <point x="77" y="482" type="curve" smooth="yes"/>
      <point x="77" y="283" type="line" smooth="yes"/>
      <point x="77" y="160"/>
      <point x="91" y="65"/>
      <point x="119" y="0" type="curve"/>
      <point x="285" y="0" type="line"/>
      <point x="259" y="63"/>
      <point x="243" y="157"/>
      <point x="243" y="281" type="curve" smooth="yes"/>
      <point x="243" y="483" type="line" smooth="yes"/>
      <point x="243" y="591"/>
      <point x="278" y="647"/>
      <point x="353" y="647" type="curve" smooth="yes"/>
      <point x="429" y="647"/>
      <point x="465" y="591"/>
      <point x="465" y="483" type="curve" smooth="yes"/>
      <point x="465" y="281" type="line" smooth="yes"/>
      <point x="465" y="163"/>
      <point x="448" y="72"/>
      <point x="417" y="10" type="curve"/>
      <point x="417" y="0" type="line"/>
      <point x="547" y="0" type="line"/>
      <point x="604" y="67"/>
      <point x="631" y="165"/>
      <point x="631" y="290" type="curve" smooth="yes"/>
      <point x="631" y="482" type="line" smooth="yes"/>
      <point x="631" y="690"/>
      <point x="541" y="799"/>
    </contour>
    <contour>
      <point x="563" y="134" type="line"/>
      <point x="420" y="0" type="line"/>
      <point x="896" y="0" type="line"/>
      <point x="928" y="2" type="line"/>
      <point x="1235" y="2" type="line"/>
      <point x="1235" y="134" type="line"/>
    </contour>
    <contour>
      <point x="1276" y="1208" type="curve" smooth="yes"/>
      <point x="965" y="1208"/>
      <point x="814" y="1030"/>
      <point x="814" y="685" type="curve" smooth="yes"/>
      <point x="814" y="-37" type="line" smooth="yes"/>
      <point x="814" y="-237"/>
      <point x="907" y="-339"/>
      <point x="1088" y="-339" type="curve" smooth="yes"/>
      <point x="1271" y="-339"/>
      <point x="1358" y="-235"/>
      <point x="1358" y="-37" type="curve" smooth="yes"/>
      <point x="1358" y="954" type="line"/>
      <point x="1197" y="954" type="line"/>
      <point x="1189" y="104" type="line"/>
      <point x="1194" y="55" type="line"/>
      <point x="1194" y="-55" type="line" smooth="yes"/>
      <point x="1194" y="-157"/>
      <point x="1162" y="-206"/>
      <point x="1088" y="-206" type="curve" smooth="yes"/>
      <point x="1015" y="-206"/>
      <point x="978" y="-157"/>
      <point x="978" y="-55" type="curve" smooth="yes"/>
      <point x="978" y="15" type="line"/>
      <point x="981" y="42" type="line"/>
      <point x="981" y="54"/>
      <point x="981" y="73"/>
      <point x="981" y="84" type="curve" smooth="yes"/>
      <point x="981" y="685" type="line" smooth="yes"/>
      <point x="981" y="937"/>
      <point x="1075" y="1056"/>
      <point x="1276" y="1056" type="curve" smooth="yes"/>
      <point x="1479" y="1056"/>
      <point x="1570" y="937"/>
      <point x="1570" y="685" type="curve" smooth="yes"/>
      <point x="1570" y="148" type="line" smooth="yes"/>
      <point x="1570" y="-48"/>
      <point x="1534" y="-201"/>
      <point x="1469" y="-297" type="curve"/>
      <point x="1640" y="-297" type="line"/>
      <point x="1710" y="-202"/>
      <point x="1738" y="-45"/>
      <point x="1738" y="149" type="curve" smooth="yes"/>
      <point x="1738" y="685" type="line" smooth="yes"/>
      <point x="1738" y="1030"/>
      <point x="1587" y="1208"/>
    </contour>
  </outline>
</glyph>
<glyph name="vowelshortO.mlm" format="2">
  <advance width="1074"/>
  <unicode hex="0D12"/>
  <outline>
    <contour>
      <point x="746" y="-14" type="curve" smooth="yes"/>
      <point x="921" y="-14"/>
      <point x="1005" y="80"/>
      <point x="1005" y="268" type="curve" smooth="yes"/>
      <point x="1005" y="318" type="line" smooth="yes"/>
      <point x="1005" y="469"/>
      <point x="950" y="549"/>
      <point x="825" y="566" type="curve"/>
      <point x="825" y="570" type="line"/>
      <point x="939" y="592"/>
      <point x="988" y="672"/>
      <point x="988" y="813" type="curve" smooth="yes"/>
      <point x="988" y="834" type="line" smooth="yes"/>
      <point x="988" y="1080"/>
      <point x="841" y="1208"/>
      <point x="558" y="1208" type="curve" smooth="yes"/>
      <point x="244.463" y="1208"/>
      <point x="86" y="1037.26"/>
      <point x="86" y="708" type="curve" smooth="yes"/>
      <point x="86" y="276" type="line" smooth="yes"/>
      <point x="86" y="83"/>
      <point x="171" y="-18"/>
      <point x="343" y="-18" type="curve" smooth="yes"/>
      <point x="514" y="-18"/>
      <point x="599" y="83"/>
      <point x="599" y="276" type="curve" smooth="yes"/>
      <point x="599" y="557" type="line" smooth="yes"/>
      <point x="599" y="730"/>
      <point x="540" y="813"/>
      <point x="420" y="813" type="curve" smooth="yes"/>
      <point x="317" y="813"/>
      <point x="259" y="748"/>
      <point x="242" y="633" type="curve"/>
      <point x="247" y="576" type="line"/>
      <point x="267" y="634"/>
      <point x="299" y="663"/>
      <point x="348" y="663" type="curve" smooth="yes"/>
      <point x="408" y="663"/>
      <point x="435" y="622"/>
      <point x="435" y="533" type="curve" smooth="yes"/>
      <point x="435" y="270" type="line" smooth="yes"/>
      <point x="435" y="174"/>
      <point x="406" y="129"/>
      <point x="341" y="129" type="curve" smooth="yes"/>
      <point x="277" y="129"/>
      <point x="249" y="174"/>
      <point x="249" y="270" type="curve" smooth="yes"/>
      <point x="249" y="593" type="line"/>
      <point x="268" y="681" type="line"/>
      <point x="246" y="681" type="line"/>
      <point x="246" y="708" type="line" smooth="yes"/>
      <point x="246" y="937.91"/>
      <point x="347.66" y="1056"/>
      <point x="555" y="1056" type="curve" smooth="yes"/>
      <point x="732.59" y="1056"/>
      <point x="820" y="973.732"/>
      <point x="820" y="815" type="curve" smooth="yes"/>
      <point x="820" y="792" type="line" smooth="yes"/>
      <point x="820" y="691"/>
      <point x="782" y="650"/>
      <point x="701" y="641" type="curve" smooth="yes"/>
      <point x="675" y="638" type="line"/>
      <point x="675" y="493" type="line"/>
      <point x="709" y="490" type="line" smooth="yes"/>
      <point x="801" y="482"/>
      <point x="837" y="435"/>
      <point x="837" y="334" type="curve" smooth="yes"/>
      <point x="837" y="288" type="line" smooth="yes"/>
      <point x="837" y="181"/>
      <point x="799" y="129"/>
      <point x="711" y="129" type="curve" smooth="yes"/>
      <point x="690" y="129"/>
      <point x="669" y="132"/>
      <point x="651" y="135" type="curve"/>
      <point x="671" y="-6" type="line"/>
      <point x="696" y="-12"/>
      <point x="720" y="-14"/>
    </contour>
  </outline>
</glyph>
<glyph name="Kha.mlm" format="2">
  <advance width="1427"/>
  <unicode hex="0D16"/>
  <outline>
    <contour>
      <point x="1158" y="1182" type="line"/>
      <point x="1158" y="0" type="line"/>
      <point x="1326" y="0" type="line"/>
      <point x="1326" y="1182" type="line"/>
    </contour>
    <contour>
      <point x="851" y="136" type="line"/>
      <point x="709" y="0" type="line"/>
      <point x="1302" y="0" type="line"/>
      <point x="1302" y="136" type="line"/>
    </contour>
    <contour>
      <point x="520" y="1208" type="curve" smooth="yes"/>
      <point x="226" y="1208"/>
      <point x="86" y="1039"/>
      <point x="86" y="711" type="curve" smooth="yes"/>
      <point x="86" y="276" type="line" smooth="yes"/>
      <point x="86" y="82"/>
      <point x="171" y="-18"/>
      <point x="344" y="-18" type="curve" smooth="yes"/>
      <point x="516" y="-18"/>
      <point x="601" y="82"/>
      <point x="601" y="276" type="curve" smooth="yes"/>
      <point x="601" y="559" type="line" smooth="yes"/>
      <point x="601" y="730"/>
      <point x="540" y="813"/>
      <point x="421" y="813" type="curve" smooth="yes"/>
      <point x="318" y="813"/>
      <point x="259" y="748"/>
      <point x="242" y="633" type="curve"/>
      <point x="247" y="576" type="line"/>
      <point x="267" y="634"/>
      <point x="299" y="663"/>
      <point x="349" y="663" type="curve" smooth="yes"/>
      <point x="409" y="663"/>
      <point x="437" y="622"/>
      <point x="437" y="535" type="curve" smooth="yes"/>
      <point x="437" y="271" type="line" smooth="yes"/>
      <point x="437" y="174"/>
      <point x="408" y="129"/>
      <point x="344" y="129" type="curve" smooth="yes"/>
      <point x="280" y="129"/>
      <point x="249" y="174"/>
      <point x="249" y="271" type="curve" smooth="yes"/>
      <point x="249" y="597" type="line"/>
      <point x="262" y="681" type="line"/>
      <point x="246" y="681" type="line"/>
      <point x="246" y="708" type="line" smooth="yes"/>
      <point x="246" y="944"/>
      <point x="330" y="1056"/>
      <point x="515" y="1056" type="curve" smooth="yes"/>
      <point x="703" y="1056"/>
      <point x="788" y="945"/>
      <point x="788" y="711" type="curve" smooth="yes"/>
      <point x="788" y="398" type="line" smooth="yes"/>
      <point x="788" y="237"/>
      <point x="761" y="101"/>
      <point x="709" y="10" type="curve"/>
      <point x="709" y="0" type="line"/>
      <point x="852" y="0" type="line"/>
      <point x="914" y="89"/>
      <point x="956" y="213"/>
      <point x="956" y="402" type="curve" smooth="yes"/>
      <point x="956" y="711" type="line" smooth="yes"/>
      <point x="956" y="1039"/>
      <point x="814" y="1208"/>
    </contour>
  </outline>
</glyph>
<glyph name="Nga.mlm" format="2">
  <advance width="1488"/>
  <unicode hex="0D19"/>
  <outline>
    <contour>
      <point x="764" y="3" type="line"/>
      <point x="932" y="3" type="line"/>
      <point x="932" y="785" type="line"/>
      <point x="764" y="733" type="line"/>
    </contour>
    <contour>
      <point x="501" y="1208" type="curve" smooth="yes"/>
      <point x="221" y="1208"/>
      <point x="86" y="1045"/>
      <point x="86" y="730" type="curve" smooth="yes"/>
      <point x="86" y="276" type="line" smooth="yes"/>
      <point x="86" y="82"/>
      <point x="172" y="-18"/>
      <point x="344" y="-18" type="curve" smooth="yes"/>
      <point x="516" y="-18"/>
      <point x="601" y="82"/>
      <point x="601" y="276" type="curve" smooth="yes"/>
      <point x="601" y="559" type="line" smooth="yes"/>
      <point x="601" y="730"/>
      <point x="541" y="813"/>
      <point x="421" y="813" type="curve" smooth="yes"/>
      <point x="318" y="813"/>
      <point x="260" y="748"/>
      <point x="243" y="633" type="curve"/>
      <point x="248" y="576" type="line"/>
      <point x="267" y="634"/>
      <point x="299" y="663"/>
      <point x="349" y="663" type="curve" smooth="yes"/>
      <point x="409" y="663"/>
      <point x="437" y="622"/>
      <point x="437" y="535" type="curve" smooth="yes"/>
      <point x="437" y="271" type="line" smooth="yes"/>
      <point x="437" y="174"/>
      <point x="409" y="129"/>
      <point x="344" y="129" type="curve" smooth="yes"/>
      <point x="280" y="129"/>
      <point x="249" y="174"/>
      <point x="249" y="271" type="curve" smooth="yes"/>
      <point x="249" y="597" type="line"/>
      <point x="260" y="681" type="line"/>
      <point x="247" y="681" type="line"/>
      <point x="247" y="726" type="line" smooth="yes"/>
      <point x="247" y="951"/>
      <point x="331" y="1056"/>
      <point x="512" y="1056" type="curve" smooth="yes"/>
      <point x="682" y="1056"/>
      <point x="764" y="973"/>
      <point x="764" y="797" type="curve" smooth="yes"/>
      <point x="764" y="635" type="line"/>
      <point x="841" y="635" type="line"/>
      <point x="841" y="989" type="line"/>
      <point x="809" y="1130"/>
      <point x="697" y="1208"/>
    </contour>
    <contour>
      <point x="1111" y="1208" type="curve" smooth="yes"/>
      <point x="961" y="1208"/>
      <point x="862" y="1144"/>
      <point x="846" y="989" type="curve"/>
      <point x="788" y="989" type="line"/>
      <point x="788" y="675" type="line"/>
      <point x="932" y="671" type="line"/>
      <point x="932" y="858" type="line" smooth="yes"/>
      <point x="932" y="991"/>
      <point x="979" y="1056"/>
      <point x="1084" y="1056" type="curve" smooth="yes"/>
      <point x="1188" y="1056"/>
      <point x="1236" y="991"/>
      <point x="1236" y="866" type="curve" smooth="yes"/>
      <point x="1236" y="826" type="line" smooth="yes"/>
      <point x="1236" y="724"/>
      <point x="1196" y="679"/>
      <point x="1106" y="674" type="curve" smooth="yes"/>
      <point x="1067" y="672" type="line"/>
      <point x="1067" y="527" type="line"/>
      <point x="1113" y="525" type="line" smooth="yes"/>
      <point x="1208" y="521"/>
      <point x="1247" y="472"/>
      <point x="1247" y="369" type="curve" smooth="yes"/>
      <point x="1247" y="291" type="line" smooth="yes"/>
      <point x="1247" y="184"/>
      <point x="1207" y="134"/>
      <point x="1112" y="134" type="curve" smooth="yes"/>
      <point x="1090" y="134"/>
      <point x="1068" y="137"/>
      <point x="1049" y="140" type="curve"/>
      <point x="1068" y="-1" type="line"/>
      <point x="1098" y="-6"/>
      <point x="1128" y="-10"/>
      <point x="1159" y="-10" type="curve" smooth="yes"/>
      <point x="1332" y="-10"/>
      <point x="1415" y="84"/>
      <point x="1415" y="275" type="curve" smooth="yes"/>
      <point x="1415" y="348" type="line" smooth="yes"/>
      <point x="1415" y="504"/>
      <point x="1357" y="585"/>
      <point x="1232" y="601" type="curve"/>
      <point x="1232" y="605" type="line"/>
      <point x="1351" y="624"/>
      <point x="1404" y="704"/>
      <point x="1404" y="841" type="curve" smooth="yes"/>
      <point x="1404" y="877" type="line" smooth="yes"/>
      <point x="1404" y="1093"/>
      <point x="1305" y="1208"/>
    </contour>
  </outline>
</glyph>
<glyph name="Ca.mlm" format="2">
  <advance width="1133"/>
  <unicode hex="0D1A"/>
  <outline>
    <contour>
      <point x="20" y="137" type="line"/>
      <point x="36" y="0" type="line"/>
      <point x="996" y="0" type="line"/>
      <point x="1005" y="137" type="line"/>
    </contour>
    <contour>
      <point x="370" y="132" type="curve"/>
      <point x="539" y="113" type="line"/>
      <point x="639" y="193"/>
      <point x="677" y="331"/>
      <point x="677" y="506" type="curve" smooth="yes"/>
      <point x="677" y="567" type="line" smooth="yes"/>
      <point x="677" y="769"/>
      <point x="588" y="873"/>
      <point x="408" y="873" type="curve" smooth="yes"/>
      <point x="228" y="873"/>
      <point x="143" y="771"/>
      <point x="143" y="577" type="curve" smooth="yes"/>
      <point x="143" y="522" type="line" smooth="yes"/>
      <point x="143" y="427"/>
      <point x="161" y="356"/>
      <point x="184" y="311" type="curve"/>
      <point x="342" y="311" type="line"/>
      <point x="322" y="359"/>
      <point x="306" y="426"/>
      <point x="306" y="516" type="curve" smooth="yes"/>
      <point x="306" y="568" type="line" smooth="yes"/>
      <point x="306" y="673"/>
      <point x="337" y="723"/>
      <point x="408" y="723" type="curve" smooth="yes"/>
      <point x="476" y="723"/>
      <point x="509" y="672"/>
      <point x="509" y="567" type="curve" smooth="yes"/>
      <point x="509" y="503" type="line" smooth="yes"/>
      <point x="509" y="332"/>
      <point x="466" y="207"/>
    </contour>
    <contour>
      <point x="864" y="1182" type="line"/>
      <point x="864" y="0" type="line"/>
      <point x="1032" y="0" type="line"/>
      <point x="1032" y="1182" type="line"/>
    </contour>
  </outline>
</glyph>
<glyph name="Ttha.mlm" format="2">
  <advance width="806"/>
  <unicode hex="0D20"/>
  <outline>
    <contour>
      <point x="403" y="132" type="curve" smooth="yes"/>
      <point x="298" y="132"/>
      <point x="253" y="200"/>
      <point x="253" y="343" type="curve" smooth="yes"/>
      <point x="253" y="841" type="line" smooth="yes"/>
      <point x="253" y="986"/>
      <point x="298" y="1054"/>
      <point x="403" y="1054" type="curve" smooth="yes"/>
      <point x="508" y="1054"/>
      <point x="553" y="986"/>
      <point x="553" y="841" type="curve" smooth="yes"/>
      <point x="553" y="343" type="line" smooth="yes"/>
      <point x="553" y="200"/>
      <point x="508" y="132"/>
    </contour>
    <contour>
      <point x="403" y="-23" type="curve" smooth="yes"/>
      <point x="618" y="-23"/>
      <point x="721" y="101"/>
      <point x="721" y="344" type="curve" smooth="yes"/>
      <point x="721" y="839" type="line" smooth="yes"/>
      <point x="721" y="1084"/>
      <point x="618" y="1208"/>
      <point x="403" y="1208" type="curve" smooth="yes"/>
      <point x="188" y="1208"/>
      <point x="85" y="1084"/>
      <point x="85" y="839" type="curve" smooth="yes"/>
      <point x="85" y="344" type="line" smooth="yes"/>
      <point x="85" y="101"/>
      <point x="188" y="-23"/>
    </contour>
  </outline>
</glyph>
<glyph name="Ddha.mlm" format="2">
  <advance width="1809"/>
  <unicode hex="0D22"/>
  <outline>
    <contour>
      <point x="1047" y="446" type="line"/>
      <point x="1047" y="1176" type="line"/>
      <point x="879" y="1176" type="line"/>
      <point x="879" y="414" type="line"/>
    </contour>
    <contour>
      <point x="733" y="-20" type="curve" smooth="yes"/>
      <point x="871" y="-20"/>
      <point x="954" y="51"/>
      <point x="968" y="184" type="curve"/>
      <point x="1023" y="184" type="line"/>
      <point x="1026" y="499" type="line"/>
      <point x="879" y="537" type="line"/>
      <point x="879" y="323" type="line" smooth="yes"/>
      <point x="879" y="199"/>
      <point x="842" y="141"/>
      <point x="760" y="141" type="curve" smooth="yes"/>
      <point x="680" y="141"/>
      <point x="643" y="192"/>
      <point x="643" y="305" type="curve" smooth="yes"/>
      <point x="643" y="485"/>
      <point x="667" y="698"/>
      <point x="667" y="878" type="curve" smooth="yes"/>
      <point x="667" y="1099"/>
      <point x="573" y="1208"/>
      <point x="380" y="1208" type="curve" smooth="yes"/>
      <point x="185" y="1208"/>
      <point x="89" y="1099"/>
      <point x="89" y="878" type="curve" smooth="yes"/>
      <point x="89" y="395" type="line" smooth="yes"/>
      <point x="89" y="225"/>
      <point x="112" y="84"/>
      <point x="162" y="0" type="curve"/>
      <point x="332" y="0" type="line"/>
      <point x="284" y="85"/>
      <point x="257" y="221"/>
      <point x="257" y="393" type="curve" smooth="yes"/>
      <point x="257" y="880" type="line" smooth="yes"/>
      <point x="257" y="1000"/>
      <point x="296" y="1054"/>
      <point x="379" y="1054" type="curve" smooth="yes"/>
      <point x="463" y="1054"/>
      <point x="499" y="1000"/>
      <point x="499" y="880" type="curve" smooth="yes"/>
      <point x="499" y="699"/>
      <point x="475" y="483"/>
      <point x="475" y="301" type="curve" smooth="yes"/>
      <point x="475" y="88"/>
      <point x="560" y="-20"/>
    </contour>
    <contour>
      <point x="1312" y="-20" type="curve" smooth="yes"/>
      <point x="1589" y="-20"/>
      <point x="1721" y="139"/>
      <point x="1721" y="447" type="curve" smooth="yes"/>
      <point x="1721" y="914" type="line" smooth="yes"/>
      <point x="1721" y="1109"/>
      <point x="1635" y="1208"/>
      <point x="1462" y="1208" type="curve" smooth="yes"/>
      <point x="1291" y="1208"/>
      <point x="1206" y="1109"/>
      <point x="1206" y="914" type="curve" smooth="yes"/>
      <point x="1206" y="624" type="line" smooth="yes"/>
      <point x="1206" y="455"/>
      <point x="1268" y="371"/>
      <point x="1386" y="371" type="curve" smooth="yes"/>
      <point x="1490" y="371"/>
      <point x="1549" y="439"/>
      <point x="1565" y="557" type="curve"/>
      <point x="1560" y="608" type="line"/>
      <point x="1541" y="550"/>
      <point x="1508" y="521"/>
      <point x="1457" y="521" type="curve" smooth="yes"/>
      <point x="1398" y="521"/>
      <point x="1370" y="562"/>
      <point x="1370" y="648" type="curve" smooth="yes"/>
      <point x="1370" y="920" type="line" smooth="yes"/>
      <point x="1370" y="1016"/>
      <point x="1399" y="1061"/>
      <point x="1463" y="1061" type="curve" smooth="yes"/>
      <point x="1528" y="1061"/>
      <point x="1558" y="1016"/>
      <point x="1558" y="920" type="curve" smooth="yes"/>
      <point x="1558" y="594" type="line"/>
      <point x="1545" y="509" type="line"/>
      <point x="1561" y="509" type="line"/>
      <point x="1561" y="449" type="line" smooth="yes"/>
      <point x="1561" y="234"/>
      <point x="1481" y="134"/>
      <point x="1304" y="134" type="curve" smooth="yes"/>
      <point x="1131" y="134"/>
      <point x="1047" y="217"/>
      <point x="1047" y="392" type="curve" smooth="yes"/>
      <point x="1047" y="554" type="line"/>
      <point x="967" y="554" type="line"/>
      <point x="973" y="184" type="line"/>
      <point x="1007" y="52"/>
      <point x="1116" y="-20"/>
    </contour>
  </outline>
</glyph>
<glyph name="Tha.mlm" format="2">
  <advance width="1164"/>
  <unicode hex="0D25"/>
  <outline>
    <contour>
      <point x="269" y="0" type="line"/>
      <point x="269" y="1182" type="line"/>
      <point x="101" y="1182" type="line"/>
      <point x="101" y="0" type="line"/>
    </contour>
    <contour>
      <point x="220" y="136" type="line"/>
      <point x="220" y="0" type="line"/>
      <point x="590" y="0" type="line"/>
      <point x="590" y="136" type="line"/>
    </contour>
    <contour>
      <point x="585" y="136" type="line"/>
      <point x="525" y="0" type="line"/>
      <point x="1067" y="0" type="line"/>
      <point x="1067" y="875" type="line" smooth="yes"/>
      <point x="1067" y="1097"/>
      <point x="975" y="1208"/>
      <point x="779" y="1208" type="curve" smooth="yes"/>
      <point x="584" y="1208"/>
      <point x="488" y="1096"/>
      <point x="488" y="875" type="curve" smooth="yes"/>
      <point x="488" y="0" type="line"/>
      <point x="656" y="0" type="line"/>
      <point x="656" y="877" type="line" smooth="yes"/>
      <point x="656" y="995"/>
      <point x="694" y="1054"/>
      <point x="778" y="1054" type="curve" smooth="yes"/>
      <point x="863" y="1054"/>
      <point x="899" y="995"/>
      <point x="899" y="877" type="curve" smooth="yes"/>
      <point x="899" y="136" type="line"/>
    </contour>
  </outline>
</glyph>
<glyph name="Dha.mlm" format="2">
  <advance width="1178"/>
  <unicode hex="0D27"/>
  <outline>
    <contour>
      <point x="673" y="413" type="line"/>
      <point x="673" y="1176" type="line"/>
      <point x="505" y="1176" type="line"/>
      <point x="505" y="413" type="line"/>
    </contour>
    <contour>
      <point x="505" y="535" type="line"/>
      <point x="505" y="322" type="line" smooth="yes"/>
      <point x="505" y="198"/>
      <point x="467" y="141"/>
      <point x="381" y="141" type="curve" smooth="yes"/>
      <point x="294" y="141"/>
      <point x="257" y="198"/>
      <point x="257" y="322" type="curve" smooth="yes"/>
      <point x="257" y="785" type="line" smooth="yes"/>
      <point x="257" y="958"/>
      <point x="287" y="1096"/>
      <point x="336" y="1180" type="curve"/>
      <point x="168" y="1180" type="line"/>
      <point x="114" y="1090"/>
      <point x="89" y="955"/>
      <point x="89" y="783" type="curve" smooth="yes"/>
      <point x="89" y="323" type="line" smooth="yes"/>
      <point x="89" y="92"/>
      <point x="170" y="-20"/>
      <point x="352" y="-20" type="curve" smooth="yes"/>
      <point x="489" y="-20"/>
      <point x="572" y="48"/>
      <point x="587" y="177" type="curve"/>
      <point x="645" y="177" type="line"/>
      <point x="652" y="497" type="line"/>
    </contour>
    <contour>
      <point x="591" y="177" type="line"/>
      <point x="607" y="48"/>
      <point x="688" y="-20"/>
      <point x="825" y="-20" type="curve" smooth="yes"/>
      <point x="1008" y="-20"/>
      <point x="1089" y="92"/>
      <point x="1089" y="323" type="curve" smooth="yes"/>
      <point x="1089" y="783" type="line" smooth="yes"/>
      <point x="1089" y="955"/>
      <point x="1062" y="1090"/>
      <point x="1010" y="1180" type="curve"/>
      <point x="842" y="1180" type="line"/>
      <point x="892" y="1096"/>
      <point x="921" y="958"/>
      <point x="921" y="785" type="curve" smooth="yes"/>
      <point x="921" y="322" type="line" smooth="yes"/>
      <point x="921" y="198"/>
      <point x="886" y="141"/>
      <point x="797" y="141" type="curve" smooth="yes"/>
      <point x="712" y="141"/>
      <point x="673" y="198"/>
      <point x="673" y="322" type="curve" smooth="yes"/>
      <point x="673" y="535" type="line"/>
      <point x="583" y="535" type="line"/>
    </contour>
  </outline>
</glyph>
<glyph name="Na.mlm" format="2">
  <advance width="1192"/>
  <unicode hex="0D28"/>
  <outline>
    <contour>
      <point x="512" y="771" type="line"/>
      <point x="512" y="3" type="line"/>
      <point x="680" y="3" type="line"/>
      <point x="680" y="771" type="line"/>
    </contour>
    <contour>
      <point x="89" y="862" type="curve" smooth="yes"/>
      <point x="89" y="395" type="line" smooth="yes"/>
      <point x="89" y="225"/>
      <point x="112" y="84"/>
      <point x="162" y="0" type="curve"/>
      <point x="332" y="0" type="line"/>
      <point x="284" y="85"/>
      <point x="257" y="221"/>
      <point x="257" y="393" type="curve" smooth="yes"/>
      <point x="257" y="863" type="line" smooth="yes"/>
      <point x="257" y="988"/>
      <point x="296" y="1048"/>
      <point x="384" y="1048" type="curve" smooth="yes"/>
      <point x="473" y="1048"/>
      <point x="512" y="988"/>
      <point x="512" y="863" type="curve" smooth="yes"/>
      <point x="512" y="645" type="line"/>
      <point x="601" y="645" type="line"/>
      <point x="594" y="1005" type="line"/>
      <point x="575" y="1138"/>
      <point x="498" y="1208"/>
      <point x="355" y="1208" type="curve" smooth="yes"/>
      <point x="173" y="1208"/>
      <point x="89" y="1093"/>
    </contour>
    <contour>
      <point x="680" y="645" type="line"/>
      <point x="680" y="863" type="line" smooth="yes"/>
      <point x="680" y="988"/>
      <point x="720" y="1048"/>
      <point x="808" y="1048" type="curve" smooth="yes"/>
      <point x="897" y="1048"/>
      <point x="935" y="988"/>
      <point x="935" y="863" type="curve" smooth="yes"/>
      <point x="935" y="393" type="line" smooth="yes"/>
      <point x="935" y="221"/>
      <point x="908" y="85"/>
      <point x="860" y="0" type="curve"/>
      <point x="1030" y="0" type="line"/>
      <point x="1082" y="84"/>
      <point x="1103" y="225"/>
      <point x="1103" y="395" type="curve" smooth="yes"/>
      <point x="1103" y="862" type="line" smooth="yes"/>
      <point x="1103" y="1093"/>
      <point x="1021" y="1208"/>
      <point x="837" y="1208" type="curve" smooth="yes"/>
      <point x="696" y="1208"/>
      <point x="618" y="1138"/>
      <point x="599" y="1005" type="curve"/>
      <point x="540" y="1005" type="line"/>
      <point x="533" y="683" type="line"/>
    </contour>
  </outline>
</glyph>
<glyph name="Nnna.mlm" format="2">
  <advance width="1444"/>
  <unicode hex="0D29"/>
  <outline>
    <contour>
      <point x="764" y="3" type="line"/>
      <point x="932" y="3" type="line"/>
      <point x="932" y="785" type="line"/>
      <point x="764" y="733" type="line"/>
    </contour>
    <contour>
      <point x="501" y="1208" type="curve" smooth="yes"/>
      <point x="221" y="1208"/>
      <point x="86" y="1045"/>
      <point x="86" y="730" type="curve" smooth="yes"/>
      <point x="86" y="276" type="line" smooth="yes"/>
      <point x="86" y="82"/>
      <point x="172" y="-18"/>
      <point x="344" y="-18" type="curve" smooth="yes"/>
      <point x="516" y="-18"/>
      <point x="601" y="82"/>
      <point x="601" y="276" type="curve" smooth="yes"/>
      <point x="601" y="559" type="line" smooth="yes"/>
      <point x="601" y="730"/>
      <point x="541" y="813"/>
      <point x="421" y="813" type="curve" smooth="yes"/>
      <point x="318" y="813"/>
      <point x="260" y="748"/>
      <point x="243" y="633" type="curve"/>
      <point x="248" y="576" type="line"/>
      <point x="267" y="634"/>
      <point x="299" y="663"/>
      <point x="349" y="663" type="curve" smooth="yes"/>
      <point x="409" y="663"/>
      <point x="437" y="622"/>
      <point x="437" y="535" type="curve" smooth="yes"/>
      <point x="437" y="271" type="line" smooth="yes"/>
      <point x="437" y="174"/>
      <point x="409" y="129"/>
      <point x="344" y="129" type="curve" smooth="yes"/>
      <point x="280" y="129"/>
      <point x="249" y="174"/>
      <point x="249" y="271" type="curve" smooth="yes"/>
      <point x="249" y="597" type="line"/>
      <point x="260" y="681" type="line"/>
      <point x="247" y="681" type="line"/>
      <point x="247" y="726" type="line" smooth="yes"/>
      <point x="247" y="951"/>
      <point x="331" y="1056"/>
      <point x="512" y="1056" type="curve" smooth="yes"/>
      <point x="682" y="1056"/>
      <point x="764" y="973"/>
      <point x="764" y="797" type="curve" smooth="yes"/>
      <point x="764" y="635" type="line"/>
      <point x="841" y="635" type="line"/>
      <point x="841" y="989" type="line"/>
      <point x="809" y="1130"/>
      <point x="697" y="1208"/>
    </contour>
    <contour>
      <point x="1060" y="1048" type="curve" smooth="yes"/>
      <point x="1148" y="1048"/>
      <point x="1187" y="988"/>
      <point x="1187" y="863" type="curve" smooth="yes"/>
      <point x="1187" y="393" type="line" smooth="yes"/>
      <point x="1187" y="221"/>
      <point x="1159" y="85"/>
      <point x="1111" y="0" type="curve"/>
      <point x="1281" y="0" type="line"/>
      <point x="1333" y="84"/>
      <point x="1355" y="225"/>
      <point x="1355" y="395" type="curve" smooth="yes"/>
      <point x="1355" y="862" type="line" smooth="yes"/>
      <point x="1355" y="1093"/>
      <point x="1272" y="1208"/>
      <point x="1087" y="1208" type="curve" smooth="yes"/>
      <point x="949" y="1208"/>
      <point x="861" y="1142"/>
      <point x="845" y="989" type="curve"/>
      <point x="788" y="989" type="line"/>
      <point x="788" y="675" type="line"/>
      <point x="932" y="671" type="line"/>
      <point x="932" y="864" type="line" smooth="yes"/>
      <point x="932" y="988"/>
      <point x="972" y="1048"/>
    </contour>
  </outline>
</glyph>
<glyph name="Pha.mlm" format="2">
  <advance width="1496"/>
  <unicode hex="0D2B"/>
  <outline>
    <contour>
      <point x="480" y="136" type="line"/>
      <point x="470" y="0" type="line"/>
      <point x="890" y="0" type="line"/>
      <point x="920" y="136" type="line"/>
    </contour>
    <contour>
      <point x="354" y="799" type="curve" smooth="yes"/>
      <point x="167" y="799"/>
      <point x="77" y="690"/>
      <point x="77" y="482" type="curve" smooth="yes"/>
      <point x="77" y="283" type="line" smooth="yes"/>
      <point x="77" y="160"/>
      <point x="91" y="65"/>
      <point x="119" y="0" type="curve"/>
      <point x="285" y="0" type="line"/>
      <point x="259" y="63"/>
      <point x="243" y="157"/>
      <point x="243" y="281" type="curve" smooth="yes"/>
      <point x="243" y="483" type="line" smooth="yes"/>
      <point x="243" y="591"/>
      <point x="278" y="647"/>
      <point x="353" y="647" type="curve" smooth="yes"/>
      <point x="429" y="647"/>
      <point x="465" y="591"/>
      <point x="465" y="483" type="curve" smooth="yes"/>
      <point x="465" y="281" type="line" smooth="yes"/>
      <point x="465" y="163"/>
      <point x="448" y="72"/>
      <point x="417" y="10" type="curve"/>
      <point x="417" y="0" type="line"/>
      <point x="547" y="0" type="line"/>
      <point x="604" y="67"/>
      <point x="631" y="165"/>
      <point x="631" y="290" type="curve" smooth="yes"/>
      <point x="631" y="482" type="line" smooth="yes"/>
      <point x="631" y="690"/>
      <point x="541" y="799"/>
    </contour>
    <contour>
      <point x="917" y="136" type="line"/>
      <point x="857" y="0" type="line"/>
      <point x="1399" y="0" type="line"/>
      <point x="1399" y="875" type="line" smooth="yes"/>
      <point x="1399" y="1097"/>
      <point x="1307" y="1208"/>
      <point x="1111" y="1208" type="curve" smooth="yes"/>
      <point x="916" y="1208"/>
      <point x="820" y="1096"/>
      <point x="820" y="875" type="curve" smooth="yes"/>
      <point x="820" y="0" type="line"/>
      <point x="988" y="0" type="line"/>
      <point x="988" y="877" type="line" smooth="yes"/>
      <point x="988" y="995"/>
      <point x="1026" y="1054"/>
      <point x="1110" y="1054" type="curve" smooth="yes"/>
      <point x="1195" y="1054"/>
      <point x="1231" y="995"/>
      <point x="1231" y="877" type="curve" smooth="yes"/>
      <point x="1231" y="136" type="line"/>
    </contour>
  </outline>
</glyph>
<glyph name="Ba.mlm" format="2">
  <advance width="1838"/>
  <unicode hex="0D2C"/>
  <outline>
    <contour>
      <point x="764" y="3" type="line"/>
      <point x="932" y="3" type="line"/>
      <point x="932" y="785" type="line"/>
      <point x="764" y="733" type="line"/>
    </contour>
    <contour>
      <point x="501" y="1208" type="curve" smooth="yes"/>
      <point x="221" y="1208"/>
      <point x="86" y="1045"/>
      <point x="86" y="730" type="curve" smooth="yes"/>
      <point x="86" y="276" type="line" smooth="yes"/>
      <point x="86" y="82"/>
      <point x="172" y="-18"/>
      <point x="344" y="-18" type="curve" smooth="yes"/>
      <point x="516" y="-18"/>
      <point x="601" y="82"/>
      <point x="601" y="276" type="curve" smooth="yes"/>
      <point x="601" y="559" type="line" smooth="yes"/>
      <point x="601" y="730"/>
      <point x="541" y="813"/>
      <point x="421" y="813" type="curve" smooth="yes"/>
      <point x="318" y="813"/>
      <point x="260" y="748"/>
      <point x="243" y="633" type="curve"/>
      <point x="248" y="576" type="line"/>
      <point x="267" y="634"/>
      <point x="299" y="663"/>
      <point x="349" y="663" type="curve" smooth="yes"/>
      <point x="409" y="663"/>
      <point x="437" y="622"/>
      <point x="437" y="535" type="curve" smooth="yes"/>
      <point x="437" y="271" type="line" smooth="yes"/>
      <point x="437" y="174"/>
      <point x="409" y="129"/>
      <point x="344" y="129" type="curve" smooth="yes"/>
      <point x="280" y="129"/>
      <point x="249" y="174"/>
      <point x="249" y="271" type="curve" smooth="yes"/>
      <point x="249" y="597" type="line"/>
      <point x="260" y="681" type="line"/>
      <point x="247" y="681" type="line"/>
      <point x="247" y="726" type="line" smooth="yes"/>
      <point x="247" y="951"/>
      <point x="331" y="1056"/>
      <point x="512" y="1056" type="curve" smooth="yes"/>
      <point x="682" y="1056"/>
      <point x="764" y="973"/>
      <point x="764" y="797" type="curve" smooth="yes"/>
      <point x="764" y="635" type="line"/>
      <point x="841" y="635" type="line"/>
      <point x="841" y="989" type="line"/>
      <point x="809" y="1130"/>
      <point x="697" y="1208"/>
    </contour>
    <contour>
      <point x="1061" y="1048" type="curve" smooth="yes"/>
      <point x="1151" y="1048"/>
      <point x="1190" y="988"/>
      <point x="1190" y="863" type="curve" smooth="yes"/>
      <point x="1190" y="393" type="line" smooth="yes"/>
      <point x="1190" y="227"/>
      <point x="1164" y="94"/>
      <point x="1118" y="10" type="curve"/>
      <point x="1118" y="0" type="line"/>
      <point x="1268" y="0" type="line"/>
      <point x="1325" y="86"/>
      <point x="1358" y="221"/>
      <point x="1358" y="397" type="curve" smooth="yes"/>
      <point x="1358" y="862" type="line" smooth="yes"/>
      <point x="1358" y="1095"/>
      <point x="1274" y="1208"/>
      <point x="1086" y="1208" type="curve" smooth="yes"/>
      <point x="949" y="1208"/>
      <point x="862" y="1142"/>
      <point x="846" y="989" type="curve"/>
      <point x="789" y="989" type="line"/>
      <point x="789" y="675" type="line"/>
      <point x="932" y="671" type="line"/>
      <point x="932" y="864" type="line" smooth="yes"/>
      <point x="932" y="988"/>
      <point x="972" y="1048"/>
    </contour>
    <contour>
      <point x="1569" y="1182" type="line"/>
      <point x="1569" y="0" type="line"/>
      <point x="1737" y="0" type="line"/>
      <point x="1737" y="1182" type="line"/>
    </contour>
    <contour>
      <point x="1254" y="136" type="line"/>
      <point x="1118" y="0" type="line"/>
      <point x="1712" y="0" type="line"/>
      <point x="1712" y="136" type="line"/>
    </contour>
  </outline>
</glyph>
<glyph name="Bha.mlm" format="2">
  <advance width="869"/>
  <unicode hex="0D2D"/>
  <outline>
    <contour>
      <point x="796" y="909" type="curve" smooth="yes"/>
      <point x="796" y="1100"/>
      <point x="678.347" y="1208"/>
      <point x="457" y="1208" type="curve" smooth="yes"/>
      <point x="210.33" y="1208"/>
      <point x="89" y="1073.81"/>
      <point x="89" y="820" type="curve" smooth="yes"/>
      <point x="89" y="347" type="line" smooth="yes"/>
      <point x="89" y="197"/>
      <point x="103" y="80"/>
      <point x="128" y="0" type="curve"/>
      <point x="296" y="0" type="line"/>
      <point x="273" y="77"/>
      <point x="258" y="194"/>
      <point x="258" y="345" type="curve" smooth="yes"/>
      <point x="258" y="822" type="line" smooth="yes"/>
      <point x="258" y="977"/>
      <point x="319.31" y="1056"/>
      <point x="456" y="1056" type="curve" smooth="yes"/>
      <point x="575.306" y="1056"/>
      <point x="628" y="1001"/>
      <point x="628" y="913" type="curve" smooth="yes"/>
      <point x="628" y="870"/>
      <point x="615" y="845"/>
      <point x="566" y="837" type="curve" smooth="yes"/>
      <point x="554" y="835" type="line" smooth="yes"/>
      <point x="440" y="816"/>
      <point x="380" y="744"/>
      <point x="380" y="601" type="curve" smooth="yes"/>
      <point x="380" y="596" type="line" smooth="yes"/>
      <point x="380" y="451"/>
      <point x="437" y="380"/>
      <point x="555" y="362" type="curve" smooth="yes"/>
      <point x="568" y="360" type="line" smooth="yes"/>
      <point x="628" y="351"/>
      <point x="643" y="313"/>
      <point x="643" y="251" type="curve"/>
      <point x="643" y="249" type="line"/>
      <point x="643" y="167"/>
      <point x="601" y="132"/>
      <point x="511" y="132" type="curve" smooth="yes"/>
      <point x="475" y="132"/>
      <point x="439" y="136"/>
      <point x="406" y="141" type="curve"/>
      <point x="424" y="-2" type="line"/>
      <point x="463" y="-9"/>
      <point x="503" y="-12"/>
      <point x="542" y="-12" type="curve" smooth="yes"/>
      <point x="723" y="-12"/>
      <point x="811" y="75"/>
      <point x="811" y="247" type="curve" smooth="yes"/>
      <point x="811" y="252" type="line" smooth="yes"/>
      <point x="811" y="394"/>
      <point x="757" y="466"/>
      <point x="647" y="484" type="curve" smooth="yes"/>
      <point x="635" y="486" type="line" smooth="yes"/>
      <point x="574" y="496"/>
      <point x="540" y="526"/>
      <point x="540" y="596" type="curve" smooth="yes"/>
      <point x="540" y="600" type="line" smooth="yes"/>
      <point x="540" y="670"/>
      <point x="572" y="701"/>
      <point x="632" y="711" type="curve" smooth="yes"/>
      <point x="644" y="713" type="line" smooth="yes"/>
      <point x="751" y="731"/>
      <point x="796" y="789"/>
    </contour>
  </outline>
</glyph>
<glyph name="Ma.mlm" format="2">
  <advance width="1010"/>
  <unicode hex="0D2E"/>
  <outline>
    <contour>
      <point x="181" y="134" type="line"/>
      <point x="114" y="0" type="line"/>
      <point x="888" y="0" type="line"/>
      <point x="889" y="134" type="line"/>
    </contour>
    <contour>
      <point x="505" y="1061" type="curve" smooth="yes"/>
      <point x="674" y="1061"/>
      <point x="752" y="957"/>
      <point x="752" y="745" type="curve" smooth="yes"/>
      <point x="752" y="0" type="line"/>
      <point x="913" y="0" type="line"/>
      <point x="913" y="740" type="line" smooth="yes"/>
      <point x="913" y="1049"/>
      <point x="782" y="1208"/>
      <point x="505" y="1208" type="curve" smooth="yes"/>
      <point x="228" y="1208"/>
      <point x="97" y="1049"/>
      <point x="97" y="741" type="curve" smooth="yes"/>
      <point x="97" y="0" type="line"/>
      <point x="257" y="0" type="line"/>
      <point x="257" y="745" type="line" smooth="yes"/>
      <point x="257" y="962"/>
      <point x="330" y="1061"/>
    </contour>
    <contour>
      <point x="609" y="704" type="line" smooth="yes"/>
      <point x="609" y="908.584"/>
      <point x="531.301" y="1009"/>
      <point x="373" y="1009" type="curve" smooth="yes"/>
      <point x="343.294" y="1009"/>
      <point x="301.587" y="1000.2"/>
      <point x="272" y="987" type="curve"/>
      <point x="233" y="863" type="line"/>
      <point x="266.091" y="886.2"/>
      <point x="297.114" y="892"/>
      <point x="324" y="892" type="curve" smooth="yes"/>
      <point x="408.374" y="892"/>
      <point x="447" y="832.961"/>
      <point x="447" y="704" type="curve" smooth="yes"/>
      <point x="447" y="681" type="line" smooth="yes"/>
      <point x="447" y="456.776"/>
      <point x="392.66" y="278.182"/>
      <point x="293" y="130" type="curve"/>
      <point x="450" y="109" type="line"/>
      <point x="551.652" y="248.366"/>
      <point x="609" y="444.629"/>
      <point x="609" y="679" type="curve" smooth="yes"/>
    </contour>
  </outline>
</glyph>
<glyph name="Ya.mlm" format="2">
  <advance width="1436"/>
  <unicode hex="0D2F"/>
  <outline>
    <contour>
      <point x="705" y="171" type="curve"/>
      <point x="651" y="148" type="line"/>
      <point x="619" y="127"/>
      <point x="575" y="115"/>
      <point x="526" y="115" type="curve" smooth="yes"/>
      <point x="343" y="115"/>
      <point x="256" y="221"/>
      <point x="256" y="447" type="curve" smooth="yes"/>
      <point x="256" y="915" type="line" smooth="yes"/>
      <point x="256" y="1011"/>
      <point x="285" y="1059"/>
      <point x="354" y="1059" type="curve" smooth="yes"/>
      <point x="424" y="1059"/>
      <point x="448" y="1004"/>
      <point x="451" y="912" type="curve" smooth="yes"/>
      <point x="468" y="456" type="line" smooth="yes"/>
      <point x="474" y="288"/>
      <point x="518" y="174"/>
      <point x="628" y="103" type="curve"/>
      <point x="686" y="63" type="line"/>
      <point x="732" y="18"/>
      <point x="822" y="-25"/>
      <point x="951" y="-25" type="curve" smooth="yes"/>
      <point x="1221" y="-25"/>
      <point x="1348" y="130"/>
      <point x="1348" y="448" type="curve" smooth="yes"/>
      <point x="1348" y="784" type="line" smooth="yes"/>
      <point x="1348" y="954"/>
      <point x="1320" y="1091"/>
      <point x="1267" y="1181" type="curve"/>
      <point x="1100" y="1181" type="line"/>
      <point x="1151" y="1097"/>
      <point x="1181" y="960"/>
      <point x="1181" y="786" type="curve" smooth="yes"/>
      <point x="1181" y="447" type="line" smooth="yes"/>
      <point x="1181" y="221"/>
      <point x="1099" y="115"/>
      <point x="927" y="115" type="curve" smooth="yes"/>
      <point x="876" y="115"/>
      <point x="834" y="127"/>
      <point x="800" y="148" type="curve"/>
      <point x="747" y="171" type="line"/>
      <point x="666" y="220"/>
      <point x="638" y="317"/>
      <point x="633" y="451" type="curve" smooth="yes"/>
      <point x="617" y="908" type="line" smooth="yes"/>
      <point x="616" y="941"/>
      <point x="614" y="968"/>
      <point x="609" y="995" type="curve"/>
      <point x="583" y="1038" type="line"/>
      <point x="562" y="1146"/>
      <point x="486" y="1208"/>
      <point x="349" y="1208" type="curve" smooth="yes"/>
      <point x="180" y="1208"/>
      <point x="89" y="1104"/>
      <point x="89" y="912" type="curve" smooth="yes"/>
      <point x="89" y="448" type="line" smooth="yes"/>
      <point x="89" y="130"/>
      <point x="224" y="-25"/>
      <point x="503" y="-25" type="curve" smooth="yes"/>
      <point x="634" y="-25"/>
      <point x="721" y="18"/>
      <point x="767" y="63" type="curve"/>
      <point x="824" y="104" type="line"/>
      <point x="929" y="175"/>
      <point x="969" y="290"/>
      <point x="979" y="422" type="curve" smooth="yes"/>
      <point x="990" y="579"/>
      <point x="1000" y="770"/>
      <point x="1000" y="918" type="curve" smooth="yes"/>
      <point x="1000" y="1113"/>
      <point x="927" y="1208"/>
      <point x="776" y="1208" type="curve" smooth="yes"/>
      <point x="665" y="1208"/>
      <point x="603" y="1154"/>
      <point x="581" y="1069" type="curve"/>
      <point x="545" y="1069" type="line"/>
      <point x="611" y="964" type="line"/>
      <point x="626" y="1023"/>
      <point x="666" y="1059"/>
      <point x="725" y="1059" type="curve" smooth="yes"/>
      <point x="799" y="1059"/>
      <point x="834" y="1011"/>
      <point x="834" y="909" type="curve" smooth="yes"/>
      <point x="834" y="769"/>
      <point x="823" y="566"/>
      <point x="813" y="416" type="curve" smooth="yes"/>
      <point x="806" y="313"/>
      <point x="782" y="216"/>
    </contour>
  </outline>
</glyph>
<glyph name="Ra.mlm" format="2">
  <advance width="1045"/>
  <unicode hex="0D30"/>
  <outline>
    <contour>
      <point x="529" y="1056" type="curve" smooth="yes"/>
      <point x="708" y="1056"/>
      <point x="800" y="947"/>
      <point x="800" y="716" type="curve"/>
      <point x="800" y="715" type="line"/>
      <point x="784" y="715" type="line"/>
      <point x="797" y="641" type="line"/>
      <point x="797" y="271" type="line" smooth="yes"/>
      <point x="797" y="174"/>
      <point x="768" y="129"/>
      <point x="703" y="129" type="curve" smooth="yes"/>
      <point x="640" y="129"/>
      <point x="610" y="174"/>
      <point x="610" y="271" type="curve" smooth="yes"/>
      <point x="610" y="545" type="line" smooth="yes"/>
      <point x="610" y="632"/>
      <point x="639" y="674"/>
      <point x="706" y="674" type="curve" smooth="yes"/>
      <point x="750" y="674"/>
      <point x="782" y="655"/>
      <point x="799" y="621" type="curve"/>
      <point x="803" y="678" type="line"/>
      <point x="788" y="771"/>
      <point x="730" y="824"/>
      <point x="633" y="824" type="curve" smooth="yes"/>
      <point x="507" y="824"/>
      <point x="446" y="737"/>
      <point x="446" y="559" type="curve" smooth="yes"/>
      <point x="446" y="276" type="line" smooth="yes"/>
      <point x="446" y="82"/>
      <point x="530" y="-18"/>
      <point x="701" y="-18" type="curve" smooth="yes"/>
      <point x="875" y="-18"/>
      <point x="960" y="82"/>
      <point x="960" y="276" type="curve" smooth="yes"/>
      <point x="960" y="709" type="line" smooth="yes"/>
      <point x="960" y="1038"/>
      <point x="819" y="1208"/>
      <point x="524" y="1208" type="curve" smooth="yes"/>
      <point x="227" y="1208"/>
      <point x="88" y="1039"/>
      <point x="88" y="711" type="curve" smooth="yes"/>
      <point x="88" y="395" type="line" smooth="yes"/>
      <point x="88" y="225"/>
      <point x="111" y="84"/>
      <point x="163" y="0" type="curve"/>
      <point x="335" y="0" type="line"/>
      <point x="286" y="85"/>
      <point x="256" y="221"/>
      <point x="256" y="393" type="curve" smooth="yes"/>
      <point x="256" y="711" type="line" smooth="yes"/>
      <point x="256" y="945"/>
      <point x="342" y="1056"/>
    </contour>
  </outline>
</glyph>
<glyph name="Rra.mlm" format="2">
  <advance width="812"/>
  <unicode hex="0D31"/>
  <outline>
    <contour>
      <point x="406" y="1054" type="curve" smooth="yes"/>
      <point x="511" y="1054"/>
      <point x="555" y="986"/>
      <point x="555" y="841" type="curve" smooth="yes"/>
      <point x="555" y="389" type="line" smooth="yes"/>
      <point x="555" y="219"/>
      <point x="532" y="83"/>
      <point x="489" y="0" type="curve"/>
      <point x="661" y="0" type="line"/>
      <point x="704" y="82"/>
      <point x="723" y="221"/>
      <point x="723" y="390" type="curve" smooth="yes"/>
      <point x="723" y="839" type="line" smooth="yes"/>
      <point x="723" y="1084"/>
      <point x="620" y="1208"/>
      <point x="406" y="1208" type="curve" smooth="yes"/>
      <point x="193" y="1208"/>
      <point x="89" y="1084"/>
      <point x="89" y="839" type="curve" smooth="yes"/>
      <point x="89" y="390" type="line" smooth="yes"/>
      <point x="89" y="221"/>
      <point x="109" y="82"/>
      <point x="151" y="0" type="curve"/>
      <point x="323" y="0" type="line"/>
      <point x="282" y="83"/>
      <point x="257" y="219"/>
      <point x="257" y="389" type="curve" smooth="yes"/>
      <point x="257" y="841" type="line" smooth="yes"/>
      <point x="257" y="986"/>
      <point x="302" y="1054"/>
    </contour>
  </outline>
</glyph>
<glyph name="Va.mlm" format="2">
  <advance width="1176"/>
  <unicode hex="0D35"/>
  <outline>
    <contour>
      <point x="399" y="1054" type="curve" smooth="yes"/>
      <point x="498" y="1054"/>
      <point x="542" y="988"/>
      <point x="542" y="848" type="curve" smooth="yes"/>
      <point x="542" y="389" type="line" smooth="yes"/>
      <point x="542" y="224"/>
      <point x="520" y="94"/>
      <point x="479" y="10" type="curve"/>
      <point x="479" y="0" type="line"/>
      <point x="627" y="0" type="line"/>
      <point x="685" y="83"/>
      <point x="710" y="217"/>
      <point x="710" y="391" type="curve" smooth="yes"/>
      <point x="710" y="846" type="line" smooth="yes"/>
      <point x="710" y="1086"/>
      <point x="609" y="1208"/>
      <point x="399" y="1208" type="curve" smooth="yes"/>
      <point x="191" y="1208"/>
      <point x="89" y="1086"/>
      <point x="89" y="846" type="curve" smooth="yes"/>
      <point x="89" y="381" type="line" smooth="yes"/>
      <point x="89" y="216"/>
      <point x="109" y="80"/>
      <point x="149" y="0" type="curve"/>
      <point x="319" y="0" type="line"/>
      <point x="281" y="83"/>
      <point x="257" y="219"/>
      <point x="257" y="389" type="curve" smooth="yes"/>
      <point x="257" y="848" type="line" smooth="yes"/>
      <point x="257" y="988"/>
      <point x="300" y="1054"/>
    </contour>
    <contour>
      <point x="907" y="1182" type="line"/>
      <point x="907" y="0" type="line"/>
      <point x="1075" y="0" type="line"/>
      <point x="1075" y="1182" type="line"/>
    </contour>
    <contour>
      <point x="622" y="136" type="line"/>
      <point x="480" y="0" type="line"/>
      <point x="1052" y="0" type="line"/>
      <point x="1052" y="136" type="line"/>
    </contour>
  </outline>
</glyph>
<glyph name="Ttta.mlm" format="2">
  <advance width="789"/>
  <unicode hex="0D3A"/>
  <outline>
    <contour>
      <point x="101" y="1182" type="line"/>
      <point x="101" y="0" type="line"/>
      <point x="269" y="0" type="line"/>
      <point x="269" y="1182" type="line"/>
    </contour>
    <contour>
      <point x="750" y="139" type="line"/>
      <point x="182" y="139" type="line"/>
      <point x="182" y="0" type="line"/>
      <point x="734" y="0" type="line"/>
    </contour>
    <contour>
      <point x="497" y="78" type="line"/>
      <point x="348" y="78" type="line"/>
      <point x="348" y="-236" type="line"/>
      <point x="497" y="-236" type="line"/>
    </contour>
  </outline>
</glyph>
<glyph name="matraA.mlm" format="2">
  <advance width="537"/>
  <unicode hex="0D3E"/>
  <outline>
    <contour>
      <point x="136" y="132" type="curve" smooth="yes"/>
      <point x="94" y="132"/>
      <point x="58" y="142"/>
      <point x="24" y="158" type="curve"/>
      <point x="43" y="7" type="line"/>
      <point x="82" y="-12"/>
      <point x="124" y="-23"/>
      <point x="176" y="-23" type="curve" smooth="yes"/>
      <point x="364" y="-23"/>
      <point x="448" y="90"/>
      <point x="448" y="328" type="curve" smooth="yes"/>
      <point x="448" y="850" type="line" smooth="yes"/>
      <point x="448" y="1093"/>
      <point x="365" y="1205"/>
      <point x="179" y="1205" type="curve" smooth="yes"/>
      <point x="127" y="1205"/>
      <point x="85" y="1195"/>
      <point x="46" y="1177" type="curve"/>
      <point x="28" y="1027" type="line"/>
      <point x="63" y="1043"/>
      <point x="98" y="1052"/>
      <point x="137" y="1052" type="curve" smooth="yes"/>
      <point x="235" y="1052"/>
      <point x="280" y="985"/>
      <point x="280" y="844" type="curve" smooth="yes"/>
      <point x="280" y="336" type="line" smooth="yes"/>
      <point x="280" y="197"/>
      <point x="234" y="132"/>
    </contour>
  </outline>
</glyph>
<glyph name="matraI.mlm" format="2">
  <advance width="388"/>
  <unicode hex="0D3F"/>
  <outline>
    <contour>
      <point x="287" y="0" type="line"/>
      <point x="287" y="1195" type="line" smooth="yes"/>
      <point x="287" y="1459"/>
      <point x="176" y="1583"/>
      <point x="-46" y="1583" type="curve" smooth="yes"/>
      <point x="-152" y="1583"/>
      <point x="-239" y="1554"/>
      <point x="-309" y="1512" type="curve"/>
      <point x="-332" y="1354" type="line"/>
      <point x="-254" y="1404"/>
      <point x="-163" y="1435"/>
      <point x="-77" y="1435" type="curve" smooth="yes"/>
      <point x="58" y="1435"/>
      <point x="119" y="1365"/>
      <point x="119" y="1199" type="curve" smooth="yes"/>
      <point x="119" y="0" type="line"/>
    </contour>
  </outline>
</glyph>
<glyph name="matraU.mlm" format="2">
  <advance width="575"/>
  <unicode hex="0D41"/>
  <outline>
    <contour>
      <point x="277" y="-176" type="curve" smooth="yes"/>
      <point x="215" y="-176"/>
      <point x="189" y="-135"/>
      <point x="189" y="-37" type="curve" smooth="yes"/>
      <point x="189" y="96" type="line" smooth="yes"/>
      <point x="189" y="193"/>
      <point x="215" y="234"/>
      <point x="277" y="234" type="curve" smooth="yes"/>
      <point x="339" y="234"/>
      <point x="365" y="193"/>
      <point x="365" y="96" type="curve" smooth="yes"/>
      <point x="365" y="-37" type="line" smooth="yes"/>
      <point x="365" y="-135"/>
      <point x="339" y="-176"/>
    </contour>
    <contour>
      <point x="274" y="380" type="curve" smooth="yes"/>
      <point x="112" y="380"/>
      <point x="33" y="292"/>
      <point x="33" y="94" type="curve" smooth="yes"/>
      <point x="33" y="-35" type="line" smooth="yes"/>
      <point x="33" y="-234"/>
      <point x="114" y="-322"/>
      <point x="277" y="-322" type="curve" smooth="yes"/>
      <point x="441" y="-322"/>
      <point x="521" y="-234"/>
      <point x="521" y="-35" type="curve" smooth="yes"/>
      <point x="521" y="94" type="line" smooth="yes"/>
      <point x="521" y="265"/>
      <point x="461" y="350"/>
      <point x="338" y="370" type="curve"/>
      <point x="318" y="375"/>
      <point x="298" y="380"/>
    </contour>
    <contour>
      <point x="486" y="856" type="curve" smooth="yes"/>
      <point x="486" y="884" type="line" smooth="yes"/>
      <point x="486" y="1103"/>
      <point x="403" y="1205"/>
      <point x="231" y="1205" type="curve" smooth="yes"/>
      <point x="173" y="1205"/>
      <point x="126" y="1194"/>
      <point x="86" y="1176" type="curve"/>
      <point x="67" y="1023" type="line"/>
      <point x="102" y="1042"/>
      <point x="142" y="1052"/>
      <point x="182" y="1052" type="curve" smooth="yes"/>
      <point x="278" y="1052"/>
      <point x="320" y="994"/>
      <point x="320" y="866" type="curve" smooth="yes"/>
      <point x="320" y="843" type="line" smooth="yes"/>
      <point x="320" y="648"/>
      <point x="262" y="480"/>
      <point x="197" y="354" type="curve"/>
      <point x="343" y="316" type="line"/>
      <point x="421" y="443"/>
      <point x="486" y="646"/>
    </contour>
  </outline>
</glyph>
<glyph name="matraRu.mlm" format="2">
  <advance width="400"/>
  <unicode hex="0D43"/>
  <outline>
    <contour>
      <point x="104" y="-479" type="curve" smooth="yes"/>
      <point x="265" y="-479"/>
      <point x="356" y="-394"/>
      <point x="356" y="-227" type="curve" smooth="yes"/>
      <point x="356" y="-192" type="line" smooth="yes"/>
      <point x="356" y="47"/>
      <point x="264" y="349"/>
      <point x="264" y="726" type="curve" smooth="yes"/>
      <point x="264" y="890"/>
      <point x="274" y="1029"/>
      <point x="295" y="1182" type="curve"/>
      <point x="133" y="1182" type="line"/>
      <point x="108" y="1030"/>
      <point x="98" y="890"/>
      <point x="98" y="726" type="curve" smooth="yes"/>
      <point x="98" y="373"/>
      <point x="178" y="105"/>
      <point x="200" y="-112" type="curve"/>
      <point x="197" y="-134" type="line"/>
      <point x="199" y="-164"/>
      <point x="200" y="-188"/>
      <point x="200" y="-213" type="curve" smooth="yes"/>
      <point x="200" y="-235" type="line" smooth="yes"/>
      <point x="200" y="-309"/>
      <point x="170" y="-346"/>
      <point x="109" y="-346" type="curve" smooth="yes"/>
      <point x="50" y="-346"/>
      <point x="18" y="-309"/>
      <point x="18" y="-239" type="curve" smooth="yes"/>
      <point x="18" y="-218" type="line" smooth="yes"/>
      <point x="18" y="-151"/>
      <point x="49" y="-116"/>
      <point x="106" y="-116" type="curve" smooth="yes"/>
      <point x="154" y="-116"/>
      <point x="182" y="-132"/>
      <point x="202" y="-152" type="curve"/>
      <point x="216" y="-79" type="line"/>
      <point x="191" y="-79" type="line"/>
      <point x="168" y="-26"/>
      <point x="132" y="10"/>
      <point x="47" y="10" type="curve" smooth="yes"/>
      <point x="-64" y="10"/>
      <point x="-138" y="-64"/>
      <point x="-138" y="-205" type="curve" smooth="yes"/>
      <point x="-138" y="-244" type="line" smooth="yes"/>
      <point x="-138" y="-394"/>
      <point x="-55" y="-479"/>
    </contour>
  </outline>
</glyph>
<glyph name="matrashortE.mlm" format="2">
  <advance width="1044"/>
  <unicode hex="0D46"/>
  <outline>
    <contour>
      <point x="515" y="1056" type="curve" smooth="yes"/>
      <point x="703" y="1056"/>
      <point x="788" y="945"/>
      <point x="788" y="711" type="curve" smooth="yes"/>
      <point x="788" y="393" type="line" smooth="yes"/>
      <point x="788" y="221"/>
      <point x="759" y="85"/>
      <point x="709" y="0" type="curve"/>
      <point x="880" y="0" type="line"/>
      <point x="933" y="84"/>
      <point x="956" y="225"/>
      <point x="956" y="395" type="curve" smooth="yes"/>
      <point x="956" y="711" type="line" smooth="yes"/>
      <point x="956" y="1039"/>
      <point x="814" y="1208"/>
      <point x="520" y="1208" type="curve" smooth="yes"/>
      <point x="226" y="1208"/>
      <point x="86" y="1039"/>
      <point x="86" y="711" type="curve" smooth="yes"/>
      <point x="86" y="276" type="line" smooth="yes"/>
      <point x="86" y="82"/>
      <point x="171" y="-18"/>
      <point x="344" y="-18" type="curve" smooth="yes"/>
      <point x="516" y="-18"/>
      <point x="601" y="82"/>
      <point x="601" y="276" type="curve" smooth="yes"/>
      <point x="601" y="559" type="line" smooth="yes"/>
      <point x="601" y="730"/>
      <point x="540" y="813"/>
      <point x="421" y="813" type="curve" smooth="yes"/>
      <point x="318" y="813"/>
      <point x="259" y="748"/>
      <point x="242" y="633" type="curve"/>
      <point x="247" y="576" type="line"/>
      <point x="267" y="634"/>
      <point x="299" y="663"/>
      <point x="349" y="663" type="curve" smooth="yes"/>
      <point x="409" y="663"/>
      <point x="437" y="622"/>
      <point x="437" y="535" type="curve" smooth="yes"/>
      <point x="437" y="271" type="line" smooth="yes"/>
      <point x="437" y="174"/>
      <point x="408" y="129"/>
      <point x="344" y="129" type="curve" smooth="yes"/>
      <point x="280" y="129"/>
      <point x="249" y="174"/>
      <point x="249" y="271" type="curve" smooth="yes"/>
      <point x="249" y="597" type="line"/>
      <point x="251.392" y="612.456"/>
      <point x="259.135" y="662.49"/>
      <point x="262" y="681" type="curve"/>
      <point x="258.801" y="681"/>
      <point x="249.299" y="681"/>
      <point x="246" y="681" type="curve"/>
      <point x="246" y="708" type="line" smooth="yes"/>
      <point x="246" y="944"/>
      <point x="330" y="1056"/>
    </contour>
  </outline>
</glyph>
<glyph name="Virama.mlm" format="2">
  <unicode hex="0D4D"/>
  <outline>
    <contour>
      <point x="-194" y="1417" type="curve" smooth="yes"/>
      <point x="-282.294" y="1417"/>
      <point x="-319" y="1473.58"/>
      <point x="-319" y="1552" type="curve" smooth="yes"/>
      <point x="-319" y="1605" type="line"/>
      <point x="-463" y="1605" type="line"/>
      <point x="-463" y="1552" type="line" smooth="yes"/>
      <point x="-463" y="1397"/>
      <point x="-388.446" y="1287"/>
      <point x="-194" y="1287" type="curve" smooth="yes"/>
      <point x="2.44981" y="1287"/>
      <point x="77" y="1397"/>
      <point x="77" y="1552" type="curve" smooth="yes"/>
      <point x="77" y="1605" type="line"/>
      <point x="-67" y="1605" type="line"/>
      <point x="-67" y="1552" type="line" smooth="yes"/>
      <point x="-67" y="1472.59"/>
      <point x="-104.703" y="1417"/>
    </contour>
  </outline>
</glyph>
<glyph name="dotreph.mlm" format="2">
  <unicode hex="0D4E"/>
  <outline>
    <contour>
      <point x="-695" y="1438" type="line" smooth="yes"/>
      <point x="-695" y="1365"/>
      <point x="-660" y="1326"/>
      <point x="-593" y="1326" type="curve" smooth="yes"/>
      <point x="-527" y="1326"/>
      <point x="-491" y="1365"/>
      <point x="-491" y="1438" type="curve" smooth="yes"/>
      <point x="-491" y="1450" type="line" smooth="yes"/>
      <point x="-491" y="1523"/>
      <point x="-527" y="1562"/>
      <point x="-593" y="1562" type="curve" smooth="yes"/>
      <point x="-660" y="1562"/>
      <point x="-695" y="1523"/>
      <point x="-695" y="1450" type="curve" smooth="yes"/>
    </contour>
  </outline>
</glyph>
<glyph name="parasign.mlm" format="2">
  <advance width="1807"/>
  <unicode hex="0D4F"/>
  <outline>
    <contour>
      <point x="254" y="332" type="curve" smooth="yes"/>
      <point x="254" y="574" type="line" smooth="yes"/>
      <point x="254" y="851"/>
      <point x="300" y="1037"/>
      <point x="407" y="1182" type="curve"/>
      <point x="235" y="1182" type="line"/>
      <point x="130" y="1041"/>
      <point x="86" y="848"/>
      <point x="86" y="574" type="curve" smooth="yes"/>
      <point x="86" y="332" type="line" smooth="yes"/>
      <point x="86" y="-152"/>
      <point x="349" y="-391"/>
      <point x="905" y="-391" type="curve" smooth="yes"/>
      <point x="1461" y="-391"/>
      <point x="1718" y="-155"/>
      <point x="1718" y="323" type="curve" smooth="yes"/>
      <point x="1718" y="862" type="line" smooth="yes"/>
      <point x="1718" y="1092"/>
      <point x="1635" y="1208"/>
      <point x="1451" y="1208" type="curve" smooth="yes"/>
      <point x="1313" y="1208"/>
      <point x="1224" y="1144"/>
      <point x="1208" y="989" type="curve"/>
      <point x="1151" y="989" type="line"/>
      <point x="1151" y="675" type="line"/>
      <point x="1295" y="671" type="line"/>
      <point x="1295" y="864" type="line" smooth="yes"/>
      <point x="1295" y="988"/>
      <point x="1336" y="1048"/>
      <point x="1423" y="1048" type="curve" smooth="yes"/>
      <point x="1512" y="1048"/>
      <point x="1550" y="988"/>
      <point x="1550" y="863" type="curve" smooth="yes"/>
      <point x="1550" y="323" type="line" smooth="yes"/>
      <point x="1550" y="-61"/>
      <point x="1364" y="-242"/>
      <point x="905" y="-242" type="curve" smooth="yes"/>
      <point x="444" y="-242"/>
      <point x="254" y="-59"/>
    </contour>
    <contour>
      <point x="1127" y="3" type="line"/>
      <point x="1295" y="3" type="line"/>
      <point x="1295" y="785" type="line"/>
      <point x="1127" y="733" type="line"/>
    </contour>
    <contour>
      <point x="864" y="1208" type="curve" smooth="yes"/>
      <point x="584" y="1208"/>
      <point x="449" y="1045"/>
      <point x="449" y="730" type="curve" smooth="yes"/>
      <point x="449" y="276" type="line" smooth="yes"/>
      <point x="449" y="82"/>
      <point x="535" y="-18"/>
      <point x="707" y="-18" type="curve" smooth="yes"/>
      <point x="879" y="-18"/>
      <point x="964" y="82"/>
      <point x="964" y="276" type="curve" smooth="yes"/>
      <point x="964" y="559" type="line" smooth="yes"/>
      <point x="964" y="730"/>
      <point x="904" y="813"/>
      <point x="784" y="813" type="curve" smooth="yes"/>
      <point x="681" y="813"/>
      <point x="623" y="748"/>
      <point x="606" y="633" type="curve"/>
      <point x="611" y="576" type="line"/>
      <point x="630" y="634"/>
      <point x="662" y="663"/>
      <point x="712" y="663" type="curve" smooth="yes"/>
      <point x="772" y="663"/>
      <point x="800" y="622"/>
      <point x="800" y="535" type="curve" smooth="yes"/>
      <point x="800" y="271" type="line" smooth="yes"/>
      <point x="800" y="174"/>
      <point x="772" y="129"/>
      <point x="707" y="129" type="curve" smooth="yes"/>
      <point x="643" y="129"/>
      <point x="612" y="174"/>
      <point x="612" y="271" type="curve" smooth="yes"/>
      <point x="612" y="597" type="line"/>
      <point x="623" y="681" type="line"/>
      <point x="610" y="681" type="line"/>
      <point x="610" y="726" type="line" smooth="yes"/>
      <point x="610" y="951"/>
      <point x="694" y="1056"/>
      <point x="875" y="1056" type="curve" smooth="yes"/>
      <point x="1045" y="1056"/>
      <point x="1127" y="973"/>
      <point x="1127" y="797" type="curve" smooth="yes"/>
      <point x="1127" y="635" type="line"/>
      <point x="1204" y="635" type="line"/>
      <point x="1204" y="989" type="line"/>
      <point x="1172" y="1130"/>
      <point x="1060" y="1208"/>
    </contour>
  </outline>
</glyph>
<glyph name="chilluM.mlm" format="2">
  <advance width="1010"/>
  <unicode hex="0D54"/>
  <outline>
    <contour>
      <point x="181" y="134" type="line"/>
      <point x="114" y="0" type="line"/>
      <point x="888" y="0" type="line"/>
      <point x="889" y="134" type="line"/>
    </contour>
    <contour>
      <point x="913" y="740" type="line" smooth="yes"/>
      <point x="913" y="1034"/>
      <point x="817" y="1105"/>
      <point x="817" y="1312" type="curve" smooth="yes"/>
      <point x="817" y="1378"/>
      <point x="826" y="1432"/>
      <point x="840" y="1488" type="curve"/>
      <point x="691" y="1488" type="line"/>
      <point x="676" y="1434"/>
      <point x="666" y="1381"/>
      <point x="666" y="1318" type="curve" smooth="yes"/>
      <point x="666" y="1250"/>
      <point x="680" y="1200"/>
      <point x="715" y="1145" type="curve"/>
      <point x="710" y="1139" type="line"/>
      <point x="661" y="1184"/>
      <point x="589" y="1208"/>
      <point x="489" y="1208" type="curve" smooth="yes"/>
      <point x="232" y="1208"/>
      <point x="97" y="1049"/>
      <point x="97" y="741" type="curve" smooth="yes"/>
      <point x="97" y="0" type="line"/>
      <point x="257" y="0" type="line"/>
      <point x="257" y="744" type="line" smooth="yes"/>
      <point x="257" y="962"/>
      <point x="331" y="1061"/>
      <point x="505" y="1061" type="curve" smooth="yes"/>
      <point x="674" y="1061"/>
      <point x="752" y="957"/>
      <point x="752" y="745" type="curve" smooth="yes"/>
      <point x="752" y="0" type="line"/>
      <point x="913" y="0" type="line"/>
    </contour>
    <contour>
      <point x="609" y="704" type="line" smooth="yes"/>
      <point x="609" y="908.584"/>
      <point x="531.301" y="1009"/>
      <point x="373" y="1009" type="curve" smooth="yes"/>
      <point x="343.294" y="1009"/>
      <point x="301.587" y="1000.2"/>
      <point x="272" y="987" type="curve"/>
      <point x="233" y="863" type="line"/>
      <point x="266.091" y="886.2"/>
      <point x="297.114" y="892"/>
      <point x="324" y="892" type="curve" smooth="yes"/>
      <point x="408.374" y="892"/>
      <point x="447" y="832.961"/>
      <point x="447" y="704" type="curve" smooth="yes"/>
      <point x="447" y="681" type="line" smooth="yes"/>
      <point x="447" y="456.776"/>
      <point x="392.66" y="278.183"/>
      <point x="293" y="130" type="curve"/>
      <point x="450" y="109" type="line"/>
      <point x="551.652" y="248.366"/>
      <point x="609" y="444.629"/>
      <point x="609" y="679" type="curve" smooth="yes"/>
    </contour>
  </outline>
</glyph>
<glyph name="chilluZh.mlm" format="2">
  <advance width="1166"/>
  <unicode hex="0D56"/>
  <outline>
    <contour>
      <point x="386" y="1123" type="curve" smooth="yes"/>
      <point x="386" y="903"/>
      <point x="358" y="641"/>
      <point x="333" y="436" type="curve" smooth="yes"/>
      <point x="330" y="413"/>
      <point x="326" y="399"/>
      <point x="322" y="376" type="curve" smooth="yes"/>
      <point x="313" y="323"/>
      <point x="306" y="274"/>
      <point x="306" y="227" type="curve" smooth="yes"/>
      <point x="306" y="56"/>
      <point x="391" y="-31"/>
      <point x="568" y="-31" type="curve" smooth="yes"/>
      <point x="746" y="-31"/>
      <point x="831" y="56"/>
      <point x="831" y="227" type="curve" smooth="yes"/>
      <point x="831" y="274"/>
      <point x="826" y="324"/>
      <point x="818" y="370" type="curve"/>
      <point x="810" y="432" type="line"/>
      <point x="791" y="551"/>
      <point x="764" y="677"/>
      <point x="764" y="848" type="curve" smooth="yes"/>
      <point x="764" y="925" type="line" smooth="yes"/>
      <point x="764" y="1014"/>
      <point x="793" y="1060"/>
      <point x="851" y="1060" type="curve" smooth="yes"/>
      <point x="911" y="1060"/>
      <point x="938" y="1014"/>
      <point x="938" y="925" type="curve" smooth="yes"/>
      <point x="938" y="751" type="line" smooth="yes"/>
      <point x="938" y="538"/>
      <point x="831" y="446"/>
      <point x="593" y="446" type="curve" smooth="yes"/>
      <point x="342" y="446"/>
      <point x="234" y="539"/>
      <point x="234" y="756" type="curve" smooth="yes"/>
      <point x="234" y="873" type="line" smooth="yes"/>
      <point x="234" y="1009"/>
      <point x="259" y="1115"/>
      <point x="302" y="1181" type="curve"/>
      <point x="144" y="1181" type="line"/>
      <point x="97" y="1113"/>
      <point x="73" y="1007"/>
      <point x="73" y="872" type="curve" smooth="yes"/>
      <point x="73" y="757" type="line" smooth="yes"/>
      <point x="73" y="461"/>
      <point x="250" y="307"/>
      <point x="588" y="307" type="curve" smooth="yes"/>
      <point x="920" y="307"/>
      <point x="1095" y="460"/>
      <point x="1095" y="752" type="curve" smooth="yes"/>
      <point x="1095" y="920" type="line" smooth="yes"/>
      <point x="1095" y="1107"/>
      <point x="1015" y="1208"/>
      <point x="851" y="1208" type="curve" smooth="yes"/>
      <point x="688" y="1208"/>
      <point x="609" y="1107"/>
      <point x="609" y="920" type="curve" smooth="yes"/>
      <point x="609" y="840" type="line" smooth="yes"/>
      <point x="609" y="671"/>
      <point x="641" y="532"/>
      <point x="661" y="409" type="curve"/>
      <point x="667" y="364" type="line"/>
      <point x="673" y="326"/>
      <point x="674" y="286"/>
      <point x="674" y="248" type="curve" smooth="yes"/>
      <point x="674" y="154"/>
      <point x="642" y="110"/>
      <point x="568" y="110" type="curve" smooth="yes"/>
      <point x="495" y="110"/>
      <point x="463" y="154"/>
      <point x="463" y="248" type="curve" smooth="yes"/>
      <point x="463" y="284"/>
      <point x="467" y="323"/>
      <point x="473" y="367" type="curve" smooth="yes"/>
      <point x="475" y="384"/>
      <point x="476" y="394"/>
      <point x="478" y="411" type="curve" smooth="yes"/>
      <point x="508" y="626"/>
      <point x="540" y="881"/>
      <point x="540" y="1118" type="curve" smooth="yes"/>
      <point x="540" y="1265"/>
      <point x="527" y="1374"/>
      <point x="501" y="1488" type="curve"/>
      <point x="348" y="1488" type="line"/>
      <point x="372" y="1374"/>
      <point x="386" y="1258"/>
    </contour>
  </outline>
</glyph>
<glyph name="onefortieth.mlm" format="2">
  <advance width="1600"/>
  <unicode hex="0D59"/>
  <outline>
    <contour>
      <point x="527" y="1056" type="curve" smooth="yes"/>
      <point x="704" y="1056"/>
      <point x="792" y="950"/>
      <point x="792" y="720" type="curve" smooth="yes"/>
      <point x="792" y="269" type="line" smooth="yes"/>
      <point x="792" y="174"/>
      <point x="762" y="128"/>
      <point x="699" y="128" type="curve" smooth="yes"/>
      <point x="636" y="128"/>
      <point x="606" y="174"/>
      <point x="606" y="269" type="curve" smooth="yes"/>
      <point x="606" y="490" type="line" smooth="yes"/>
      <point x="606" y="590"/>
      <point x="639" y="633"/>
      <point x="719" y="633" type="curve" smooth="yes"/>
      <point x="896" y="633" type="line"/>
      <point x="913" y="770" type="line"/>
      <point x="693" y="770" type="line" smooth="yes"/>
      <point x="525" y="770"/>
      <point x="443" y="681"/>
      <point x="443" y="491" type="curve" smooth="yes"/>
      <point x="443" y="274" type="line" smooth="yes"/>
      <point x="443" y="82"/>
      <point x="528" y="-18"/>
      <point x="697" y="-18" type="curve" smooth="yes"/>
      <point x="867" y="-18"/>
      <point x="954" y="82"/>
      <point x="954" y="274" type="curve" smooth="yes"/>
      <point x="954" y="712" type="line" smooth="yes"/>
      <point x="954" y="1039"/>
      <point x="812" y="1208"/>
      <point x="523" y="1208" type="curve" smooth="yes"/>
      <point x="228" y="1208"/>
      <point x="88" y="1039"/>
      <point x="88" y="711" type="curve" smooth="yes"/>
      <point x="88" y="395" type="line" smooth="yes"/>
      <point x="88" y="225"/>
      <point x="112" y="84"/>
      <point x="163" y="0" type="curve"/>
      <point x="335" y="0" type="line"/>
      <point x="285" y="85"/>
      <point x="256" y="221"/>
      <point x="256" y="393" type="curve" smooth="yes"/>
      <point x="256" y="711" type="line" smooth="yes"/>
      <point x="256" y="945"/>
      <point x="341" y="1056"/>
    </contour>
    <contour>
      <point x="1225" y="750" type="line"/>
      <point x="1225" y="942" type="line" smooth="yes"/>
      <point x="1225" y="1023"/>
      <point x="1252" y="1061"/>
      <point x="1310" y="1061" type="curve" smooth="yes"/>
      <point x="1369" y="1061"/>
      <point x="1395" y="1023"/>
      <point x="1395" y="942" type="curve" smooth="yes"/>
      <point x="1395" y="883" type="line" smooth="yes"/>
      <point x="1395" y="804"/>
      <point x="1366" y="770"/>
      <point x="1294" y="770" type="curve" smooth="yes"/>
      <point x="907" y="770" type="line"/>
      <point x="915" y="633" type="line"/>
      <point x="1300" y="633" type="line" smooth="yes"/>
      <point x="1471" y="633"/>
      <point x="1552" y="713"/>
      <point x="1552" y="882" type="curve" smooth="yes"/>
      <point x="1552" y="932" type="line" smooth="yes"/>
      <point x="1552" y="1111"/>
      <point x="1474" y="1203"/>
      <point x="1311" y="1203" type="curve" smooth="yes"/>
      <point x="1152" y="1203"/>
      <point x="1073" y="1115"/>
      <point x="1073" y="944" type="curve" smooth="yes"/>
      <point x="1073" y="755" type="line"/>
    </contour>
  </outline>
</glyph>
<glyph name="onetwentieth.mlm" format="2">
  <advance width="1169"/>
  <unicode hex="0D5B"/>
  <outline>
    <contour>
      <point x="265" y="0" type="line"/>
      <point x="265" y="1182" type="line"/>
      <point x="97" y="1182" type="line"/>
      <point x="97" y="0" type="line"/>
    </contour>
    <contour>
      <point x="562" y="1046" type="line"/>
      <point x="704" y="1182" type="line"/>
      <point x="121" y="1182" type="line"/>
      <point x="121" y="1046" type="line"/>
    </contour>
    <contour>
      <point x="778" y="128" type="curve" smooth="yes"/>
      <point x="685" y="128"/>
      <point x="643" y="193"/>
      <point x="643" y="329" type="curve" smooth="yes"/>
      <point x="643" y="793" type="line" smooth="yes"/>
      <point x="643" y="958"/>
      <point x="664" y="1088"/>
      <point x="705" y="1172" type="curve"/>
      <point x="705" y="1182" type="line"/>
      <point x="559" y="1182" type="line"/>
      <point x="501" y="1100"/>
      <point x="475" y="965"/>
      <point x="475" y="792" type="curve" smooth="yes"/>
      <point x="475" y="331" type="line" smooth="yes"/>
      <point x="475" y="95"/>
      <point x="574" y="-27"/>
      <point x="778" y="-27" type="curve" smooth="yes"/>
      <point x="981" y="-27"/>
      <point x="1080" y="95"/>
      <point x="1080" y="331" type="curve" smooth="yes"/>
      <point x="1080" y="801" type="line" smooth="yes"/>
      <point x="1080" y="967"/>
      <point x="1062" y="1102"/>
      <point x="1019" y="1182" type="curve"/>
      <point x="851" y="1182" type="line"/>
      <point x="890" y="1099"/>
      <point x="912" y="963"/>
      <point x="912" y="793" type="curve" smooth="yes"/>
      <point x="912" y="329" type="line" smooth="yes"/>
      <point x="912" y="193"/>
      <point x="870" y="128"/>
    </contour>
  </outline>
</glyph>
<glyph name="onetenth.mlm" format="2">
  <advance width="1908"/>
  <unicode hex="0D5C"/>
  <outline>
    <contour>
      <point x="1242" y="310" type="curve" smooth="yes"/>
      <point x="1242" y="89"/>
      <point x="1336" y="-21"/>
      <point x="1530" y="-21" type="curve" smooth="yes"/>
      <point x="1724" y="-21"/>
      <point x="1819" y="89"/>
      <point x="1819" y="310" type="curve" smooth="yes"/>
      <point x="1819" y="784" type="line" smooth="yes"/>
      <point x="1819" y="956"/>
      <point x="1795" y="1091"/>
      <point x="1741" y="1181" type="curve"/>
      <point x="1573" y="1181" type="line"/>
      <point x="1622" y="1097"/>
      <point x="1651" y="959"/>
      <point x="1651" y="786" type="curve" smooth="yes"/>
      <point x="1651" y="308" type="line" smooth="yes"/>
      <point x="1651" y="189"/>
      <point x="1616" y="134"/>
      <point x="1532" y="134" type="curve" smooth="yes"/>
      <point x="1448" y="134"/>
      <point x="1410" y="189"/>
      <point x="1410" y="308" type="curve" smooth="yes"/>
      <point x="1410" y="486"/>
      <point x="1434" y="700"/>
      <point x="1434" y="878" type="curve" smooth="yes"/>
      <point x="1434" y="1099"/>
      <point x="1340" y="1208"/>
      <point x="1146" y="1208" type="curve" smooth="yes"/>
      <point x="953" y="1208"/>
      <point x="858" y="1099"/>
      <point x="858" y="878" type="curve" smooth="yes"/>
      <point x="858" y="700"/>
      <point x="882" y="486"/>
      <point x="882" y="308" type="curve" smooth="yes"/>
      <point x="882" y="189"/>
      <point x="846" y="134"/>
      <point x="763" y="134" type="curve" smooth="yes"/>
      <point x="680" y="134"/>
      <point x="643" y="189"/>
      <point x="643" y="308" type="curve" smooth="yes"/>
      <point x="643" y="486"/>
      <point x="667" y="700"/>
      <point x="667" y="878" type="curve" smooth="yes"/>
      <point x="667" y="1099"/>
      <point x="573" y="1208"/>
      <point x="380" y="1208" type="curve" smooth="yes"/>
      <point x="185" y="1208"/>
      <point x="89" y="1099"/>
      <point x="89" y="878" type="curve" smooth="yes"/>
      <point x="89" y="395" type="line" smooth="yes"/>
      <point x="89" y="225"/>
      <point x="112" y="84"/>
      <point x="161" y="0" type="curve"/>
      <point x="333" y="0" type="line"/>
      <point x="284" y="85"/>
      <point x="257" y="221"/>
      <point x="257" y="393" type="curve" smooth="yes"/>
      <point x="257" y="880" type="line" smooth="yes"/>
      <point x="257" y="1000"/>
      <point x="296" y="1054"/>
      <point x="379" y="1054" type="curve" smooth="yes"/>
      <point x="462" y="1054"/>
      <point x="498" y="1000"/>
      <point x="498" y="880" type="curve" smooth="yes"/>
      <point x="498" y="703"/>
      <point x="475" y="489"/>
      <point x="475" y="310" type="curve" smooth="yes"/>
      <point x="475" y="89"/>
      <point x="570" y="-21"/>
      <point x="763" y="-21" type="curve" smooth="yes"/>
      <point x="956" y="-21"/>
      <point x="1050" y="89"/>
      <point x="1050" y="310" type="curve" smooth="yes"/>
      <point x="1050" y="489"/>
      <point x="1027" y="703"/>
      <point x="1027" y="880" type="curve" smooth="yes"/>
      <point x="1027" y="1000"/>
      <point x="1064" y="1054"/>
      <point x="1146" y="1054" type="curve" smooth="yes"/>
      <point x="1229" y="1054"/>
      <point x="1266" y="1000"/>
      <point x="1266" y="880" type="curve" smooth="yes"/>
      <point x="1266" y="703"/>
      <point x="1242" y="489"/>
    </contour>
  </outline>
</glyph>
<glyph name="archaicIi.mlm" format="2">
  <advance width="2128"/>
  <unicode hex="0D5F"/>
  <outline>
    <component base="Ra.mlm" xOffset="543" yOffset="1"/>
    <contour>
      <point x="357" y="584" type="curve" smooth="yes"/>
      <point x="357" y="463" type="line" smooth="yes"/>
      <point x="357" y="388"/>
      <point x="333" y="350"/>
      <point x="280" y="350" type="curve" smooth="yes"/>
      <point x="229" y="350"/>
      <point x="203" y="388"/>
      <point x="203" y="463" type="curve" smooth="yes"/>
      <point x="203" y="584" type="line" smooth="yes"/>
      <point x="203" y="660"/>
      <point x="229" y="699"/>
      <point x="280" y="699" type="curve" smooth="yes"/>
      <point x="333" y="699"/>
      <point x="357" y="660"/>
    </contour>
    <contour>
      <point x="280" y="833" type="curve" smooth="yes"/>
      <point x="128" y="833"/>
      <point x="52" y="747"/>
      <point x="52" y="587" type="curve" smooth="yes"/>
      <point x="52" y="460" type="line" smooth="yes"/>
      <point x="52" y="300"/>
      <point x="128" y="215"/>
      <point x="280" y="215" type="curve" smooth="yes"/>
      <point x="433" y="215"/>
      <point x="508" y="300"/>
      <point x="508" y="460" type="curve" smooth="yes"/>
      <point x="508" y="587" type="line" smooth="yes"/>
      <point x="508" y="747"/>
      <point x="433" y="833"/>
    </contour>
    <contour>
      <point x="1926" y="584" type="curve" smooth="yes"/>
      <point x="1926" y="463" type="line" smooth="yes"/>
      <point x="1926" y="388"/>
      <point x="1902" y="350"/>
      <point x="1849" y="350" type="curve" smooth="yes"/>
      <point x="1797" y="350"/>
      <point x="1772" y="388"/>
      <point x="1772" y="463" type="curve" smooth="yes"/>
      <point x="1772" y="584" type="line" smooth="yes"/>
      <point x="1772" y="660"/>
      <point x="1797" y="699"/>
      <point x="1849" y="699" type="curve" smooth="yes"/>
      <point x="1902" y="699"/>
      <point x="1926" y="660"/>
    </contour>
    <contour>
      <point x="1621" y="587" type="curve" smooth="yes"/>
      <point x="1621" y="460" type="line" smooth="yes"/>
      <point x="1621" y="300"/>
      <point x="1696" y="215"/>
      <point x="1849" y="215" type="curve" smooth="yes"/>
      <point x="2002" y="215"/>
      <point x="2077" y="300"/>
      <point x="2077" y="460" type="curve" smooth="yes"/>
      <point x="2077" y="587" type="line" smooth="yes"/>
      <point x="2077" y="747"/>
      <point x="2002" y="833"/>
      <point x="1849" y="833" type="curve" smooth="yes"/>
      <point x="1696" y="833"/>
      <point x="1621" y="747"/>
    </contour>
  </outline>
</glyph>
<glyph name="zero.mlm" format="2">
  <advance width="746"/>
  <unicode hex="0D66"/>
  <outline>
    <contour>
      <point x="373" y="180" type="curve" smooth="yes"/>
      <point x="288" y="180"/>
      <point x="248" y="241"/>
      <point x="248" y="366" type="curve" smooth="yes"/>
      <point x="248" y="823" type="line" smooth="yes"/>
      <point x="248" y="948"/>
      <point x="287" y="1011"/>
      <point x="373" y="1011" type="curve" smooth="yes"/>
      <point x="459" y="1011"/>
      <point x="498" y="948"/>
      <point x="498" y="823" type="curve" smooth="yes"/>
      <point x="498" y="366" type="line" smooth="yes"/>
      <point x="498" y="241"/>
      <point x="459" y="180"/>
    </contour>
    <contour>
      <point x="373" y="25" type="curve" smooth="yes"/>
      <point x="568" y="25"/>
      <point x="666" y="143"/>
      <point x="666" y="368" type="curve" smooth="yes"/>
      <point x="666" y="821" type="line" smooth="yes"/>
      <point x="666" y="1046"/>
      <point x="568" y="1165"/>
      <point x="373" y="1165" type="curve" smooth="yes"/>
      <point x="177" y="1165"/>
      <point x="80" y="1046"/>
      <point x="80" y="821" type="curve" smooth="yes"/>
      <point x="80" y="368" type="line" smooth="yes"/>
      <point x="80" y="143"/>
      <point x="178" y="25"/>
    </contour>
  </outline>
</glyph>
<glyph name="one.mlm" format="2">
  <advance width="1014"/>
  <unicode hex="0D67"/>
  <outline>
    <contour>
      <point x="435" y="136" type="line"/>
      <point x="375" y="0" type="line"/>
      <point x="917" y="0" type="line"/>
      <point x="917" y="875" type="line" smooth="yes"/>
      <point x="917" y="1097"/>
      <point x="825" y="1208"/>
      <point x="629" y="1208" type="curve" smooth="yes"/>
      <point x="434" y="1208"/>
      <point x="338" y="1096"/>
      <point x="338" y="875" type="curve" smooth="yes"/>
      <point x="338" y="0" type="line"/>
      <point x="506" y="0" type="line"/>
      <point x="506" y="877" type="line" smooth="yes"/>
      <point x="506" y="995"/>
      <point x="544" y="1054"/>
      <point x="628" y="1054" type="curve" smooth="yes"/>
      <point x="713" y="1054"/>
      <point x="749" y="995"/>
      <point x="749" y="877" type="curve" smooth="yes"/>
      <point x="749" y="136" type="line"/>
    </contour>
    <contour>
      <point x="407" y="136" type="line"/>
      <point x="219" y="136" type="line" smooth="yes"/>
      <point x="60" y="136"/>
      <point x="-20" y="62"/>
      <point x="-20" y="-83" type="curve" smooth="yes"/>
      <point x="-20" y="-228"/>
      <point x="60" y="-304"/>
      <point x="219" y="-304" type="curve" smooth="yes"/>
      <point x="430" y="-304" type="line"/>
      <point x="449" y="-170" type="line"/>
      <point x="239" y="-170" type="line" smooth="yes"/>
      <point x="176" y="-170"/>
      <point x="145" y="-140"/>
      <point x="145" y="-84" type="curve" smooth="yes"/>
      <point x="145" y="-29"/>
      <point x="176" y="0"/>
      <point x="239" y="0" type="curve" smooth="yes"/>
      <point x="426" y="0" type="line"/>
    </contour>
  </outline>
</glyph>
<glyph name="two.mlm" format="2">
  <advance width="956"/>
  <unicode hex="0D68"/>
  <outline>
    <contour>
      <point x="619" y="136" type="line"/>
      <point x="491" y="0" type="line"/>
      <point x="934" y="0" type="line"/>
      <point x="951" y="136" type="line"/>
    </contour>
    <contour>
      <point x="399" y="1054" type="curve" smooth="yes"/>
      <point x="498" y="1054"/>
      <point x="542" y="988"/>
      <point x="542" y="848" type="curve" smooth="yes"/>
      <point x="542" y="389" type="line" smooth="yes"/>
      <point x="542" y="224"/>
      <point x="520" y="94"/>
      <point x="479" y="10" type="curve"/>
      <point x="479" y="0" type="line"/>
      <point x="627" y="0" type="line"/>
      <point x="685" y="83"/>
      <point x="710" y="217"/>
      <point x="710" y="391" type="curve" smooth="yes"/>
      <point x="710" y="846" type="line" smooth="yes"/>
      <point x="710" y="1086"/>
      <point x="609" y="1208"/>
      <point x="399" y="1208" type="curve" smooth="yes"/>
      <point x="191" y="1208"/>
      <point x="89" y="1086"/>
      <point x="89" y="846" type="curve" smooth="yes"/>
      <point x="89" y="381" type="line" smooth="yes"/>
      <point x="89" y="216"/>
      <point x="109" y="80"/>
      <point x="149" y="0" type="curve"/>
      <point x="319" y="0" type="line"/>
      <point x="281" y="83"/>
      <point x="257" y="219"/>
      <point x="257" y="389" type="curve" smooth="yes"/>
      <point x="257" y="848" type="line" smooth="yes"/>
      <point x="257" y="988"/>
      <point x="300" y="1054"/>
    </contour>
  </outline>
</glyph>
<glyph name="three.mlm" format="2">
  <advance width="1346"/>
  <unicode hex="0D69"/>
  <outline>
    <contour>
      <point x="512" y="771" type="line"/>
      <point x="512" y="3" type="line"/>
      <point x="680" y="3" type="line"/>
      <point x="680" y="771" type="line"/>
    </contour>
    <contour>
      <point x="89" y="862" type="curve" smooth="yes"/>
      <point x="89" y="395" type="line" smooth="yes"/>
      <point x="89" y="225"/>
      <point x="112" y="84"/>
      <point x="162" y="0" type="curve"/>
      <point x="332" y="0" type="line"/>
      <point x="284" y="85"/>
      <point x="257" y="221"/>
      <point x="257" y="393" type="curve" smooth="yes"/>
      <point x="257" y="863" type="line" smooth="yes"/>
      <point x="257" y="988"/>
      <point x="296" y="1048"/>
      <point x="384" y="1048" type="curve" smooth="yes"/>
      <point x="473" y="1048"/>
      <point x="512" y="988"/>
      <point x="512" y="863" type="curve" smooth="yes"/>
      <point x="512" y="645" type="line"/>
      <point x="601" y="645" type="line"/>
      <point x="594" y="1005" type="line"/>
      <point x="575" y="1138"/>
      <point x="498" y="1208"/>
      <point x="355" y="1208" type="curve" smooth="yes"/>
      <point x="173" y="1208"/>
      <point x="89" y="1093"/>
    </contour>
    <contour>
      <point x="1103" y="862" type="line" smooth="yes"/>
      <point x="1103" y="1093"/>
      <point x="1021" y="1208"/>
      <point x="837" y="1208" type="curve" smooth="yes"/>
      <point x="696" y="1208"/>
      <point x="618" y="1138"/>
      <point x="599" y="1005" type="curve"/>
      <point x="540" y="1005" type="line"/>
      <point x="533" y="683" type="line"/>
      <point x="680" y="645" type="line"/>
      <point x="680" y="863" type="line" smooth="yes"/>
      <point x="680" y="988"/>
      <point x="720" y="1048"/>
      <point x="808" y="1048" type="curve" smooth="yes"/>
      <point x="897" y="1048"/>
      <point x="935" y="988"/>
      <point x="935" y="863" type="curve" smooth="yes"/>
      <point x="935" y="393" type="line" smooth="yes"/>
      <point x="935" y="227"/>
      <point x="909" y="94"/>
      <point x="863" y="10" type="curve"/>
      <point x="863" y="0" type="line"/>
      <point x="1013" y="0" type="line"/>
      <point x="1070" y="86"/>
      <point x="1103" y="221"/>
      <point x="1103" y="397" type="curve" smooth="yes"/>
    </contour>
    <contour>
      <point x="1011" y="136" type="line"/>
      <point x="874" y="0" type="line"/>
      <point x="1324" y="0" type="line"/>
      <point x="1341" y="136" type="line"/>
    </contour>
  </outline>
</glyph>
<glyph name="seven.mlm" format="2">
  <advance width="1044"/>
  <unicode hex="0D6D"/>
  <outline>
    <contour>
      <point x="242" y="633" type="curve"/>
      <point x="247" y="576" type="line"/>
      <point x="267" y="634"/>
      <point x="299" y="663"/>
      <point x="349" y="663" type="curve" smooth="yes"/>
      <point x="409" y="663"/>
      <point x="437" y="622"/>
      <point x="437" y="535" type="curve" smooth="yes"/>
      <point x="437" y="271" type="line" smooth="yes"/>
      <point x="437" y="174"/>
      <point x="408" y="129"/>
      <point x="344" y="129" type="curve" smooth="yes"/>
      <point x="280" y="129"/>
      <point x="249" y="174"/>
      <point x="249" y="271" type="curve" smooth="yes"/>
      <point x="249" y="597" type="line"/>
      <point x="262" y="681" type="line"/>
      <point x="246" y="681" type="line"/>
      <point x="246" y="708" type="line" smooth="yes"/>
      <point x="246" y="944"/>
      <point x="330" y="1056"/>
      <point x="515" y="1056" type="curve" smooth="yes"/>
      <point x="703" y="1056"/>
      <point x="788" y="945"/>
      <point x="788" y="711" type="curve" smooth="yes"/>
      <point x="788" y="204" type="line" smooth="yes"/>
      <point x="788" y="-37"/>
      <point x="712" y="-157"/>
      <point x="506" y="-157" type="curve" smooth="yes"/>
      <point x="430" y="-157"/>
      <point x="365" y="-148"/>
      <point x="305" y="-130" type="curve"/>
      <point x="335" y="-270" type="line"/>
      <point x="393" y="-289"/>
      <point x="455" y="-297"/>
      <point x="522" y="-297" type="curve" smooth="yes"/>
      <point x="828" y="-297"/>
      <point x="956" y="-126"/>
      <point x="956" y="213" type="curve" smooth="yes"/>
      <point x="956" y="711" type="line" smooth="yes"/>
      <point x="956" y="1039"/>
      <point x="814" y="1208"/>
      <point x="520" y="1208" type="curve" smooth="yes"/>
      <point x="226" y="1208"/>
      <point x="86" y="1039"/>
      <point x="86" y="711" type="curve" smooth="yes"/>
      <point x="86" y="276" type="line" smooth="yes"/>
      <point x="86" y="82"/>
      <point x="171" y="-18"/>
      <point x="344" y="-18" type="curve" smooth="yes"/>
      <point x="516" y="-18"/>
      <point x="601" y="82"/>
      <point x="601" y="276" type="curve" smooth="yes"/>
      <point x="601" y="559" type="line" smooth="yes"/>
      <point x="601" y="730"/>
      <point x="540" y="813"/>
      <point x="421" y="813" type="curve" smooth="yes"/>
      <point x="318" y="813"/>
      <point x="259" y="748"/>
    </contour>
  </outline>
</glyph>
<glyph name="ten.mlm" format="2">
  <advance width="1207"/>
  <unicode hex="0D70"/>
  <outline>
    <contour>
      <point x="435" y="-20" type="curve" smooth="yes"/>
      <point x="539" y="-20"/>
      <point x="603" y="48"/>
      <point x="616" y="177" type="curve"/>
      <point x="674" y="177" type="line"/>
      <point x="681" y="499" type="line"/>
      <point x="534" y="537" type="line"/>
      <point x="534" y="320" type="line" smooth="yes"/>
      <point x="534" y="199"/>
      <point x="496" y="141"/>
      <point x="416" y="141" type="curve" smooth="yes"/>
      <point x="336" y="141"/>
      <point x="299" y="199"/>
      <point x="299" y="320" type="curve" smooth="yes"/>
      <point x="299" y="537" type="line"/>
      <point x="151" y="499" type="line"/>
      <point x="161" y="107" type="line"/>
      <point x="274" y="107" type="line"/>
      <point x="294" y="24"/>
      <point x="351" y="-20"/>
    </contour>
    <contour>
      <point x="702" y="414" type="line"/>
      <point x="702" y="1176" type="line"/>
      <point x="534" y="1176" type="line"/>
      <point x="534" y="414" type="line"/>
    </contour>
    <contour>
      <point x="131" y="52" type="line" smooth="yes"/>
      <point x="131" y="-64"/>
      <point x="83" y="-121"/>
      <point x="-14" y="-121" type="curve" smooth="yes"/>
      <point x="-58" y="-121"/>
      <point x="-103" y="-115"/>
      <point x="-145" y="-104" type="curve"/>
      <point x="-114" y="-244" type="line"/>
      <point x="-74" y="-256"/>
      <point x="-34" y="-262"/>
      <point x="7" y="-262" type="curve" smooth="yes"/>
      <point x="180" y="-262"/>
      <point x="269" y="-157"/>
      <point x="269" y="38" type="curve" smooth="yes"/>
      <point x="269" y="136" type="line"/>
      <point x="299" y="169" type="line"/>
      <point x="299" y="1182" type="line"/>
      <point x="131" y="1182" type="line"/>
    </contour>
    <contour>
      <point x="621" y="177" type="line"/>
      <point x="637" y="47"/>
      <point x="719" y="-20"/>
      <point x="855" y="-20" type="curve" smooth="yes"/>
      <point x="1038" y="-20"/>
      <point x="1118" y="92"/>
      <point x="1118" y="323" type="curve" smooth="yes"/>
      <point x="1118" y="783" type="line" smooth="yes"/>
      <point x="1118" y="955"/>
      <point x="1091" y="1090"/>
      <point x="1039" y="1180" type="curve"/>
      <point x="872" y="1180" type="line"/>
      <point x="921" y="1096"/>
      <point x="950" y="958"/>
      <point x="950" y="785" type="curve" smooth="yes"/>
      <point x="950" y="322" type="line" smooth="yes"/>
      <point x="950" y="198"/>
      <point x="914" y="141"/>
      <point x="826" y="141" type="curve" smooth="yes"/>
      <point x="741" y="141"/>
      <point x="702" y="198"/>
      <point x="702" y="322" type="curve" smooth="yes"/>
      <point x="702" y="535" type="line"/>
      <point x="613" y="535" type="line"/>
    </contour>
  </outline>
</glyph>
<glyph name="onequarter.mlm" format="2">
  <advance width="815"/>
  <unicode hex="0D73"/>
  <outline>
    <contour>
      <point x="247" y="565" type="line"/>
      <point x="267" y="623"/>
      <point x="299" y="652"/>
      <point x="349" y="652" type="curve" smooth="yes"/>
      <point x="409" y="652"/>
      <point x="437" y="611"/>
      <point x="437" y="524" type="curve" smooth="yes"/>
      <point x="437" y="271" type="line" smooth="yes"/>
      <point x="437" y="174"/>
      <point x="408" y="129"/>
      <point x="344" y="129" type="curve" smooth="yes"/>
      <point x="280" y="129"/>
      <point x="249" y="174"/>
      <point x="249" y="271" type="curve" smooth="yes"/>
      <point x="249" y="586" type="line"/>
      <point x="262" y="670" type="line"/>
      <point x="246" y="670" type="line"/>
      <point x="246" y="677" type="line" smooth="yes"/>
      <point x="246" y="909"/>
      <point x="338" y="1019"/>
      <point x="537" y="1019" type="curve" smooth="yes"/>
      <point x="783" y="1019" type="line"/>
      <point x="766" y="1157" type="line"/>
      <point x="533" y="1157" type="line" smooth="yes"/>
      <point x="231" y="1157"/>
      <point x="86" y="996"/>
      <point x="86" y="684" type="curve" smooth="yes"/>
      <point x="86" y="276" type="line" smooth="yes"/>
      <point x="86" y="82"/>
      <point x="171" y="-18"/>
      <point x="344" y="-18" type="curve" smooth="yes"/>
      <point x="516" y="-18"/>
      <point x="601" y="82"/>
      <point x="601" y="276" type="curve" smooth="yes"/>
      <point x="601" y="548" type="line" smooth="yes"/>
      <point x="601" y="719"/>
      <point x="540" y="802"/>
      <point x="421" y="802" type="curve" smooth="yes"/>
      <point x="318" y="802"/>
      <point x="259" y="737"/>
      <point x="242" y="622" type="curve"/>
    </contour>
  </outline>
</glyph>
<glyph name="threequarters.mlm" format="2">
  <advance width="1717"/>
  <unicode hex="0D75"/>
  <outline>
    <contour>
      <point x="502" y="1208" type="curve" smooth="yes"/>
      <point x="222" y="1208"/>
      <point x="86" y="1045"/>
      <point x="86" y="730" type="curve" smooth="yes"/>
      <point x="86" y="276" type="line" smooth="yes"/>
      <point x="86" y="82"/>
      <point x="172" y="-18"/>
      <point x="344" y="-18" type="curve" smooth="yes"/>
      <point x="516" y="-18"/>
      <point x="601" y="82"/>
      <point x="601" y="276" type="curve" smooth="yes"/>
      <point x="601" y="559" type="line" smooth="yes"/>
      <point x="601" y="730"/>
      <point x="541" y="813"/>
      <point x="421" y="813" type="curve" smooth="yes"/>
      <point x="318" y="813"/>
      <point x="260" y="748"/>
      <point x="243" y="633" type="curve"/>
      <point x="248" y="576" type="line"/>
      <point x="267" y="634"/>
      <point x="299" y="663"/>
      <point x="349" y="663" type="curve" smooth="yes"/>
      <point x="409" y="663"/>
      <point x="437" y="622"/>
      <point x="437" y="535" type="curve" smooth="yes"/>
      <point x="437" y="271" type="line" smooth="yes"/>
      <point x="437" y="174"/>
      <point x="409" y="129"/>
      <point x="344" y="129" type="curve" smooth="yes"/>
      <point x="280" y="129"/>
      <point x="249" y="174"/>
      <point x="249" y="271" type="curve" smooth="yes"/>
      <point x="249" y="597" type="line"/>
      <point x="260" y="681" type="line"/>
      <point x="247" y="681" type="line"/>
      <point x="247" y="726" type="line" smooth="yes"/>
      <point x="247" y="951"/>
      <point x="331" y="1056"/>
      <point x="512" y="1056" type="curve" smooth="yes"/>
      <point x="682" y="1056"/>
      <point x="764" y="972"/>
      <point x="764" y="797" type="curve" smooth="yes"/>
      <point x="764" y="635" type="line"/>
      <point x="843" y="635" type="line"/>
      <point x="846" y="972" type="line"/>
      <point x="817" y="1127"/>
      <point x="701" y="1208"/>
    </contour>
    <contour>
      <point x="764" y="3" type="line"/>
      <point x="932" y="3" type="line"/>
      <point x="932" y="771" type="line"/>
      <point x="764" y="738" type="line"/>
    </contour>
    <contour>
      <point x="1174" y="1064" type="curve" smooth="yes"/>
      <point x="1219" y="1064"/>
      <point x="1258" y="1059"/>
      <point x="1292" y="1047" type="curve" smooth="yes"/>
      <point x="1322" y="1036" type="line"/>
      <point x="1426" y="991"/>
      <point x="1466" y="880"/>
      <point x="1466" y="708" type="curve" smooth="yes"/>
      <point x="1466" y="269" type="line" smooth="yes"/>
      <point x="1466" y="174"/>
      <point x="1437" y="128"/>
      <point x="1371" y="128" type="curve" smooth="yes"/>
      <point x="1305" y="128"/>
      <point x="1274" y="174"/>
      <point x="1274" y="269" type="curve" smooth="yes"/>
      <point x="1274" y="648" type="line" smooth="yes"/>
      <point x="1274" y="822"/>
      <point x="1297" y="931"/>
      <point x="1349" y="1048" type="curve"/>
      <point x="1353" y="1063"/>
      <point x="1367" y="1122"/>
      <point x="1370" y="1137" type="curve"/>
      <point x="1388" y="1186"/>
      <point x="1396" y="1234"/>
      <point x="1396" y="1289" type="curve" smooth="yes"/>
      <point x="1396" y="1373"/>
      <point x="1379" y="1435"/>
      <point x="1349" y="1499" type="curve"/>
      <point x="1198" y="1499" type="line"/>
      <point x="1230" y="1432"/>
      <point x="1246" y="1361"/>
      <point x="1246" y="1284" type="curve" smooth="yes"/>
      <point x="1246" y="1238"/>
      <point x="1240" y="1201"/>
      <point x="1228" y="1162" type="curve"/>
      <point x="1225" y="1150"/>
      <point x="1217" y="1107"/>
      <point x="1211" y="1092" type="curve"/>
      <point x="1142" y="966"/>
      <point x="1109" y="860"/>
      <point x="1109" y="648" type="curve" smooth="yes"/>
      <point x="1109" y="275" type="line" smooth="yes"/>
      <point x="1109" y="81"/>
      <point x="1193" y="-19"/>
      <point x="1369" y="-19" type="curve" smooth="yes"/>
      <point x="1546" y="-19"/>
      <point x="1632" y="81"/>
      <point x="1632" y="275" type="curve" smooth="yes"/>
      <point x="1632" y="708" type="line" smooth="yes"/>
      <point x="1632" y="947"/>
      <point x="1564" y="1114"/>
      <point x="1363" y="1181" type="curve"/>
      <point x="1322" y="1192" type="line" smooth="yes"/>
      <point x="1280" y="1203"/>
      <point x="1244" y="1208"/>
      <point x="1193" y="1208" type="curve" smooth="yes"/>
      <point x="992" y="1208"/>
      <point x="879" y="1126"/>
      <point x="850" y="972" type="curve"/>
      <point x="814" y="972" type="line"/>
      <point x="820" y="633" type="line"/>
      <point x="932" y="633" type="line"/>
      <point x="932" y="788" type="line" smooth="yes"/>
      <point x="932" y="966"/>
      <point x="1014" y="1064"/>
    </contour>
  </outline>
</glyph>
<glyph name="onesixteenth.mlm" format="2">
  <advance width="1732"/>
  <unicode hex="0D76"/>
  <outline>
    <contour>
      <point x="480" y="136" type="line"/>
      <point x="470" y="0" type="line"/>
      <point x="890" y="0" type="line"/>
      <point x="890" y="136" type="line"/>
    </contour>
    <contour>
      <point x="354" y="799" type="curve" smooth="yes"/>
      <point x="167" y="799"/>
      <point x="77" y="690"/>
      <point x="77" y="482" type="curve" smooth="yes"/>
      <point x="77" y="283" type="line" smooth="yes"/>
      <point x="77" y="160"/>
      <point x="91" y="65"/>
      <point x="119" y="0" type="curve"/>
      <point x="285" y="0" type="line"/>
      <point x="259" y="63"/>
      <point x="243" y="157"/>
      <point x="243" y="281" type="curve" smooth="yes"/>
      <point x="243" y="483" type="line" smooth="yes"/>
      <point x="243" y="591"/>
      <point x="278" y="647"/>
      <point x="353" y="647" type="curve" smooth="yes"/>
      <point x="429" y="647"/>
      <point x="465" y="591"/>
      <point x="465" y="483" type="curve" smooth="yes"/>
      <point x="465" y="281" type="line" smooth="yes"/>
      <point x="465" y="163"/>
      <point x="448" y="72"/>
      <point x="417" y="10" type="curve"/>
      <point x="417" y="0" type="line"/>
      <point x="547" y="0" type="line"/>
      <point x="604" y="67"/>
      <point x="631" y="165"/>
      <point x="631" y="290" type="curve" smooth="yes"/>
      <point x="631" y="482" type="line" smooth="yes"/>
      <point x="631" y="690"/>
      <point x="541" y="799"/>
    </contour>
    <contour>
      <point x="903" y="134" type="line"/>
      <point x="836" y="0" type="line"/>
      <point x="1610" y="0" type="line"/>
      <point x="1611" y="134" type="line"/>
    </contour>
    <contour>
      <point x="1227" y="1061" type="curve" smooth="yes"/>
      <point x="1396" y="1061"/>
      <point x="1474" y="957"/>
      <point x="1474" y="745" type="curve" smooth="yes"/>
      <point x="1474" y="0" type="line"/>
      <point x="1635" y="0" type="line"/>
      <point x="1635" y="740" type="line" smooth="yes"/>
      <point x="1635" y="1049"/>
      <point x="1504" y="1208"/>
      <point x="1227" y="1208" type="curve" smooth="yes"/>
      <point x="950" y="1208"/>
      <point x="819" y="1049"/>
      <point x="819" y="741" type="curve" smooth="yes"/>
      <point x="819" y="0" type="line"/>
      <point x="979" y="0" type="line"/>
      <point x="979" y="745" type="line" smooth="yes"/>
      <point x="979" y="962"/>
      <point x="1052" y="1061"/>
    </contour>
    <contour>
      <point x="1331.18" y="704" type="line" smooth="yes"/>
      <point x="1331.18" y="908.584"/>
      <point x="1253.48" y="1009"/>
      <point x="1095.18" y="1009" type="curve" smooth="yes"/>
      <point x="1065.47" y="1009"/>
      <point x="1023.77" y="1000.2"/>
      <point x="994.181" y="987" type="curve"/>
      <point x="955.181" y="863" type="line"/>
      <point x="988.272" y="886.2"/>
      <point x="1019.29" y="892"/>
      <point x="1046.18" y="892" type="curve" smooth="yes"/>
      <point x="1130.55" y="892"/>
      <point x="1169.18" y="832.961"/>
      <point x="1169.18" y="704" type="curve" smooth="yes"/>
      <point x="1169.18" y="681" type="line" smooth="yes"/>
      <point x="1169.18" y="456.776"/>
      <point x="1114.84" y="278.183"/>
      <point x="1015.18" y="130" type="curve"/>
      <point x="1172.18" y="109" type="line"/>
      <point x="1273.83" y="248.366"/>
      <point x="1331.18" y="444.629"/>
      <point x="1331.18" y="679" type="curve" smooth="yes"/>
    </contour>
  </outline>
</glyph>
<glyph name="date.mlm" format="2">
  <advance width="1652"/>
  <unicode hex="0D79"/>
  <outline>
    <contour>
      <point x="512" y="733" type="line"/>
      <point x="512" y="3" type="line"/>
      <point x="680" y="3" type="line"/>
      <point x="680" y="785" type="line"/>
    </contour>
    <contour>
      <point x="384" y="1048" type="curve" smooth="yes"/>
      <point x="472" y="1048"/>
      <point x="512" y="988"/>
      <point x="512" y="864" type="curve" smooth="yes"/>
      <point x="512" y="645" type="line"/>
      <point x="601" y="645" type="line"/>
      <point x="598" y="989" type="line"/>
      <point x="583" y="1144"/>
      <point x="493" y="1208"/>
      <point x="356" y="1208" type="curve" smooth="yes"/>
      <point x="172" y="1208"/>
      <point x="89" y="1093"/>
      <point x="89" y="862" type="curve" smooth="yes"/>
      <point x="89" y="395" type="line" smooth="yes"/>
      <point x="89" y="225"/>
      <point x="111" y="84"/>
      <point x="162" y="0" type="curve"/>
      <point x="332" y="0" type="line"/>
      <point x="285" y="85"/>
      <point x="257" y="221"/>
      <point x="257" y="393" type="curve" smooth="yes"/>
      <point x="257" y="863" type="line" smooth="yes"/>
      <point x="257" y="988"/>
      <point x="296" y="1048"/>
    </contour>
    <contour>
      <point x="935" y="1208" type="curve" smooth="yes"/>
      <point x="746" y="1208"/>
      <point x="634" y="1131"/>
      <point x="602" y="989" type="curve"/>
      <point x="562" y="989" type="line"/>
      <point x="577" y="635" type="line"/>
      <point x="680" y="635" type="line"/>
      <point x="680" y="797" type="line" smooth="yes"/>
      <point x="680" y="973"/>
      <point x="764" y="1056"/>
      <point x="927" y="1056" type="curve" smooth="yes"/>
      <point x="1104" y="1056"/>
      <point x="1185" y="956"/>
      <point x="1185" y="739" type="curve" smooth="yes"/>
      <point x="1185" y="269" type="line" smooth="yes"/>
      <point x="1185" y="174"/>
      <point x="1154" y="128"/>
      <point x="1091" y="128" type="curve" smooth="yes"/>
      <point x="1029" y="128"/>
      <point x="999" y="174"/>
      <point x="999" y="269" type="curve" smooth="yes"/>
      <point x="999" y="490" type="line" smooth="yes"/>
      <point x="999" y="590"/>
      <point x="1032" y="633"/>
      <point x="1112" y="633" type="curve" smooth="yes"/>
      <point x="1611" y="633" type="line"/>
      <point x="1627" y="770" type="line"/>
      <point x="1086" y="770" type="line" smooth="yes"/>
      <point x="918" y="770"/>
      <point x="836" y="681"/>
      <point x="836" y="491" type="curve" smooth="yes"/>
      <point x="836" y="274" type="line" smooth="yes"/>
      <point x="836" y="82"/>
      <point x="921" y="-18"/>
      <point x="1090" y="-18" type="curve" smooth="yes"/>
      <point x="1260" y="-18"/>
      <point x="1347" y="82"/>
      <point x="1347" y="274" type="curve" smooth="yes"/>
      <point x="1347" y="731" type="line" smooth="yes"/>
      <point x="1347" y="1045"/>
      <point x="1214" y="1208"/>
    </contour>
  </outline>
</glyph>
<glyph name="chilluNn.mlm" format="2">
  <advance width="2140"/>
  <unicode hex="0D7A"/>
  <outline>
    <contour>
      <point x="764" y="3" type="line"/>
      <point x="932" y="3" type="line"/>
      <point x="932" y="785" type="line"/>
      <point x="764" y="733" type="line"/>
    </contour>
    <contour>
      <point x="501" y="1208" type="curve" smooth="yes"/>
      <point x="221" y="1208"/>
      <point x="86" y="1045"/>
      <point x="86" y="730" type="curve" smooth="yes"/>
      <point x="86" y="276" type="line" smooth="yes"/>
      <point x="86" y="82"/>
      <point x="172" y="-18"/>
      <point x="344" y="-18" type="curve" smooth="yes"/>
      <point x="516" y="-18"/>
      <point x="601" y="82"/>
      <point x="601" y="276" type="curve" smooth="yes"/>
      <point x="601" y="559" type="line" smooth="yes"/>
      <point x="601" y="730"/>
      <point x="541" y="813"/>
      <point x="421" y="813" type="curve" smooth="yes"/>
      <point x="318" y="813"/>
      <point x="260" y="748"/>
      <point x="243" y="633" type="curve"/>
      <point x="248" y="576" type="line"/>
      <point x="267" y="634"/>
      <point x="299" y="663"/>
      <point x="349" y="663" type="curve" smooth="yes"/>
      <point x="409" y="663"/>
      <point x="437" y="622"/>
      <point x="437" y="535" type="curve" smooth="yes"/>
      <point x="437" y="271" type="line" smooth="yes"/>
      <point x="437" y="174"/>
      <point x="409" y="129"/>
      <point x="344" y="129" type="curve" smooth="yes"/>
      <point x="280" y="129"/>
      <point x="249" y="174"/>
      <point x="249" y="271" type="curve" smooth="yes"/>
      <point x="249" y="597" type="line"/>
      <point x="260" y="681" type="line"/>
      <point x="247" y="681" type="line"/>
      <point x="247" y="726" type="line" smooth="yes"/>
      <point x="247" y="951"/>
      <point x="331" y="1056"/>
      <point x="512" y="1056" type="curve" smooth="yes"/>
      <point x="682" y="1056"/>
      <point x="764" y="973"/>
      <point x="764" y="797" type="curve" smooth="yes"/>
      <point x="764" y="635" type="line"/>
      <point x="841" y="635" type="line"/>
      <point x="841" y="989" type="line"/>
      <point x="809" y="1130"/>
      <point x="697" y="1208"/>
    </contour>
    <contour>
      <point x="1182" y="771" type="line"/>
      <point x="1182" y="3" type="line"/>
      <point x="1350" y="3" type="line"/>
      <point x="1350" y="771" type="line"/>
    </contour>
    <contour>
      <point x="1267" y="989" type="line"/>
      <point x="1255" y="1143"/>
      <point x="1177" y="1208"/>
      <point x="1057" y="1208" type="curve" smooth="yes"/>
      <point x="938" y="1208"/>
      <point x="859" y="1143"/>
      <point x="846" y="989" type="curve"/>
      <point x="788" y="989" type="line"/>
      <point x="788" y="675" type="line"/>
      <point x="932" y="671" type="line"/>
      <point x="932" y="864" type="line" smooth="yes"/>
      <point x="932" y="988"/>
      <point x="970" y="1048"/>
      <point x="1057" y="1048" type="curve" smooth="yes"/>
      <point x="1145" y="1048"/>
      <point x="1182" y="988"/>
      <point x="1182" y="864" type="curve" smooth="yes"/>
      <point x="1182" y="649" type="line"/>
      <point x="1266" y="649" type="line"/>
    </contour>
    <contour>
      <point x="1745" y="1192" type="line" smooth="yes"/>
      <point x="1703" y="1203"/>
      <point x="1667" y="1208"/>
      <point x="1616" y="1208" type="curve" smooth="yes"/>
      <point x="1418" y="1208"/>
      <point x="1305" y="1131"/>
      <point x="1273" y="989" type="curve"/>
      <point x="1232" y="989" type="line"/>
      <point x="1247" y="635" type="line"/>
      <point x="1350" y="635" type="line"/>
      <point x="1350" y="797" type="line" smooth="yes"/>
      <point x="1350" y="978"/>
      <point x="1434" y="1064"/>
      <point x="1605" y="1064" type="curve" smooth="yes"/>
      <point x="1647" y="1064"/>
      <point x="1683" y="1059"/>
      <point x="1715" y="1047" type="curve" smooth="yes"/>
      <point x="1745" y="1036" type="line"/>
      <point x="1849" y="991"/>
      <point x="1889" y="880"/>
      <point x="1889" y="708" type="curve" smooth="yes"/>
      <point x="1889" y="269" type="line" smooth="yes"/>
      <point x="1889" y="174"/>
      <point x="1860" y="128"/>
      <point x="1794" y="128" type="curve" smooth="yes"/>
      <point x="1728" y="128"/>
      <point x="1697" y="174"/>
      <point x="1697" y="269" type="curve" smooth="yes"/>
      <point x="1697" y="648" type="line" smooth="yes"/>
      <point x="1697" y="822"/>
      <point x="1720" y="931"/>
      <point x="1772" y="1048" type="curve"/>
      <point x="1776" y="1063"/>
      <point x="1790" y="1122"/>
      <point x="1793" y="1137" type="curve"/>
      <point x="1811" y="1186"/>
      <point x="1819" y="1234"/>
      <point x="1819" y="1289" type="curve" smooth="yes"/>
      <point x="1819" y="1373"/>
      <point x="1802" y="1435"/>
      <point x="1772" y="1499" type="curve"/>
      <point x="1621" y="1499" type="line"/>
      <point x="1653" y="1432"/>
      <point x="1669" y="1361"/>
      <point x="1669" y="1284" type="curve" smooth="yes"/>
      <point x="1669" y="1238"/>
      <point x="1663" y="1201"/>
      <point x="1651" y="1162" type="curve" smooth="yes"/>
      <point x="1647" y="1150"/>
      <point x="1640" y="1107"/>
      <point x="1634" y="1092" type="curve"/>
      <point x="1565" y="966"/>
      <point x="1532" y="860"/>
      <point x="1532" y="648" type="curve" smooth="yes"/>
      <point x="1532" y="275" type="line" smooth="yes"/>
      <point x="1532" y="81"/>
      <point x="1616" y="-19"/>
      <point x="1792" y="-19" type="curve" smooth="yes"/>
      <point x="1969" y="-19"/>
      <point x="2055" y="81"/>
      <point x="2055" y="275" type="curve" smooth="yes"/>
      <point x="2055" y="708" type="line" smooth="yes"/>
      <point x="2055" y="947"/>
      <point x="1987" y="1114"/>
      <point x="1786" y="1181" type="curve"/>
    </contour>
  </outline>
</glyph>
<glyph name="chilluL.mlm" format="2">
  <advance width="1711"/>
  <unicode hex="0D7D"/>
  <outline>
    <contour>
      <point x="1460" y="670" type="curve" smooth="yes"/>
      <point x="1460" y="269" type="line" smooth="yes"/>
      <point x="1460" y="173"/>
      <point x="1430" y="128"/>
      <point x="1365" y="128" type="curve" smooth="yes"/>
      <point x="1298" y="128"/>
      <point x="1268" y="173"/>
      <point x="1268" y="269" type="curve" smooth="yes"/>
      <point x="1268" y="643" type="line" smooth="yes"/>
      <point x="1268" y="817"/>
      <point x="1301" y="924"/>
      <point x="1343" y="1030" type="curve"/>
      <point x="1346" y="1037"/>
      <point x="1378" y="1111"/>
      <point x="1380" y="1117" type="curve" smooth="yes"/>
      <point x="1399" y="1172"/>
      <point x="1413" y="1226"/>
      <point x="1413" y="1289" type="curve" smooth="yes"/>
      <point x="1413" y="1374"/>
      <point x="1396" y="1435"/>
      <point x="1367" y="1499" type="curve"/>
      <point x="1216" y="1499" type="line"/>
      <point x="1247" y="1431"/>
      <point x="1263" y="1362"/>
      <point x="1263" y="1284" type="curve" smooth="yes"/>
      <point x="1263" y="1231"/>
      <point x="1253" y="1188"/>
      <point x="1239" y="1144" type="curve"/>
      <point x="1238" y="1139"/>
      <point x="1213" y="1084"/>
      <point x="1211" y="1078" type="curve"/>
      <point x="1147" y="965"/>
      <point x="1103" y="859"/>
      <point x="1103" y="642" type="curve" smooth="yes"/>
      <point x="1103" y="275" type="line" smooth="yes"/>
      <point x="1103" y="82"/>
      <point x="1188" y="-19"/>
      <point x="1363" y="-19" type="curve" smooth="yes"/>
      <point x="1539" y="-19"/>
      <point x="1626" y="82"/>
      <point x="1626" y="275" type="curve" smooth="yes"/>
      <point x="1626" y="665" type="line" smooth="yes"/>
      <point x="1626" y="908"/>
      <point x="1542" y="1065"/>
      <point x="1361" y="1144" type="curve"/>
      <point x="1302" y="1164" type="line"/>
      <point x="1229" y="1193"/>
      <point x="1141" y="1207"/>
      <point x="1039" y="1207" type="curve" smooth="yes"/>
      <point x="883" y="1207"/>
      <point x="783" y="1174"/>
      <point x="700" y="1120" type="curve"/>
      <point x="648" y="1081" type="line"/>
      <point x="502" y="995"/>
      <point x="451" y="854"/>
      <point x="451" y="665" type="curve" smooth="yes"/>
      <point x="451" y="276" type="line" smooth="yes"/>
      <point x="451" y="83"/>
      <point x="539" y="-18"/>
      <point x="718" y="-18" type="curve" smooth="yes"/>
      <point x="895" y="-18"/>
      <point x="985" y="83"/>
      <point x="985" y="276" type="curve" smooth="yes"/>
      <point x="985" y="693" type="line" smooth="yes"/>
      <point x="985" y="867"/>
      <point x="942" y="995"/>
      <point x="817" y="1076" type="curve"/>
      <point x="757" y="1117" type="line"/>
      <point x="710" y="1164"/>
      <point x="617" y="1207"/>
      <point x="484" y="1207" type="curve" smooth="yes"/>
      <point x="214" y="1207"/>
      <point x="88" y="1051"/>
      <point x="88" y="733" type="curve" smooth="yes"/>
      <point x="88" y="395" type="line" smooth="yes"/>
      <point x="88" y="225"/>
      <point x="112" y="84"/>
      <point x="164" y="0" type="curve"/>
      <point x="336" y="0" type="line"/>
      <point x="285" y="85"/>
      <point x="256" y="221"/>
      <point x="256" y="393" type="curve" smooth="yes"/>
      <point x="256" y="735" type="line" smooth="yes"/>
      <point x="256" y="961"/>
      <point x="335" y="1067"/>
      <point x="508" y="1067" type="curve" smooth="yes"/>
      <point x="565" y="1067"/>
      <point x="612" y="1056"/>
      <point x="651" y="1033" type="curve"/>
      <point x="708" y="1010" type="line"/>
      <point x="797" y="951"/>
      <point x="819" y="839"/>
      <point x="819" y="698" type="curve" smooth="yes"/>
      <point x="819" y="274" type="line" smooth="yes"/>
      <point x="819" y="176"/>
      <point x="787" y="130"/>
      <point x="718" y="130" type="curve" smooth="yes"/>
      <point x="649" y="130"/>
      <point x="617" y="176"/>
      <point x="617" y="274" type="curve" smooth="yes"/>
      <point x="617" y="670" type="line" smooth="yes"/>
      <point x="617" y="825"/>
      <point x="645" y="946"/>
      <point x="759" y="1011" type="curve"/>
      <point x="822" y="1029" type="line"/>
      <point x="883" y="1054"/>
      <point x="953" y="1067"/>
      <point x="1037" y="1067" type="curve" smooth="yes"/>
      <point x="1125" y="1067"/>
      <point x="1202" y="1055"/>
      <point x="1257" y="1033" type="curve"/>
      <point x="1314" y="1018" type="line"/>
      <point x="1422" y="958"/>
      <point x="1460" y="844"/>
    </contour>
  </outline>
</glyph>
<glyph name="fivesuperior" format="2">
  <advance width="410"/>
  <unicode hex="2075"/>
  <outline>
    <contour>
      <point x="187" y="688" type="curve" smooth="yes"/>
      <point x="319" y="688"/>
      <point x="372" y="760"/>
      <point x="372" y="890" type="curve" smooth="yes"/>
      <point x="372" y="973" type="line" smooth="yes"/>
      <point x="372" y="1082"/>
      <point x="340" y="1145"/>
      <point x="260" y="1145" type="curve" smooth="yes"/>
      <point x="203" y="1145"/>
      <point x="174" y="1116"/>
      <point x="161" y="1066" type="curve"/>
      <point x="156" y="1066" type="line"/>
      <point x="157" y="1152" type="line"/>
      <point x="157" y="1278" type="line"/>
      <point x="355" y="1278" type="line"/>
      <point x="355" y="1384" type="line"/>
      <point x="46" y="1384" type="line"/>
      <point x="46" y="987" type="line"/>
      <point x="154" y="977" type="line"/>
      <point x="161" y="1021"/>
      <point x="173" y="1046"/>
      <point x="206" y="1046" type="curve" smooth="yes"/>
      <point x="243" y="1046"/>
      <point x="254" y="1014"/>
      <point x="254" y="963" type="curve" smooth="yes"/>
      <point x="254" y="895" type="line" smooth="yes"/>
      <point x="254" y="835"/>
      <point x="235" y="796"/>
      <point x="167" y="796" type="curve" smooth="yes"/>
      <point x="120" y="796"/>
      <point x="77" y="813"/>
      <point x="42" y="837" type="curve"/>
      <point x="51" y="727" type="line"/>
      <point x="78" y="708"/>
      <point x="125" y="688"/>
    </contour>
  </outline>
</glyph>
<glyph name="BaBa.mlm" format="2">
  <advance width="1838"/>
  <outline>
    <component base="Ba.mlm"/>
    <contour>
      <point x="1579" y="110" type="line"/>
      <point x="1579" y="-429" type="line"/>
      <point x="1737" y="-429" type="line"/>
      <point x="1737" y="110" type="line"/>
    </contour>
    <contour>
      <point x="1211" y="-306" type="line"/>
      <point x="1317" y="-231"/>
      <point x="1408" y="-122"/>
      <point x="1436" y="1" type="curve"/>
      <point x="1277" y="22" type="line"/>
      <point x="1256" y="-119"/>
      <point x="1130" y="-234"/>
      <point x="989" y="-314" type="curve"/>
      <point x="1005" y="-429" type="line"/>
      <point x="1694" y="-429" type="line"/>
      <point x="1704" y="-306" type="line"/>
    </contour>
  </outline>
</glyph>
<glyph name="BaDa.mlm" format="2">
  <advance width="1838"/>
  <outline>
    <component base="Ba.mlm"/>
    <contour>
      <point x="1690" y="-92" type="line"/>
      <point x="1690" y="3"/>
      <point x="1608" y="63"/>
      <point x="1448" y="63" type="curve" smooth="yes"/>
      <point x="1274" y="63"/>
      <point x="1192" y="-16"/>
      <point x="1192" y="-167" type="curve" smooth="yes"/>
      <point x="1192" y="-287" type="line" smooth="yes"/>
      <point x="1192" y="-361"/>
      <point x="1200" y="-425"/>
      <point x="1219" y="-472" type="curve"/>
      <point x="1342" y="-472" type="line"/>
      <point x="1326" y="-426"/>
      <point x="1317" y="-359"/>
      <point x="1317" y="-288" type="curve" smooth="yes"/>
      <point x="1317" y="-167" type="line" smooth="yes"/>
      <point x="1317" y="-67"/>
      <point x="1358" y="-21"/>
      <point x="1451" y="-21" type="curve" smooth="yes"/>
      <point x="1531" y="-21"/>
      <point x="1565" y="-49"/>
      <point x="1565" y="-94" type="curve"/>
      <point x="1565" y="-96" type="line"/>
      <point x="1565" y="-132"/>
      <point x="1541" y="-150"/>
      <point x="1479" y="-152" type="curve" smooth="yes"/>
      <point x="1427" y="-154" type="line"/>
      <point x="1427" y="-248" type="line"/>
      <point x="1479" y="-250" type="line" smooth="yes"/>
      <point x="1545" y="-253"/>
      <point x="1573" y="-270"/>
      <point x="1573" y="-316" type="curve"/>
      <point x="1573" y="-317" type="line"/>
      <point x="1573" y="-364"/>
      <point x="1537" y="-382"/>
      <point x="1475" y="-382" type="curve" smooth="yes"/>
      <point x="1457" y="-382"/>
      <point x="1436" y="-381"/>
      <point x="1416" y="-379" type="curve"/>
      <point x="1432" y="-474" type="line"/>
      <point x="1455" y="-477"/>
      <point x="1478" y="-478"/>
      <point x="1501" y="-478" type="curve" smooth="yes"/>
      <point x="1632" y="-478"/>
      <point x="1700" y="-428"/>
      <point x="1700" y="-333" type="curve" smooth="yes"/>
      <point x="1700" y="-330" type="line" smooth="yes"/>
      <point x="1700" y="-259"/>
      <point x="1666" y="-215"/>
      <point x="1592" y="-200" type="curve"/>
      <point x="1592" y="-197" type="line"/>
      <point x="1660" y="-185"/>
      <point x="1690" y="-147"/>
      <point x="1690" y="-94" type="curve"/>
    </contour>
  </outline>
</glyph>
<glyph name="CaCa.mlm" format="2">
  <advance width="1133"/>
  <outline>
    <component base="Ca.mlm"/>
    <contour>
      <point x="874" y="119" type="line"/>
      <point x="874" y="-420" type="line"/>
      <point x="1032" y="-420" type="line"/>
      <point x="1032" y="119" type="line"/>
    </contour>
    <contour>
      <point x="506" y="-297" type="line"/>
      <point x="612" y="-222"/>
      <point x="703" y="-113"/>
      <point x="731" y="10" type="curve"/>
      <point x="572" y="31" type="line"/>
      <point x="551" y="-110"/>
      <point x="425" y="-225"/>
      <point x="284" y="-305" type="curve"/>
      <point x="300" y="-420" type="line"/>
      <point x="989" y="-420" type="line"/>
      <point x="999" y="-297" type="line"/>
    </contour>
  </outline>
</glyph>
<glyph name="DaDa.mlm" format="2">
  <advance width="817"/>
  <outline>
    <contour>
      <point x="744" y="382" type="curve" smooth="yes"/>
      <point x="744" y="397" type="line" smooth="yes"/>
      <point x="744" y="540"/>
      <point x="687" y="614"/>
      <point x="565" y="629" type="curve"/>
      <point x="565" y="633" type="line"/>
      <point x="682" y="653"/>
      <point x="734" y="732"/>
      <point x="734" y="870" type="curve" smooth="yes"/>
      <point x="734" y="884" type="line" smooth="yes"/>
      <point x="734" y="1095"/>
      <point x="627" y="1208"/>
      <point x="417" y="1208" type="curve" smooth="yes"/>
      <point x="196" y="1208"/>
      <point x="89" y="1083"/>
      <point x="89" y="846" type="curve" smooth="yes"/>
      <point x="89" y="347" type="line" smooth="yes"/>
      <point x="89" y="197"/>
      <point x="103" y="80"/>
      <point x="128" y="0" type="curve"/>
      <point x="295" y="0" type="line"/>
      <point x="273" y="77"/>
      <point x="258" y="194"/>
      <point x="258" y="345" type="curve" smooth="yes"/>
      <point x="258" y="848" type="line" smooth="yes"/>
      <point x="258" y="987"/>
      <point x="305" y="1056"/>
      <point x="413" y="1056" type="curve" smooth="yes"/>
      <point x="518" y="1056"/>
      <point x="566" y="992"/>
      <point x="566" y="868" type="curve" smooth="yes"/>
      <point x="566" y="852" type="line" smooth="yes"/>
      <point x="566" y="751"/>
      <point x="527" y="706"/>
      <point x="438" y="702" type="curve" smooth="yes"/>
      <point x="390" y="700" type="line"/>
      <point x="390" y="555" type="line"/>
      <point x="445" y="553" type="line" smooth="yes"/>
      <point x="537" y="550"/>
      <point x="574" y="500"/>
      <point x="574" y="399" type="curve" smooth="yes"/>
      <point x="574" y="379" type="line" smooth="yes"/>
      <point x="574" y="279"/>
      <point x="537" y="229"/>
      <point x="445" y="226" type="curve" smooth="yes"/>
      <point x="390" y="224" type="line"/>
      <point x="390" y="79" type="line"/>
      <point x="442" y="77" type="line" smooth="yes"/>
      <point x="539" y="73"/>
      <point x="577" y="25"/>
      <point x="577" y="-70" type="curve" smooth="yes"/>
      <point x="577" y="-90" type="line" smooth="yes"/>
      <point x="577" y="-190"/>
      <point x="534" y="-235"/>
      <point x="437" y="-235" type="curve" smooth="yes"/>
      <point x="406" y="-235"/>
      <point x="371" y="-231"/>
      <point x="344" y="-224" type="curve"/>
      <point x="364" y="-365" type="line"/>
      <point x="399" y="-373"/>
      <point x="438" y="-379"/>
      <point x="474" y="-379" type="curve" smooth="yes"/>
      <point x="654" y="-379"/>
      <point x="744" y="-291"/>
      <point x="744" y="-116" type="curve" smooth="yes"/>
      <point x="744" y="-92" type="line" smooth="yes"/>
      <point x="744" y="48"/>
      <point x="689" y="127"/>
      <point x="565" y="148" type="curve"/>
      <point x="565" y="152" type="line"/>
      <point x="687" y="169"/>
      <point x="744" y="243"/>
    </contour>
  </outline>
</glyph>
<glyph name="DdaDda.mlm" format="2">
  <advance width="1552"/>
  <outline>
    <component base="Dda.mlm"/>
    <contour>
      <point x="902" y="-481" type="curve" smooth="yes"/>
      <point x="986" y="-481"/>
      <point x="1046" y="-444.681"/>
      <point x="1062" y="-373" type="curve"/>
      <point x="1074" y="-260" type="line"/>
      <point x="1001" y="-240" type="line"/>
      <point x="1001" y="-267" type="line" smooth="yes"/>
      <point x="1001" y="-342.296"/>
      <point x="976" y="-374"/>
      <point x="919" y="-374" type="curve" smooth="yes"/>
      <point x="862" y="-374"/>
      <point x="837" y="-342.296"/>
      <point x="837" y="-267" type="curve" smooth="yes"/>
      <point x="837" y="-150" type="line" smooth="yes"/>
      <point x="837" y="-8"/>
      <point x="770" y="58"/>
      <point x="627" y="58" type="curve" smooth="yes"/>
      <point x="486" y="58"/>
      <point x="415" y="-8"/>
      <point x="415" y="-150" type="curve" smooth="yes"/>
      <point x="415" y="-263" type="line" smooth="yes"/>
      <point x="415" y="-349"/>
      <point x="429" y="-415"/>
      <point x="464" y="-468" type="curve"/>
      <point x="594" y="-468" type="line"/>
      <point x="558" y="-413"/>
      <point x="539" y="-345"/>
      <point x="539" y="-265" type="curve" smooth="yes"/>
      <point x="539" y="-156" type="line" smooth="yes"/>
      <point x="539" y="-83"/>
      <point x="568" y="-47"/>
      <point x="627" y="-47" type="curve" smooth="yes"/>
      <point x="687" y="-47"/>
      <point x="713" y="-83"/>
      <point x="713" y="-156" type="curve" smooth="yes"/>
      <point x="713" y="-275" type="line" smooth="yes"/>
      <point x="713" y="-406"/>
      <point x="771" y="-481"/>
    </contour>
    <contour>
      <point x="1125" y="-306" type="line"/>
      <point x="1125" y="27" type="line"/>
      <point x="1001" y="27" type="line"/>
      <point x="1001" y="-308" type="line"/>
    </contour>
    <contour>
      <point x="1018" y="-256" type="line"/>
      <point x="1049" y="-373" type="line"/>
      <point x="1066" y="-373" type="line"/>
      <point x="1083" y="-444.681"/>
      <point x="1142" y="-481"/>
      <point x="1228" y="-481" type="curve" smooth="yes"/>
      <point x="1364" y="-481"/>
      <point x="1424" y="-405"/>
      <point x="1424" y="-271" type="curve" smooth="yes"/>
      <point x="1424" y="-174" type="line" smooth="yes"/>
      <point x="1424" y="-86"/>
      <point x="1408" y="-21"/>
      <point x="1366" y="34" type="curve"/>
      <point x="1242" y="21" type="line"/>
      <point x="1283" y="-32"/>
      <point x="1300" y="-89"/>
      <point x="1300" y="-173" type="curve" smooth="yes"/>
      <point x="1300" y="-262" type="line" smooth="yes"/>
      <point x="1300" y="-340.301"/>
      <point x="1274" y="-374"/>
      <point x="1213" y="-374" type="curve" smooth="yes"/>
      <point x="1151" y="-374"/>
      <point x="1125" y="-340.304"/>
      <point x="1125" y="-263" type="curve" smooth="yes"/>
      <point x="1125" y="-245" type="line"/>
    </contour>
  </outline>
</glyph>
<glyph name="GaDaDha.mlm" format="2">
  <advance width="1970"/>
  <outline>
    <contour>
      <point x="1465" y="413" type="line"/>
      <point x="1465" y="1176" type="line"/>
      <point x="1297" y="1176" type="line"/>
      <point x="1297" y="413" type="line"/>
    </contour>
    <contour>
      <point x="1297" y="535" type="line"/>
      <point x="1297" y="322" type="line" smooth="yes"/>
      <point x="1297" y="195"/>
      <point x="1259" y="137"/>
      <point x="1173" y="137" type="curve" smooth="yes"/>
      <point x="881" y="137" type="line"/>
      <point x="838" y="0" type="line"/>
      <point x="1144" y="0" type="line" smooth="yes"/>
      <point x="1281" y="0"/>
      <point x="1362" y="62"/>
      <point x="1378" y="177" type="curve"/>
      <point x="1437" y="177" type="line"/>
      <point x="1444" y="497" type="line"/>
    </contour>
    <contour>
      <point x="1130" y="348" type="line" smooth="yes"/>
      <point x="1130" y="504"/>
      <point x="1072" y="585"/>
      <point x="947" y="601" type="curve"/>
      <point x="947" y="605" type="line"/>
      <point x="1066" y="624"/>
      <point x="1119" y="704"/>
      <point x="1119" y="841" type="curve" smooth="yes"/>
      <point x="1119" y="877" type="line" smooth="yes"/>
      <point x="1119" y="1093"/>
      <point x="1012" y="1208"/>
      <point x="800" y="1208" type="curve" smooth="yes"/>
      <point x="580" y="1208"/>
      <point x="474" y="1086"/>
      <point x="474" y="856" type="curve" smooth="yes"/>
      <point x="474" y="686"/>
      <point x="497" y="477"/>
      <point x="497" y="308" type="curve" smooth="yes"/>
      <point x="497" y="189"/>
      <point x="462" y="134"/>
      <point x="378" y="134" type="curve" smooth="yes"/>
      <point x="295" y="134"/>
      <point x="257" y="189"/>
      <point x="257" y="308" type="curve" smooth="yes"/>
      <point x="257" y="786" type="line" smooth="yes"/>
      <point x="257" y="959"/>
      <point x="287" y="1097"/>
      <point x="337" y="1181" type="curve"/>
      <point x="168" y="1181" type="line"/>
      <point x="114" y="1091"/>
      <point x="89" y="956"/>
      <point x="89" y="784" type="curve" smooth="yes"/>
      <point x="89" y="310" type="line" smooth="yes"/>
      <point x="89" y="89"/>
      <point x="184" y="-21"/>
      <point x="378" y="-21" type="curve" smooth="yes"/>
      <point x="571" y="-21"/>
      <point x="665" y="89"/>
      <point x="665" y="310" type="curve" smooth="yes"/>
      <point x="665" y="480"/>
      <point x="642" y="689"/>
      <point x="642" y="858" type="curve" smooth="yes"/>
      <point x="642" y="990"/>
      <point x="689" y="1056"/>
      <point x="797" y="1056" type="curve" smooth="yes"/>
      <point x="903" y="1056"/>
      <point x="951" y="991"/>
      <point x="951" y="866" type="curve" smooth="yes"/>
      <point x="951" y="826" type="line" smooth="yes"/>
      <point x="951" y="724"/>
      <point x="912" y="678"/>
      <point x="823" y="674" type="curve" smooth="yes"/>
      <point x="781" y="672" type="line"/>
      <point x="781" y="527" type="line"/>
      <point x="830" y="525" type="line" smooth="yes"/>
      <point x="924" y="521"/>
      <point x="962" y="472"/>
      <point x="962" y="369" type="curve" smooth="yes"/>
      <point x="962" y="303" type="line" smooth="yes"/>
      <point x="962" y="196"/>
      <point x="922" y="147"/>
      <point x="834" y="142" type="curve" smooth="yes"/>
      <point x="746" y="137" type="line"/>
      <point x="762" y="0" type="line"/>
      <point x="865" y="0" type="line"/>
      <point x="899" y="88" type="line"/>
      <point x="1054" y="88"/>
      <point x="1130" y="157"/>
      <point x="1130" y="299" type="curve" smooth="yes"/>
    </contour>
    <contour>
      <point x="1383" y="177" type="line"/>
      <point x="1399" y="48"/>
      <point x="1480" y="-20"/>
      <point x="1617" y="-20" type="curve" smooth="yes"/>
      <point x="1800" y="-20"/>
      <point x="1881" y="92"/>
      <point x="1881" y="323" type="curve" smooth="yes"/>
      <point x="1881" y="783" type="line" smooth="yes"/>
      <point x="1881" y="955"/>
      <point x="1854" y="1090"/>
      <point x="1802" y="1180" type="curve"/>
      <point x="1634" y="1180" type="line"/>
      <point x="1684" y="1096"/>
      <point x="1713" y="958"/>
      <point x="1713" y="785" type="curve" smooth="yes"/>
      <point x="1713" y="322" type="line" smooth="yes"/>
      <point x="1713" y="198"/>
      <point x="1678" y="141"/>
      <point x="1589" y="141" type="curve" smooth="yes"/>
      <point x="1504" y="141"/>
      <point x="1465" y="198"/>
      <point x="1465" y="322" type="curve" smooth="yes"/>
      <point x="1465" y="535" type="line"/>
      <point x="1375" y="535" type="line"/>
    </contour>
  </outline>
</glyph>
<glyph name="GaLa.mlm" format="2">
  <advance width="1140"/>
  <outline>
    <contour>
      <point x="641" y="880" type="curve" smooth="yes"/>
      <point x="641" y="1000"/>
      <point x="677" y="1054"/>
      <point x="761" y="1054" type="curve" smooth="yes"/>
      <point x="845" y="1054"/>
      <point x="883" y="1000"/>
      <point x="883" y="880" type="curve" smooth="yes"/>
      <point x="883" y="393" type="line" smooth="yes"/>
      <point x="883" y="221"/>
      <point x="856" y="85"/>
      <point x="807" y="0" type="curve"/>
      <point x="979" y="0" type="line"/>
      <point x="1030" y="84"/>
      <point x="1051" y="225"/>
      <point x="1051" y="395" type="curve" smooth="yes"/>
      <point x="1051" y="878" type="line" smooth="yes"/>
      <point x="1051" y="1099"/>
      <point x="955" y="1208"/>
      <point x="760" y="1208" type="curve" smooth="yes"/>
      <point x="567" y="1208"/>
      <point x="473" y="1099"/>
      <point x="473" y="878" type="curve" smooth="yes"/>
      <point x="473" y="700"/>
      <point x="497" y="486"/>
      <point x="497" y="308" type="curve" smooth="yes"/>
      <point x="497" y="189"/>
      <point x="462" y="134"/>
      <point x="378" y="134" type="curve" smooth="yes"/>
      <point x="295" y="134"/>
      <point x="257" y="189"/>
      <point x="257" y="308" type="curve" smooth="yes"/>
      <point x="257" y="786" type="line" smooth="yes"/>
      <point x="257" y="959"/>
      <point x="286" y="1097"/>
      <point x="335" y="1181" type="curve"/>
      <point x="168" y="1181" type="line"/>
      <point x="115" y="1091"/>
      <point x="89" y="956"/>
      <point x="89" y="784" type="curve" smooth="yes"/>
      <point x="89" y="310" type="line" smooth="yes"/>
      <point x="89" y="94"/>
      <point x="185" y="-12"/>
      <point x="378" y="-12" type="curve" smooth="yes"/>
      <point x="572" y="-12"/>
      <point x="665" y="94"/>
      <point x="665" y="310" type="curve" smooth="yes"/>
      <point x="665" y="489"/>
      <point x="641" y="703"/>
    </contour>
    <contour>
      <point x="1014" y="-198" type="line" smooth="yes"/>
      <point x="1014" y="-103"/>
      <point x="990" y="-29"/>
      <point x="914" y="23" type="curve"/>
      <point x="808" y="0" type="line"/>
      <point x="868" y="-51"/>
      <point x="890" y="-116"/>
      <point x="890" y="-198" type="curve" smooth="yes"/>
      <point x="890" y="-275" type="line" smooth="yes"/>
      <point x="890" y="-342"/>
      <point x="864" y="-376"/>
      <point x="809" y="-376" type="curve" smooth="yes"/>
      <point x="751" y="-376"/>
      <point x="726" y="-342"/>
      <point x="726" y="-275" type="curve" smooth="yes"/>
      <point x="726" y="-211" type="line" smooth="yes"/>
      <point x="726" y="-35"/>
      <point x="627" y="64"/>
      <point x="432" y="64" type="curve" smooth="yes"/>
      <point x="236" y="64"/>
      <point x="133" y="-28"/>
      <point x="133" y="-213" type="curve" smooth="yes"/>
      <point x="133" y="-298" type="line" smooth="yes"/>
      <point x="133" y="-420.023"/>
      <point x="197" y="-482"/>
      <point x="316" y="-482" type="curve" smooth="yes"/>
      <point x="437" y="-482"/>
      <point x="498" y="-425"/>
      <point x="498" y="-316" type="curve" smooth="yes"/>
      <point x="498" y="-272" type="line" smooth="yes"/>
      <point x="498" y="-172"/>
      <point x="453" y="-120"/>
      <point x="371" y="-120" type="curve" smooth="yes"/>
      <point x="301" y="-120"/>
      <point x="259" y="-158"/>
      <point x="245" y="-227" type="curve"/>
      <point x="252" y="-263" type="line"/>
      <point x="261" y="-233"/>
      <point x="289" y="-217"/>
      <point x="319" y="-217" type="curve" smooth="yes"/>
      <point x="360" y="-217"/>
      <point x="377" y="-241"/>
      <point x="377" y="-287" type="curve" smooth="yes"/>
      <point x="377" y="-313" type="line" smooth="yes"/>
      <point x="377" y="-359"/>
      <point x="357" y="-383"/>
      <point x="316" y="-383" type="curve" smooth="yes"/>
      <point x="275" y="-383"/>
      <point x="254" y="-357.31"/>
      <point x="254" y="-307" type="curve" smooth="yes"/>
      <point x="254" y="-230" type="line"/>
      <point x="262" y="-197" type="line"/>
      <point x="250" y="-197" type="line"/>
      <point x="250" y="-87"/>
      <point x="312" y="-31"/>
      <point x="426" y="-31" type="curve" smooth="yes"/>
      <point x="544" y="-31"/>
      <point x="602" y="-92"/>
      <point x="602" y="-215" type="curve" smooth="yes"/>
      <point x="602" y="-282" type="line" smooth="yes"/>
      <point x="602" y="-416"/>
      <point x="669" y="-482"/>
      <point x="809" y="-482" type="curve" smooth="yes"/>
      <point x="947" y="-482"/>
      <point x="1014" y="-416"/>
      <point x="1014" y="-282" type="curve" smooth="yes"/>
    </contour>
  </outline>
</glyph>
<glyph name="GaMa.mlm" format="2">
  <advance width="1803"/>
  <outline>
    <contour>
      <point x="737" y="1208" type="curve" smooth="yes"/>
      <point x="558" y="1208"/>
      <point x="474" y="1099"/>
      <point x="474" y="875" type="curve" smooth="yes"/>
      <point x="474" y="698"/>
      <point x="497" y="485"/>
      <point x="497" y="308" type="curve" smooth="yes"/>
      <point x="497" y="189"/>
      <point x="462" y="134"/>
      <point x="378" y="134" type="curve" smooth="yes"/>
      <point x="295" y="134"/>
      <point x="257" y="189"/>
      <point x="257" y="308" type="curve" smooth="yes"/>
      <point x="257" y="786" type="line" smooth="yes"/>
      <point x="257" y="959"/>
      <point x="287" y="1097"/>
      <point x="337" y="1181" type="curve"/>
      <point x="168" y="1181" type="line"/>
      <point x="114" y="1091"/>
      <point x="89" y="956"/>
      <point x="89" y="784" type="curve" smooth="yes"/>
      <point x="89" y="310" type="line" smooth="yes"/>
      <point x="89" y="89"/>
      <point x="184" y="-21"/>
      <point x="378" y="-21" type="curve" smooth="yes"/>
      <point x="571" y="-21"/>
      <point x="665" y="89"/>
      <point x="665" y="310" type="curve" smooth="yes"/>
      <point x="665" y="487"/>
      <point x="642" y="700"/>
      <point x="642" y="875" type="curve" smooth="yes"/>
      <point x="642" y="994"/>
      <point x="678" y="1048"/>
      <point x="764" y="1048" type="curve" smooth="yes"/>
      <point x="852" y="1048"/>
      <point x="890" y="991"/>
      <point x="890" y="871" type="curve" smooth="yes"/>
      <point x="890" y="645" type="line"/>
      <point x="976" y="639" type="line"/>
      <point x="975" y="993" type="line"/>
      <point x="958" y="1149"/>
      <point x="868" y="1208"/>
    </contour>
    <contour>
      <point x="963" y="993" type="line"/>
      <point x="890" y="703" type="line"/>
      <point x="890" y="0" type="line"/>
      <point x="1050" y="0" type="line"/>
      <point x="1050" y="745" type="line" smooth="yes"/>
      <point x="1050" y="959"/>
      <point x="1123" y="1061"/>
      <point x="1297" y="1061" type="curve" smooth="yes"/>
      <point x="1467" y="1061"/>
      <point x="1545" y="957"/>
      <point x="1545" y="745" type="curve" smooth="yes"/>
      <point x="1545" y="0" type="line"/>
      <point x="1706" y="0" type="line"/>
      <point x="1706" y="740" type="line" smooth="yes"/>
      <point x="1706" y="1049"/>
      <point x="1577" y="1208"/>
      <point x="1306" y="1208" type="curve" smooth="yes"/>
      <point x="1126" y="1208"/>
      <point x="1017" y="1136"/>
      <point x="980" y="993" type="curve"/>
    </contour>
    <contour>
      <point x="973" y="134" type="line"/>
      <point x="907" y="0" type="line"/>
      <point x="1676" y="0" type="line"/>
      <point x="1677" y="134" type="line"/>
    </contour>
    <contour>
      <point x="1402.06" y="704" type="line" smooth="yes"/>
      <point x="1402.06" y="908.584"/>
      <point x="1324.36" y="1009"/>
      <point x="1166.06" y="1009" type="curve" smooth="yes"/>
      <point x="1136.35" y="1009"/>
      <point x="1094.65" y="1000.2"/>
      <point x="1065.06" y="987" type="curve"/>
      <point x="1026.06" y="863" type="line"/>
      <point x="1059.15" y="886.2"/>
      <point x="1090.17" y="892"/>
      <point x="1117.06" y="892" type="curve" smooth="yes"/>
      <point x="1201.43" y="892"/>
      <point x="1240.06" y="832.961"/>
      <point x="1240.06" y="704" type="curve" smooth="yes"/>
      <point x="1240.06" y="681" type="line" smooth="yes"/>
      <point x="1240.06" y="456.776"/>
      <point x="1185.72" y="278.183"/>
      <point x="1086.06" y="130" type="curve"/>
      <point x="1243.06" y="109" type="line"/>
      <point x="1344.71" y="248.366"/>
      <point x="1402.06" y="444.629"/>
      <point x="1402.06" y="679" type="curve" smooth="yes"/>
    </contour>
  </outline>
</glyph>
<glyph name="HaNa.mlm" format="2">
  <advance width="1915"/>
  <outline>
    <contour>
      <point x="354" y="799" type="curve" smooth="yes"/>
      <point x="167" y="799"/>
      <point x="77" y="690"/>
      <point x="77" y="482" type="curve" smooth="yes"/>
      <point x="77" y="283" type="line" smooth="yes"/>
      <point x="77" y="160"/>
      <point x="91" y="65"/>
      <point x="119" y="0" type="curve"/>
      <point x="285" y="0" type="line"/>
      <point x="259" y="63"/>
      <point x="243" y="157"/>
      <point x="243" y="281" type="curve" smooth="yes"/>
      <point x="243" y="483" type="line" smooth="yes"/>
      <point x="243" y="591"/>
      <point x="278" y="647"/>
      <point x="353" y="647" type="curve" smooth="yes"/>
      <point x="429" y="647"/>
      <point x="465" y="591"/>
      <point x="465" y="483" type="curve" smooth="yes"/>
      <point x="465" y="281" type="line" smooth="yes"/>
      <point x="465" y="163"/>
      <point x="448" y="72"/>
      <point x="417" y="10" type="curve"/>
      <point x="417" y="0" type="line"/>
      <point x="547" y="0" type="line"/>
      <point x="604" y="67"/>
      <point x="631" y="165"/>
      <point x="631" y="290" type="curve" smooth="yes"/>
      <point x="631" y="482" type="line" smooth="yes"/>
      <point x="631" y="690"/>
      <point x="541" y="799"/>
    </contour>
    <contour>
      <point x="490" y="136" type="line"/>
      <point x="425" y="0" type="line"/>
      <point x="1018" y="0" type="line"/>
      <point x="933" y="136" type="line"/>
    </contour>
    <contour>
      <point x="1234" y="771" type="line"/>
      <point x="1234" y="3" type="line"/>
      <point x="1403" y="3" type="line"/>
      <point x="1403" y="771" type="line"/>
    </contour>
    <contour>
      <point x="1078" y="1208" type="curve" smooth="yes"/>
      <point x="895" y="1208"/>
      <point x="811" y="1093"/>
      <point x="811" y="862" type="curve" smooth="yes"/>
      <point x="811" y="397" type="line" smooth="yes"/>
      <point x="811" y="221"/>
      <point x="845" y="86"/>
      <point x="901" y="0" type="curve"/>
      <point x="1050" y="0" type="line"/>
      <point x="1050" y="10" type="line"/>
      <point x="1004" y="94"/>
      <point x="979" y="227"/>
      <point x="979" y="393" type="curve" smooth="yes"/>
      <point x="979" y="863" type="line" smooth="yes"/>
      <point x="979" y="988"/>
      <point x="1017" y="1048"/>
      <point x="1106" y="1048" type="curve" smooth="yes"/>
      <point x="1195" y="1048"/>
      <point x="1234" y="988"/>
      <point x="1234" y="863" type="curve" smooth="yes"/>
      <point x="1234" y="645" type="line"/>
      <point x="1324" y="645" type="line"/>
      <point x="1317" y="1005" type="line"/>
      <point x="1298" y="1138"/>
      <point x="1221" y="1208"/>
    </contour>
    <contour>
      <point x="1403" y="645" type="line"/>
      <point x="1403" y="863" type="line" smooth="yes"/>
      <point x="1403" y="988"/>
      <point x="1443" y="1048"/>
      <point x="1531" y="1048" type="curve" smooth="yes"/>
      <point x="1620" y="1048"/>
      <point x="1658" y="988"/>
      <point x="1658" y="863" type="curve" smooth="yes"/>
      <point x="1658" y="393" type="line" smooth="yes"/>
      <point x="1658" y="221"/>
      <point x="1631" y="85"/>
      <point x="1583" y="0" type="curve"/>
      <point x="1753" y="0" type="line"/>
      <point x="1805" y="84"/>
      <point x="1826" y="225"/>
      <point x="1826" y="395" type="curve" smooth="yes"/>
      <point x="1826" y="862" type="line" smooth="yes"/>
      <point x="1826" y="1093"/>
      <point x="1744" y="1208"/>
      <point x="1560" y="1208" type="curve" smooth="yes"/>
      <point x="1419" y="1208"/>
      <point x="1341" y="1138"/>
      <point x="1322" y="1005" type="curve"/>
      <point x="1263" y="1005" type="line"/>
      <point x="1256" y="683" type="line"/>
    </contour>
  </outline>
</glyph>
<glyph name="JaJa.mlm" format="2">
  <advance width="2299"/>
  <outline>
    <contour>
      <point x="82" y="790" type="curve" smooth="yes"/>
      <point x="82" y="583" type="line" smooth="yes"/>
      <point x="82" y="459"/>
      <point x="124" y="384"/>
      <point x="222" y="358" type="curve"/>
      <point x="227" y="355"/>
      <point x="247" y="338"/>
      <point x="251" y="335" type="curve"/>
      <point x="271" y="331"/>
      <point x="292" y="330"/>
      <point x="316" y="330" type="curve" smooth="yes"/>
      <point x="470" y="330"/>
      <point x="549" y="413"/>
      <point x="549" y="574" type="curve" smooth="yes"/>
      <point x="549" y="700" type="line" smooth="yes"/>
      <point x="549" y="849"/>
      <point x="496" y="923"/>
      <point x="390" y="923" type="curve" smooth="yes"/>
      <point x="298" y="923"/>
      <point x="251" y="867"/>
      <point x="231" y="768" type="curve"/>
      <point x="235" y="723" type="line"/>
      <point x="251" y="763"/>
      <point x="280" y="786"/>
      <point x="322" y="786" type="curve" smooth="yes"/>
      <point x="368" y="786"/>
      <point x="393" y="749"/>
      <point x="393" y="679" type="curve" smooth="yes"/>
      <point x="393" y="572" type="line" smooth="yes"/>
      <point x="393" y="498"/>
      <point x="365" y="461"/>
      <point x="315" y="461" type="curve" smooth="yes"/>
      <point x="265" y="461"/>
      <point x="237" y="498"/>
      <point x="237" y="572" type="curve" smooth="yes"/>
      <point x="237" y="755" type="line"/>
      <point x="250" y="801" type="line"/>
      <point x="234" y="801" type="line"/>
      <point x="234" y="804" type="line" smooth="yes"/>
      <point x="234" y="972"/>
      <point x="307" y="1062"/>
      <point x="462" y="1062" type="curve" smooth="yes"/>
      <point x="608" y="1062"/>
      <point x="679" y="989"/>
      <point x="681" y="842" type="curve" smooth="yes"/>
      <point x="685" y="501" type="line"/>
      <point x="841" y="519" type="line"/>
      <point x="846" y="898" type="line" smooth="yes"/>
      <point x="847" y="997"/>
      <point x="873" y="1055"/>
      <point x="953" y="1055" type="curve" smooth="yes"/>
      <point x="1029" y="1055"/>
      <point x="1061" y="1007"/>
      <point x="1061" y="898" type="curve" smooth="yes"/>
      <point x="1061" y="629" type="line"/>
      <point x="1177" y="664" type="line"/>
      <point x="1178" y="895" type="line" smooth="yes"/>
      <point x="1178" y="938"/>
      <point x="1156" y="986"/>
      <point x="1153" y="1033" type="curve"/>
      <point x="1140" y="1147"/>
      <point x="1074" y="1208"/>
      <point x="964" y="1208" type="curve" smooth="yes"/>
      <point x="846" y="1208"/>
      <point x="777" y="1147"/>
      <point x="760" y="1016" type="curve"/>
      <point x="755" y="1016" type="line"/>
      <point x="729" y="1139"/>
      <point x="621" y="1208"/>
      <point x="450" y="1208" type="curve" smooth="yes"/>
      <point x="203" y="1208"/>
      <point x="82" y="1065"/>
    </contour>
    <contour>
      <point x="1751" y="26" type="line"/>
      <point x="1813" y="-12"/>
      <point x="1887" y="-29"/>
      <point x="1961" y="-29" type="curve" smooth="yes"/>
      <point x="2127" y="-29"/>
      <point x="2213" y="50"/>
      <point x="2213" y="197" type="curve" smooth="yes"/>
      <point x="2213" y="208" type="line" smooth="yes"/>
      <point x="2213" y="318"/>
      <point x="2165" y="388"/>
      <point x="2070" y="410" type="curve"/>
      <point x="2064" y="413"/>
      <point x="2038" y="428"/>
      <point x="2030" y="431" type="curve" smooth="yes"/>
      <point x="2008" y="439"/>
      <point x="1984" y="442"/>
      <point x="1957" y="442" type="curve" smooth="yes"/>
      <point x="1820" y="442"/>
      <point x="1738" y="392"/>
      <point x="1656" y="321" type="curve" smooth="yes"/>
      <point x="1537" y="218" type="line" smooth="yes"/>
      <point x="1469" y="160"/>
      <point x="1415" y="117"/>
      <point x="1338" y="117" type="curve" smooth="yes"/>
      <point x="1261" y="117"/>
      <point x="1225" y="153"/>
      <point x="1225" y="221" type="curve" smooth="yes"/>
      <point x="1225" y="227" type="line" smooth="yes"/>
      <point x="1225" y="288"/>
      <point x="1251" y="325"/>
      <point x="1313" y="333" type="curve"/>
      <point x="1175" y="377" type="line"/>
      <point x="1175" y="362" type="line"/>
      <point x="1101" y="342"/>
      <point x="1064" y="283"/>
      <point x="1064" y="195" type="curve" smooth="yes"/>
      <point x="1064" y="190" type="line" smooth="yes"/>
      <point x="1064" y="51"/>
      <point x="1154" y="-29"/>
      <point x="1324" y="-29" type="curve" smooth="yes"/>
      <point x="1445" y="-29"/>
      <point x="1531" y="21"/>
      <point x="1610" y="91" type="curve" smooth="yes"/>
      <point x="1743" y="208" type="line" smooth="yes"/>
      <point x="1807" y="265"/>
      <point x="1865" y="305"/>
      <point x="1944" y="305" type="curve" smooth="yes"/>
      <point x="2012" y="305"/>
      <point x="2050" y="275"/>
      <point x="2050" y="212" type="curve" smooth="yes"/>
      <point x="2050" y="203" type="line" smooth="yes"/>
      <point x="2050" y="141"/>
      <point x="2013" y="110"/>
      <point x="1933" y="110" type="curve" smooth="yes"/>
      <point x="1862" y="110"/>
      <point x="1796" y="131"/>
      <point x="1732" y="173" type="curve"/>
    </contour>
    <contour>
      <point x="1061" y="790" type="curve" smooth="yes"/>
      <point x="1061" y="583" type="line" smooth="yes"/>
      <point x="1061" y="459"/>
      <point x="1103" y="384"/>
      <point x="1201" y="358" type="curve"/>
      <point x="1206" y="355"/>
      <point x="1226" y="338"/>
      <point x="1230" y="335" type="curve"/>
      <point x="1250" y="331"/>
      <point x="1271" y="330"/>
      <point x="1295" y="330" type="curve" smooth="yes"/>
      <point x="1449" y="330"/>
      <point x="1528" y="413"/>
      <point x="1528" y="574" type="curve" smooth="yes"/>
      <point x="1528" y="700" type="line" smooth="yes"/>
      <point x="1528" y="849"/>
      <point x="1475" y="923"/>
      <point x="1369" y="923" type="curve" smooth="yes"/>
      <point x="1277" y="923"/>
      <point x="1230" y="867"/>
      <point x="1210" y="768" type="curve"/>
      <point x="1214" y="723" type="line"/>
      <point x="1230" y="763"/>
      <point x="1259" y="786"/>
      <point x="1301" y="786" type="curve" smooth="yes"/>
      <point x="1347" y="786"/>
      <point x="1372" y="749"/>
      <point x="1372" y="679" type="curve" smooth="yes"/>
      <point x="1372" y="572" type="line" smooth="yes"/>
      <point x="1372" y="498"/>
      <point x="1344" y="461"/>
      <point x="1294" y="461" type="curve" smooth="yes"/>
      <point x="1244" y="461"/>
      <point x="1216" y="498"/>
      <point x="1216" y="572" type="curve" smooth="yes"/>
      <point x="1216" y="755" type="line"/>
      <point x="1229" y="801" type="line"/>
      <point x="1213" y="801" type="line"/>
      <point x="1213" y="804" type="line" smooth="yes"/>
      <point x="1213" y="972"/>
      <point x="1286" y="1062"/>
      <point x="1441" y="1062" type="curve" smooth="yes"/>
      <point x="1588" y="1062"/>
      <point x="1658" y="989"/>
      <point x="1660" y="842" type="curve" smooth="yes"/>
      <point x="1664" y="487" type="line"/>
      <point x="1820" y="506" type="line"/>
      <point x="1825" y="898" type="line" smooth="yes"/>
      <point x="1826" y="997"/>
      <point x="1852" y="1055"/>
      <point x="1932" y="1055" type="curve" smooth="yes"/>
      <point x="2009" y="1055"/>
      <point x="2041" y="1007"/>
      <point x="2041" y="898" type="curve" smooth="yes"/>
      <point x="2041" y="656" type="line" smooth="yes"/>
      <point x="2041" y="513"/>
      <point x="1996" y="447"/>
      <point x="1902" y="436" type="curve"/>
      <point x="2083" y="393" type="line"/>
      <point x="2083" y="413" type="line"/>
      <point x="2180" y="443"/>
      <point x="2207" y="541"/>
      <point x="2207" y="665" type="curve" smooth="yes"/>
      <point x="2207" y="905" type="line" smooth="yes"/>
      <point x="2207" y="1108"/>
      <point x="2127" y="1208"/>
      <point x="1961" y="1208" type="curve" smooth="yes"/>
      <point x="1832" y="1208"/>
      <point x="1758" y="1147"/>
      <point x="1739" y="1016" type="curve"/>
      <point x="1734" y="1016" type="line"/>
      <point x="1709" y="1139"/>
      <point x="1603" y="1208"/>
      <point x="1438" y="1208" type="curve" smooth="yes"/>
      <point x="1283" y="1208"/>
      <point x="1190" y="1145"/>
      <point x="1158" y="1033" type="curve"/>
      <point x="1133" y="1033" type="line"/>
      <point x="1119" y="977"/>
      <point x="1061" y="847"/>
    </contour>
    <contour>
      <point x="346" y="-29" type="curve" smooth="yes"/>
      <point x="353" y="-29" type="line" smooth="yes"/>
      <point x="496" y="-29"/>
      <point x="605" y="38"/>
      <point x="716" y="143" type="curve" smooth="yes"/>
      <point x="876" y="295" type="line" smooth="yes"/>
      <point x="998" y="411"/>
      <point x="1058" y="433"/>
      <point x="1123" y="437" type="curve"/>
      <point x="1117" y="574" type="line"/>
      <point x="1029" y="568"/>
      <point x="936" y="545"/>
      <point x="787" y="405" type="curve" smooth="yes"/>
      <point x="641" y="267" type="line" smooth="yes"/>
      <point x="559" y="189"/>
      <point x="479" y="118"/>
      <point x="374" y="118" type="curve" smooth="yes"/>
      <point x="367" y="118" type="line" smooth="yes"/>
      <point x="289" y="118"/>
      <point x="248" y="157"/>
      <point x="248" y="227" type="curve" smooth="yes"/>
      <point x="248" y="232" type="line" smooth="yes"/>
      <point x="248" y="290"/>
      <point x="274" y="325"/>
      <point x="334" y="333" type="curve"/>
      <point x="196" y="376" type="line"/>
      <point x="196" y="362" type="line"/>
      <point x="122" y="341"/>
      <point x="85" y="287"/>
      <point x="85" y="195" type="curve" smooth="yes"/>
      <point x="85" y="189" type="line" smooth="yes"/>
      <point x="85" y="57"/>
      <point x="173" y="-29"/>
    </contour>
  </outline>
</glyph>
<glyph name="JaJa_Alt.mlm" format="2">
  <advance width="2640"/>
  <outline>
    <contour>
      <point x="1539" y="406" type="line"/>
      <point x="1539" y="392" type="line"/>
      <point x="1452" y="367"/>
      <point x="1418" y="298"/>
      <point x="1418" y="201" type="curve" smooth="yes"/>
      <point x="1418" y="190" type="line" smooth="yes"/>
      <point x="1418" y="51"/>
      <point x="1506" y="-29"/>
      <point x="1668" y="-29" type="curve" smooth="yes"/>
      <point x="1792" y="-29"/>
      <point x="1882" y="24"/>
      <point x="1969" y="104" type="curve" smooth="yes"/>
      <point x="2104" y="228" type="line" smooth="yes"/>
      <point x="2196" y="313"/>
      <point x="2233" y="331"/>
      <point x="2291" y="331" type="curve" smooth="yes"/>
      <point x="2360" y="331"/>
      <point x="2394" y="293"/>
      <point x="2394" y="226" type="curve" smooth="yes"/>
      <point x="2394" y="215" type="line" smooth="yes"/>
      <point x="2394" y="146"/>
      <point x="2355" y="110"/>
      <point x="2280" y="110" type="curve" smooth="yes"/>
      <point x="2212" y="110"/>
      <point x="2146" y="130"/>
      <point x="2083" y="171" type="curve"/>
      <point x="2102" y="23" type="line"/>
      <point x="2162" y="-13"/>
      <point x="2231" y="-29"/>
      <point x="2302" y="-29" type="curve" smooth="yes"/>
      <point x="2467" y="-29"/>
      <point x="2554" y="52"/>
      <point x="2554" y="196" type="curve" smooth="yes"/>
      <point x="2554" y="210" type="line" smooth="yes"/>
      <point x="2554" y="314"/>
      <point x="2511" y="385"/>
      <point x="2415" y="407" type="curve"/>
      <point x="2387" y="416"/>
      <point x="2353" y="423"/>
      <point x="2312" y="423" type="curve"/>
      <point x="2033" y="354" type="line"/>
      <point x="2038" y="328" type="line"/>
      <point x="2007" y="316"/>
      <point x="1985" y="302"/>
      <point x="1948" y="269" type="curve" smooth="yes"/>
      <point x="1890" y="218" type="line" smooth="yes"/>
      <point x="1819" y="155"/>
      <point x="1767" y="112"/>
      <point x="1689" y="112" type="curve" smooth="yes"/>
      <point x="1615" y="112"/>
      <point x="1577" y="147"/>
      <point x="1577" y="219" type="curve" smooth="yes"/>
      <point x="1577" y="229" type="line" smooth="yes"/>
      <point x="1577" y="296"/>
      <point x="1613" y="332"/>
      <point x="1682" y="332" type="curve" smooth="yes"/>
      <point x="1934" y="332" type="line" smooth="yes"/>
      <point x="1988" y="332"/>
      <point x="2017" y="332"/>
      <point x="2070" y="336" type="curve"/>
      <point x="2415" y="391" type="line"/>
      <point x="2415" y="412" type="line"/>
      <point x="2509" y="442"/>
      <point x="2548" y="535"/>
      <point x="2548" y="677" type="curve" smooth="yes"/>
      <point x="2548" y="905" type="line" smooth="yes"/>
      <point x="2548" y="1108"/>
      <point x="2468" y="1208"/>
      <point x="2302" y="1208" type="curve" smooth="yes"/>
      <point x="2173" y="1208"/>
      <point x="2098" y="1147"/>
      <point x="2079" y="1016" type="curve"/>
      <point x="2074" y="1016" type="line"/>
      <point x="2048" y="1139"/>
      <point x="1939" y="1208"/>
      <point x="1770" y="1208" type="curve" smooth="yes"/>
      <point x="1523" y="1208"/>
      <point x="1402" y="1065"/>
      <point x="1402" y="790" type="curve" smooth="yes"/>
      <point x="1402" y="618" type="line" smooth="yes"/>
      <point x="1402" y="499"/>
      <point x="1442" y="419"/>
      <point x="1539" y="396" type="curve" smooth="yes"/>
      <point x="1563" y="390"/>
      <point x="1589" y="380"/>
      <point x="1620" y="380" type="curve" smooth="yes"/>
      <point x="1785" y="380"/>
      <point x="1868" y="459"/>
      <point x="1868" y="612" type="curve" smooth="yes"/>
      <point x="1868" y="700" type="line" smooth="yes"/>
      <point x="1868" y="849"/>
      <point x="1815" y="923"/>
      <point x="1710" y="923" type="curve" smooth="yes"/>
      <point x="1618" y="923"/>
      <point x="1571" y="867"/>
      <point x="1551" y="768" type="curve"/>
      <point x="1555" y="723" type="line"/>
      <point x="1571" y="763"/>
      <point x="1600" y="786"/>
      <point x="1642" y="786" type="curve" smooth="yes"/>
      <point x="1688" y="786"/>
      <point x="1713" y="749"/>
      <point x="1713" y="679" type="curve" smooth="yes"/>
      <point x="1713" y="594" type="line" smooth="yes"/>
      <point x="1713" y="517"/>
      <point x="1686" y="482"/>
      <point x="1635" y="482" type="curve" smooth="yes"/>
      <point x="1580" y="482"/>
      <point x="1557" y="517"/>
      <point x="1557" y="594" type="curve" smooth="yes"/>
      <point x="1557" y="755" type="line"/>
      <point x="1570" y="801" type="line"/>
      <point x="1554" y="801" type="line"/>
      <point x="1554" y="804" type="line" smooth="yes"/>
      <point x="1554" y="972"/>
      <point x="1628" y="1062"/>
      <point x="1783" y="1062" type="curve" smooth="yes"/>
      <point x="1928" y="1062"/>
      <point x="1998" y="989"/>
      <point x="2000" y="842" type="curve" smooth="yes"/>
      <point x="2004" y="539" type="line"/>
      <point x="2160" y="539" type="line"/>
      <point x="2165" y="898" type="line" smooth="yes"/>
      <point x="2166" y="997"/>
      <point x="2192" y="1055"/>
      <point x="2273" y="1055" type="curve" smooth="yes"/>
      <point x="2349" y="1055"/>
      <point x="2382" y="1007"/>
      <point x="2382" y="898" type="curve" smooth="yes"/>
      <point x="2382" y="676" type="line" smooth="yes"/>
      <point x="2382" y="525"/>
      <point x="2328" y="457"/>
      <point x="2215" y="457" type="curve" smooth="yes"/>
      <point x="1766" y="457" type="line"/>
    </contour>
    <contour>
      <point x="861" y="132" type="curve" smooth="yes"/>
      <point x="357" y="132" type="line" smooth="yes"/>
      <point x="284" y="132"/>
      <point x="246" y="164.645"/>
      <point x="246" y="224" type="curve"/>
      <point x="246" y="226" type="line"/>
      <point x="246" y="285"/>
      <point x="284" y="319"/>
      <point x="357" y="319" type="curve" smooth="yes"/>
      <point x="932" y="319" type="line" smooth="yes"/>
      <point x="1122" y="319"/>
      <point x="1228" y="428"/>
      <point x="1228" y="673" type="curve" smooth="yes"/>
      <point x="1228" y="905" type="line" smooth="yes"/>
      <point x="1228" y="1108"/>
      <point x="1148" y="1208"/>
      <point x="982" y="1208" type="curve" smooth="yes"/>
      <point x="853" y="1208"/>
      <point x="778" y="1147"/>
      <point x="759" y="1016" type="curve"/>
      <point x="754" y="1016" type="line"/>
      <point x="728" y="1139"/>
      <point x="619" y="1208"/>
      <point x="450" y="1208" type="curve" smooth="yes"/>
      <point x="203" y="1208"/>
      <point x="82" y="1065"/>
      <point x="82" y="790" type="curve" smooth="yes"/>
      <point x="82" y="614" type="line" smooth="yes"/>
      <point x="82" y="495"/>
      <point x="120" y="415"/>
      <point x="209" y="392" type="curve"/>
      <point x="236" y="386"/>
      <point x="265" y="376"/>
      <point x="300" y="376" type="curve" smooth="yes"/>
      <point x="465" y="376"/>
      <point x="548" y="455"/>
      <point x="548" y="608" type="curve" smooth="yes"/>
      <point x="548" y="700" type="line" smooth="yes"/>
      <point x="548" y="849"/>
      <point x="495" y="923"/>
      <point x="390" y="923" type="curve" smooth="yes"/>
      <point x="298" y="923"/>
      <point x="251" y="867"/>
      <point x="231" y="768" type="curve"/>
      <point x="235" y="723" type="line"/>
      <point x="251" y="763"/>
      <point x="280" y="786"/>
      <point x="322" y="786" type="curve" smooth="yes"/>
      <point x="368" y="786"/>
      <point x="393" y="749"/>
      <point x="393" y="679" type="curve" smooth="yes"/>
      <point x="393" y="590" type="line" smooth="yes"/>
      <point x="393" y="513"/>
      <point x="366" y="478"/>
      <point x="315" y="478" type="curve" smooth="yes"/>
      <point x="260" y="478"/>
      <point x="237" y="513"/>
      <point x="237" y="590" type="curve" smooth="yes"/>
      <point x="237" y="755" type="line"/>
      <point x="250" y="801" type="line"/>
      <point x="234" y="801" type="line"/>
      <point x="234" y="804" type="line" smooth="yes"/>
      <point x="234" y="972"/>
      <point x="308" y="1062"/>
      <point x="463" y="1062" type="curve" smooth="yes"/>
      <point x="608" y="1062"/>
      <point x="678" y="989"/>
      <point x="680" y="842" type="curve" smooth="yes"/>
      <point x="684" y="542" type="line"/>
      <point x="840" y="542" type="line"/>
      <point x="845" y="898" type="line" smooth="yes"/>
      <point x="846" y="997"/>
      <point x="872" y="1055"/>
      <point x="953" y="1055" type="curve" smooth="yes"/>
      <point x="1029" y="1055"/>
      <point x="1062" y="1007"/>
      <point x="1062" y="898" type="curve" smooth="yes"/>
      <point x="1062" y="672" type="line" smooth="yes"/>
      <point x="1062" y="521"/>
      <point x="1009" y="453"/>
      <point x="898" y="453" type="curve" smooth="yes"/>
      <point x="446" y="453" type="line"/>
      <point x="209" y="402" type="line"/>
      <point x="209" y="388" type="line"/>
      <point x="120" y="365"/>
      <point x="85" y="300"/>
      <point x="85" y="208" type="curve" smooth="yes"/>
      <point x="85" y="205" type="line" smooth="yes"/>
      <point x="85" y="71"/>
      <point x="173" y="-4"/>
      <point x="335" y="-4" type="curve" smooth="yes"/>
      <point x="883" y="-4" type="line" smooth="yes"/>
      <point x="1135.06" y="-4"/>
      <point x="1270.64" y="96.5665"/>
      <point x="1358" y="302" type="curve" smooth="yes"/>
      <point x="1486" y="603" type="line"/>
      <point x="1408" y="748" type="line"/>
      <point x="1240" y="363" type="line" smooth="yes"/>
      <point x="1169.21" y="200.772"/>
      <point x="1061.94" y="132"/>
    </contour>
  </outline>
</glyph>
